NotoSerifBengali-SemiCondensedBlack.ufo
<glyph name="exclam" format="2">
  <advance width="385.73333333333335"/>
  <unicode hex="0021"/>
  <outline>
    <contour>
      <point x="170.50000000000003" y="231.2" type="line"/>
      <point x="229.79999999999998" y="231.2" type="line"/>
      <point x="289.06666666666666" y="714.0" type="line"/>
      <point x="111.23333333333333" y="714.0" type="line"/>
    </contour>
    <contour>
      <point x="201.33333333333334" y="-8.0" type="curve" smooth="yes"/>
      <point x="244.96666666666667" y="-8.0"/>
      <point x="283.23333333333335" y="12.0"/>
      <point x="283.23333333333335" y="72.73333333333333" type="curve" smooth="yes"/>
      <point x="283.23333333333335" y="134.73333333333335"/>
      <point x="244.96666666666667" y="154.1"/>
      <point x="201.33333333333334" y="154.1" type="curve" smooth="yes"/>
      <point x="155.0666666666667" y="154.1"/>
      <point x="119.43333333333334" y="134.73333333333335"/>
      <point x="119.43333333333334" y="72.73333333333333" type="curve" smooth="yes"/>
      <point x="119.43333333333334" y="12.0"/>
      <point x="155.0666666666667" y="-8.0"/>
    </contour>
  </outline>
</glyph>
<glyph name="quotedbl" format="2">
  <advance width="501.83333333333337"/>
  <unicode hex="0022"/>
  <outline>
    <contour>
      <point x="330.26666666666665" y="434.7" type="line"/>
      <point x="397.2666666666667" y="434.7" type="line"/>
      <point x="436.6666666666667" y="714.0" type="line"/>
      <point x="278.2" y="714.0" type="line"/>
    </contour>
    <contour>
      <point x="111.53333333333333" y="434.7" type="line"/>
      <point x="178.53333333333333" y="434.7" type="line"/>
      <point x="224.89999999999998" y="714.0" type="line"/>
      <point x="65.16666666666666" y="714.0" type="line"/>
    </contour>
  </outline>
</glyph>
<glyph name="numbersign" format="2">
  <advance width="524.9"/>
  <unicode hex="0023"/>
  <outline>
    <contour>
      <point x="72.26666666666667" y="0.0" type="line"/>
      <point x="146.83333333333334" y="0.0" type="line"/>
      <point x="184.83333333333334" y="199.26666666666665" type="line"/>
      <point x="278.1666666666667" y="199.26666666666665" type="line"/>
      <point x="241.53333333333333" y="0.0" type="line"/>
      <point x="316.09999999999997" y="0.0" type="line"/>
      <point x="352.7333333333333" y="199.26666666666665" type="line"/>
      <point x="470.4" y="199.26666666666665" type="line"/>
      <point x="470.4" y="270.8333333333333" type="line"/>
      <point x="367.4666666666667" y="270.8333333333333" type="line"/>
      <point x="400.7333333333333" y="447.8" type="line"/>
      <point x="502.4" y="447.8" type="line"/>
      <point x="502.4" y="520.7333333333333" type="line"/>
      <point x="414.1" y="520.7333333333333" type="line"/>
      <point x="451.1" y="714.0" type="line"/>
      <point x="376.5333333333333" y="714.0" type="line"/>
      <point x="339.5333333333333" y="520.7333333333333" type="line"/>
      <point x="246.2" y="520.7333333333333" type="line"/>
      <point x="281.8333333333333" y="714.0" type="line"/>
      <point x="206.26666666666668" y="714.0" type="line"/>
      <point x="172.26666666666668" y="520.7333333333333" type="line"/>
      <point x="54.86666666666667" y="520.7333333333333" type="line"/>
      <point x="54.86666666666667" y="447.8" type="line"/>
      <point x="157.9" y="447.8" type="line"/>
      <point x="123.63333333333334" y="270.8333333333333" type="line"/>
      <point x="22.866666666666667" y="270.8333333333333" type="line"/>
      <point x="22.866666666666667" y="199.26666666666665" type="line"/>
      <point x="110.9" y="199.26666666666665" type="line"/>
    </contour>
    <contour>
      <point x="198.2" y="270.8333333333333" type="line"/>
      <point x="232.83333333333334" y="447.8" type="line"/>
      <point x="327.16666666666663" y="447.8" type="line"/>
      <point x="293.5333333333333" y="270.8333333333333" type="line"/>
    </contour>
  </outline>
</glyph>
<glyph name="percent" format="2">
  <advance width="852.8333333333333"/>
  <unicode hex="0025"/>
  <outline>
    <contour>
      <point x="226.8" y="0.0" type="line"/>
      <point x="303.23333333333335" y="0.0" type="line"/>
      <point x="623.4" y="714.0" type="line"/>
      <point x="547.6" y="714.0" type="line"/>
    </contour>
    <contour>
      <point x="201.9" y="280.0" type="curve" smooth="yes"/>
      <point x="319.1333333333333" y="280.0"/>
      <point x="376.2" y="369.0"/>
      <point x="376.2" y="503.0" type="curve"/>
      <point x="376.2" y="637.0"/>
      <point x="319.1333333333333" y="724.0"/>
      <point x="202.9" y="724.0" type="curve" smooth="yes"/>
      <point x="80.03333333333333" y="724.0"/>
      <point x="29.233333333333334" y="637.0"/>
      <point x="29.233333333333334" y="503.0" type="curve" smooth="yes"/>
      <point x="29.233333333333334" y="369.0"/>
      <point x="80.03333333333333" y="280.0"/>
    </contour>
    <contour>
      <point x="202.26666666666665" y="331.3666666666666" type="curve" smooth="yes"/>
      <point x="157.93333333333334" y="331.3666666666666"/>
      <point x="140.76666666666665" y="394.0"/>
      <point x="140.76666666666665" y="503.0" type="curve"/>
      <point x="140.76666666666665" y="610.0"/>
      <point x="157.93333333333334" y="671.6333333333333"/>
      <point x="202.9" y="671.6333333333333" type="curve" smooth="yes"/>
      <point x="247.86666666666667" y="671.6333333333333"/>
      <point x="262.40000000000003" y="610.0"/>
      <point x="262.40000000000003" y="503.0" type="curve" smooth="yes"/>
      <point x="262.40000000000003" y="394.0"/>
      <point x="247.86666666666667" y="331.3666666666666"/>
    </contour>
    <contour>
      <point x="650.9333333333334" y="-10.0" type="curve" smooth="yes"/>
      <point x="767.8000000000001" y="-10.0"/>
      <point x="824.8666666666667" y="79.0"/>
      <point x="824.8666666666667" y="213.0" type="curve" smooth="yes"/>
      <point x="824.8666666666667" y="347.0"/>
      <point x="767.8000000000001" y="434.0"/>
      <point x="651.9333333333334" y="434.0" type="curve" smooth="yes"/>
      <point x="529.0666666666666" y="434.0"/>
      <point x="478.26666666666665" y="347.0"/>
      <point x="478.26666666666665" y="213.0" type="curve" smooth="yes"/>
      <point x="478.26666666666665" y="79.0"/>
      <point x="529.0666666666666" y="-10.0"/>
    </contour>
    <contour>
      <point x="650.9333333333334" y="41.36666666666667" type="curve" smooth="yes"/>
      <point x="606.9666666666667" y="41.36666666666667"/>
      <point x="589.8000000000001" y="104.0"/>
      <point x="589.8000000000001" y="213.0" type="curve" smooth="yes"/>
      <point x="589.8000000000001" y="320.0"/>
      <point x="606.9666666666667" y="381.6333333333334"/>
      <point x="651.9333333333334" y="381.6333333333334" type="curve" smooth="yes"/>
      <point x="696.5333333333333" y="381.6333333333334"/>
      <point x="711.4333333333333" y="320.0"/>
      <point x="711.4333333333333" y="213.0" type="curve" smooth="yes"/>
      <point x="711.4333333333333" y="104.0"/>
      <point x="696.5333333333333" y="41.36666666666667"/>
    </contour>
  </outline>
</glyph>
<glyph name="quotesingle" format="2">
  <advance width="290.06666666666666"/>
  <unicode hex="0027"/>
  <outline>
    <contour>
      <point x="111.53333333333333" y="434.7" type="line"/>
      <point x="178.53333333333333" y="434.7" type="line"/>
      <point x="224.89999999999998" y="714.0" type="line"/>
      <point x="65.16666666666666" y="714.0" type="line"/>
    </contour>
  </outline>
</glyph>
<glyph name="parenleft" format="2">
  <advance width="422.73333333333335"/>
  <unicode hex="0028"/>
  <outline>
    <contour>
      <point x="351.1333333333333" y="-140.1" type="curve"/>
      <point x="351.1333333333333" y="-74.26666666666667" type="line"/>
      <point x="237.4" y="7.366666666666666"/>
      <point x="210.66666666666666" y="159.0"/>
      <point x="210.66666666666666" y="318.0" type="curve" smooth="yes"/>
      <point x="210.66666666666666" y="476.0"/>
      <point x="237.4" y="625.6333333333333"/>
      <point x="351.1333333333333" y="708.6333333333333" type="curve"/>
      <point x="351.1333333333333" y="773.1" type="line"/>
      <point x="131.26666666666668" y="682.6333333333333"/>
      <point x="45.1" y="529.8"/>
      <point x="45.1" y="318.0" type="curve" smooth="yes"/>
      <point x="45.1" y="105.2"/>
      <point x="131.26666666666668" y="-49.266666666666666"/>
    </contour>
  </outline>
</glyph>
<glyph name="parenright" format="2">
  <advance width="441.1"/>
  <unicode hex="0029"/>
  <outline>
    <contour>
      <point x="89.96666666666667" y="-140.1" type="line"/>
      <point x="309.83333333333337" y="-49.266666666666666"/>
      <point x="396.0" y="105.2"/>
      <point x="396.0" y="318.0" type="curve" smooth="yes"/>
      <point x="396.0" y="529.8"/>
      <point x="309.83333333333337" y="682.6333333333333"/>
      <point x="89.96666666666667" y="773.1" type="curve"/>
      <point x="89.96666666666667" y="708.6333333333333" type="line"/>
      <point x="202.7" y="625.6333333333333"/>
      <point x="230.43333333333337" y="476.0"/>
      <point x="230.43333333333337" y="318.0" type="curve" smooth="yes"/>
      <point x="230.43333333333337" y="159.0"/>
      <point x="202.7" y="7.366666666666666"/>
      <point x="89.96666666666667" y="-74.26666666666667" type="curve"/>
    </contour>
  </outline>
</glyph>
<glyph name="asterisk" format="2">
  <advance width="472.20000000000005"/>
  <unicode hex="002A"/>
  <outline>
    <contour>
      <point x="182.43333333333334" y="365.53333333333336" type="line"/>
      <point x="292.59999999999997" y="365.53333333333336" type="line"/>
      <point x="257.3333333333333" y="527.9" type="line"/>
      <point x="397.06666666666666" y="422.53333333333336" type="line"/>
      <point x="442.3333333333333" y="524.0" type="line"/>
      <point x="299.43333333333334" y="562.2666666666667" type="line"/>
      <point x="442.3333333333333" y="601.5333333333333" type="line"/>
      <point x="397.06666666666666" y="703.0" type="line"/>
      <point x="257.3333333333333" y="597.9" type="line"/>
      <point x="293.6" y="760.0" type="line"/>
      <point x="182.43333333333334" y="760.0" type="line"/>
      <point x="215.06666666666666" y="595.9" type="line"/>
      <point x="75.96666666666667" y="705.0" type="line"/>
      <point x="31.7" y="602.5333333333333" type="line"/>
      <point x="174.6" y="562.2666666666667" type="line"/>
      <point x="31.7" y="523.0" type="line"/>
      <point x="75.96666666666667" y="421.1666666666667" type="line"/>
      <point x="214.70000000000002" y="529.2666666666667" type="line"/>
    </contour>
  </outline>
</glyph>
<glyph name="plus" format="2">
  <advance width="509.8666666666667"/>
  <unicode hex="002B"/>
  <outline>
    <contour>
      <point x="217.7" y="143.0" type="line"/>
      <point x="291.53333333333336" y="143.0" type="line"/>
      <point x="291.53333333333336" y="321.6333333333333" type="line"/>
      <point x="456.23333333333335" y="321.6333333333333" type="line"/>
      <point x="456.23333333333335" y="393.3666666666667" type="line"/>
      <point x="291.53333333333336" y="393.3666666666667" type="line"/>
      <point x="291.53333333333336" y="572.0" type="line"/>
      <point x="217.7" y="572.0" type="line"/>
      <point x="217.7" y="393.3666666666667" type="line"/>
      <point x="53.63333333333333" y="393.3666666666667" type="line"/>
      <point x="53.63333333333333" y="321.6333333333333" type="line"/>
      <point x="217.7" y="321.6333333333333" type="line"/>
    </contour>
  </outline>
</glyph>
<glyph name="comma" format="2">
  <advance width="324.93333333333334"/>
  <unicode hex="002C"/>
  <outline>
    <contour>
      <point x="85.0" y="-154.0" type="line"/>
      <point x="210.13333333333335" y="-119.36666666666667"/>
      <point x="256.93333333333334" y="-43.73333333333333"/>
      <point x="256.93333333333334" y="40.53333333333333" type="curve" smooth="yes"/>
      <point x="256.93333333333334" y="110.63333333333333"/>
      <point x="227.5" y="154.1"/>
      <point x="171.23333333333335" y="154.1" type="curve" smooth="yes"/>
      <point x="131.33333333333334" y="154.1"/>
      <point x="97.43333333333334" y="129.73333333333332"/>
      <point x="97.43333333333334" y="84.10000000000001" type="curve" smooth="yes"/>
      <point x="97.43333333333334" y="2.6333333333333333"/>
      <point x="166.03333333333333" y="12.9"/>
      <point x="166.03333333333333" y="-24.366666666666667" type="curve" smooth="yes"/>
      <point x="166.03333333333333" y="-61.0"/>
      <point x="138.5" y="-80.63333333333334"/>
      <point x="85.0" y="-101.26666666666667" type="curve"/>
    </contour>
  </outline>
</glyph>
<glyph name="hyphen" format="2">
  <advance width="291.3"/>
  <unicode hex="002D"/>
  <outline>
    <contour>
      <point x="23.533333333333335" y="217.9" type="line"/>
      <point x="267.76666666666665" y="217.9" type="line"/>
      <point x="267.76666666666665" y="327.1" type="line"/>
      <point x="23.533333333333335" y="327.1" type="line"/>
    </contour>
  </outline>
</glyph>
<glyph name="period" format="2">
  <advance width="325.56666666666666"/>
  <unicode hex="002E"/>
  <outline>
    <contour>
      <point x="182.86666666666667" y="-8.0" type="curve" smooth="yes"/>
      <point x="226.5" y="-8.0"/>
      <point x="264.5" y="12.0"/>
      <point x="264.5" y="72.73333333333333" type="curve" smooth="yes"/>
      <point x="264.5" y="134.73333333333335"/>
      <point x="226.5" y="154.1"/>
      <point x="182.86666666666667" y="154.1" type="curve" smooth="yes"/>
      <point x="136.6" y="154.1"/>
      <point x="100.96666666666667" y="134.73333333333335"/>
      <point x="100.96666666666667" y="72.73333333333333" type="curve" smooth="yes"/>
      <point x="100.96666666666667" y="12.0"/>
      <point x="136.6" y="-8.0"/>
    </contour>
  </outline>
</glyph>
<glyph name="slash" format="2">
  <advance width="270.4"/>
  <unicode hex="002F"/>
  <outline>
    <contour>
      <point x="0.0" y="-121.0" type="line"/>
      <point x="71.53333333333333" y="-121.0" type="line"/>
      <point x="270.4" y="760.0" type="line"/>
      <point x="201.23333333333332" y="760.0" type="line"/>
    </contour>
  </outline>
</glyph>
<glyph name="zero" format="2">
  <advance width="524.9"/>
  <unicode hex="0030"/>
  <outline>
    <contour>
      <point x="262.76666666666665" y="-10.0" type="curve" smooth="yes"/>
      <point x="430.16666666666663" y="-10.0"/>
      <point x="495.3" y="135.9"/>
      <point x="495.3" y="358.0" type="curve" smooth="yes"/>
      <point x="495.3" y="581.4666666666667"/>
      <point x="430.1666666666667" y="724.0"/>
      <point x="263.76666666666665" y="724.0" type="curve" smooth="yes"/>
      <point x="87.1" y="724.0"/>
      <point x="29.233333333333334" y="580.7333333333332"/>
      <point x="29.233333333333334" y="359.0" type="curve" smooth="yes"/>
      <point x="29.233333333333334" y="135.53333333333333"/>
      <point x="87.10000000000001" y="-10.0"/>
    </contour>
    <contour>
      <point x="262.76666666666665" y="55.733333333333334" type="curve" smooth="yes"/>
      <point x="198.3" y="55.733333333333334"/>
      <point x="186.43333333333334" y="167.36666666666667"/>
      <point x="186.43333333333334" y="358.0" type="curve" smooth="yes"/>
      <point x="186.43333333333334" y="548.6333333333333"/>
      <point x="198.3" y="658.2666666666667"/>
      <point x="263.76666666666665" y="658.2666666666667" type="curve" smooth="yes"/>
      <point x="326.8666666666667" y="658.2666666666667"/>
      <point x="338.09999999999997" y="548.6333333333333"/>
      <point x="338.09999999999997" y="358.0" type="curve" smooth="yes"/>
      <point x="338.09999999999997" y="167.36666666666667"/>
      <point x="326.8666666666667" y="55.733333333333334"/>
    </contour>
  </outline>
</glyph>
<glyph name="one" format="2">
  <advance width="524.9"/>
  <unicode hex="0031"/>
  <outline>
    <contour>
      <point x="84.9" y="0.0" type="line"/>
      <point x="483.23333333333335" y="0.0" type="line"/>
      <point x="483.23333333333335" y="54.1" type="line"/>
      <point x="412.5" y="54.1" type="line" smooth="yes"/>
      <point x="374.1666666666667" y="54.1"/>
      <point x="362.23333333333335" y="77.46666666666667"/>
      <point x="362.23333333333335" y="118.36666666666667" type="curve" smooth="yes"/>
      <point x="362.23333333333335" y="718.0" type="line"/>
      <point x="245.83333333333334" y="718.0" type="line"/>
      <point x="180.23333333333335" y="667.4666666666667" type="line" smooth="yes"/>
      <point x="117.53333333333333" y="619.2"/>
      <point x="71.36666666666666" y="601.5666666666667"/>
      <point x="33.93333333333333" y="591.5666666666667" type="curve"/>
      <point x="33.93333333333333" y="545.1"/>
      <point x="59.199999999999996" y="515.7333333333333"/>
      <point x="90.1" y="515.7333333333333" type="curve" smooth="yes"/>
      <point x="127.9" y="515.7333333333333"/>
      <point x="164.43333333333334" y="553.7"/>
      <point x="211.4" y="614.2333333333333" type="curve"/>
      <point x="211.4" y="118.36666666666667" type="line" smooth="yes"/>
      <point x="211.4" y="68.73333333333333"/>
      <point x="192.83333333333334" y="54.1"/>
      <point x="161.76666666666668" y="54.1" type="curve" smooth="yes"/>
      <point x="84.9" y="54.1" type="line"/>
    </contour>
  </outline>
</glyph>
<glyph name="two" format="2">
  <advance width="524.9"/>
  <unicode hex="0032"/>
  <outline>
    <contour>
      <point x="30.233333333333334" y="0.0" type="line"/>
      <point x="483.06666666666666" y="0.0" type="line"/>
      <point x="487.7" y="213.66666666666669" type="line"/>
      <point x="428.33333333333337" y="213.66666666666669" type="line"/>
      <point x="419.9666666666667" y="181.2" type="line" smooth="yes"/>
      <point x="408.33333333333337" y="136.1"/>
      <point x="376.5" y="112.93333333333334"/>
      <point x="342.46666666666664" y="112.93333333333334" type="curve" smooth="yes"/>
      <point x="129.26666666666665" y="112.93333333333334" type="line"/>
      <point x="233.66666666666669" y="213.79999999999998" type="line" smooth="yes"/>
      <point x="399.93333333333334" y="373.73333333333335"/>
      <point x="464.5333333333333" y="453.26666666666665"/>
      <point x="464.5333333333333" y="555.0666666666666" type="curve" smooth="yes"/>
      <point x="464.5333333333333" y="658.4333333333333"/>
      <point x="388.56666666666666" y="724.0"/>
      <point x="243.23333333333335" y="724.0" type="curve" smooth="yes"/>
      <point x="102.36666666666667" y="724.0"/>
      <point x="32.766666666666666" y="657.3333333333334"/>
      <point x="32.766666666666666" y="586.4333333333334" type="curve" smooth="yes"/>
      <point x="32.766666666666666" y="513.3333333333334"/>
      <point x="88.06666666666666" y="489.26666666666665"/>
      <point x="160.4" y="489.26666666666665" type="curve"/>
      <point x="160.4" y="606.5666666666667"/>
      <point x="184.76666666666668" y="661.9"/>
      <point x="243.23333333333335" y="661.9" type="curve" smooth="yes"/>
      <point x="283.53333333333336" y="661.9"/>
      <point x="311.33333333333337" y="629.7333333333333"/>
      <point x="311.33333333333337" y="551.5333333333333" type="curve" smooth="yes"/>
      <point x="311.33333333333337" y="449.26666666666665"/>
      <point x="280.33333333333337" y="375.59999999999997"/>
      <point x="163.56666666666666" y="247.76666666666668" type="curve" smooth="yes"/>
      <point x="30.233333333333334" y="103.0" type="line"/>
    </contour>
  </outline>
</glyph>
<glyph name="three" format="2">
  <advance width="524.9"/>
  <unicode hex="0033"/>
  <outline>
    <contour>
      <point x="227.96666666666667" y="-10.0" type="curve" smooth="yes"/>
      <point x="363.0333333333333" y="-10.0"/>
      <point x="487.3333333333333" y="43.0"/>
      <point x="487.3333333333333" y="205.26666666666665" type="curve" smooth="yes"/>
      <point x="487.3333333333333" y="318.06666666666666"/>
      <point x="398.5" y="364.90000000000003"/>
      <point x="321.79999999999995" y="380.6333333333333" type="curve"/>
      <point x="402.2" y="410.3666666666667"/>
      <point x="463.8" y="469.90000000000003"/>
      <point x="463.8" y="559.9" type="curve" smooth="yes"/>
      <point x="463.8" y="664.6333333333333"/>
      <point x="379.2" y="724.0"/>
      <point x="241.96666666666667" y="724.0" type="curve" smooth="yes"/>
      <point x="101.46666666666667" y="724.0"/>
      <point x="31.599999999999998" y="663.9666666666667"/>
      <point x="31.599999999999998" y="594.0666666666667" type="curve" smooth="yes"/>
      <point x="31.599999999999998" y="532.6999999999999"/>
      <point x="78.6" y="506.5333333333333"/>
      <point x="157.56666666666666" y="506.5333333333333" type="curve"/>
      <point x="157.56666666666666" y="584.9000000000001"/>
      <point x="173.03333333333333" y="661.9"/>
      <point x="236.23333333333335" y="661.9" type="curve" smooth="yes"/>
      <point x="282.1666666666667" y="661.9"/>
      <point x="308.9666666666667" y="617.9"/>
      <point x="308.9666666666667" y="546.6333333333333" type="curve" smooth="yes"/>
      <point x="308.9666666666667" y="459.3666666666667"/>
      <point x="276.76666666666665" y="400.73333333333335"/>
      <point x="196.26666666666665" y="400.73333333333335" type="curve"/>
      <point x="129.9" y="400.73333333333335" type="line"/>
      <point x="129.9" y="338.0" type="line"/>
      <point x="191.89999999999998" y="338.0" type="line" smooth="yes"/>
      <point x="282.73333333333335" y="338.0"/>
      <point x="331.50000000000006" y="282.6333333333333"/>
      <point x="331.50000000000006" y="206.26666666666665" type="curve" smooth="yes"/>
      <point x="331.50000000000006" y="92.73333333333333"/>
      <point x="279.73333333333335" y="61.46666666666667"/>
      <point x="221.70000000000002" y="61.46666666666667" type="curve" smooth="yes"/>
      <point x="155.3" y="61.46666666666667"/>
      <point x="107.5" y="106.66666666666666"/>
      <point x="107.5" y="193.13333333333333" type="curve"/>
      <point x="62.233333333333334" y="193.13333333333333"/>
      <point x="22.5" y="166.13333333333333"/>
      <point x="22.5" y="114.03333333333333" type="curve" smooth="yes"/>
      <point x="22.5" y="46.63333333333333"/>
      <point x="81.73333333333333" y="-10.0"/>
    </contour>
  </outline>
</glyph>
<glyph name="four" format="2">
  <advance width="524.9"/>
  <unicode hex="0034"/>
  <outline>
    <contour>
      <point x="160.93333333333334" y="0.0" type="line"/>
      <point x="502.03333333333336" y="0.0" type="line"/>
      <point x="502.03333333333336" y="54.1" type="line"/>
      <point x="489.7666666666667" y="54.1" type="line" smooth="yes"/>
      <point x="447.7" y="54.1"/>
      <point x="412.9" y="63.1"/>
      <point x="412.9" y="126.10000000000001" type="curve" smooth="yes"/>
      <point x="412.9" y="185.26666666666668" type="line"/>
      <point x="505.90000000000003" y="185.26666666666668" type="line"/>
      <point x="505.90000000000003" y="252.0" type="line"/>
      <point x="412.9" y="252.0" type="line"/>
      <point x="412.9" y="714.0" type="line"/>
      <point x="270.23333333333335" y="714.0" type="line"/>
      <point x="11.533333333333333" y="247.73333333333332" type="line"/>
      <point x="11.533333333333333" y="185.26666666666668" type="line"/>
      <point x="264.33333333333337" y="185.26666666666668" type="line"/>
      <point x="264.33333333333337" y="126.10000000000001" type="line" smooth="yes"/>
      <point x="264.33333333333337" y="63.1"/>
      <point x="229.53333333333333" y="54.1"/>
      <point x="187.46666666666667" y="54.1" type="curve" smooth="yes"/>
      <point x="160.93333333333334" y="54.1" type="line"/>
    </contour>
    <contour>
      <point x="81.16666666666667" y="252.0" type="line"/>
      <point x="199.29999999999998" y="465.83333333333337" type="line" smooth="yes"/>
      <point x="216.5" y="499.2666666666667"/>
      <point x="256.5" y="575.1666666666666"/>
      <point x="270.96666666666664" y="613.1333333333333" type="curve"/>
      <point x="265.9666666666667" y="551.1333333333333"/>
      <point x="264.33333333333337" y="487.9333333333333"/>
      <point x="264.33333333333337" y="429.9333333333333" type="curve" smooth="yes"/>
      <point x="264.33333333333337" y="252.0" type="line"/>
    </contour>
  </outline>
</glyph>
<glyph name="five" format="2">
  <advance width="524.9"/>
  <unicode hex="0035"/>
  <outline>
    <contour>
      <point x="230.33333333333334" y="-10.0" type="curve" smooth="yes"/>
      <point x="336.6666666666667" y="-10.0"/>
      <point x="479.6" y="43.333333333333336"/>
      <point x="479.6" y="220.0" type="curve" smooth="yes"/>
      <point x="479.6" y="363.3666666666667"/>
      <point x="384.09999999999997" y="434.73333333333335"/>
      <point x="232.76666666666668" y="434.73333333333335" type="curve" smooth="yes"/>
      <point x="198.36666666666667" y="434.73333333333335"/>
      <point x="151.1" y="427.73333333333335"/>
      <point x="131.2" y="419.3666666666667" type="curve"/>
      <point x="146.83333333333334" y="601.4333333333334" type="line"/>
      <point x="343.83333333333337" y="601.4333333333334" type="line" smooth="yes"/>
      <point x="371.8" y="601.4333333333334"/>
      <point x="379.06666666666666" y="587.4333333333334"/>
      <point x="385.0666666666667" y="562.6999999999999" type="curve" smooth="yes"/>
      <point x="393.79999999999995" y="529.0666666666667" type="line"/>
      <point x="450.8" y="529.0666666666667" type="line"/>
      <point x="446.1666666666667" y="714.0" type="line"/>
      <point x="87.23333333333333" y="714.0" type="line"/>
      <point x="55.599999999999994" y="369.1" type="line"/>
      <point x="99.03333333333333" y="350.0" type="line"/>
      <point x="128.66666666666666" y="358.6333333333333"/>
      <point x="156.83333333333334" y="368.0"/>
      <point x="200.5" y="368.0" type="curve" smooth="yes"/>
      <point x="279.9" y="368.0"/>
      <point x="324.76666666666665" y="319.6333333333333"/>
      <point x="324.76666666666665" y="220.0" type="curve" smooth="yes"/>
      <point x="324.76666666666665" y="97.0"/>
      <point x="272.1666666666667" y="60.36666666666667"/>
      <point x="213.86666666666667" y="60.36666666666667" type="curve" smooth="yes"/>
      <point x="137.0" y="60.36666666666667"/>
      <point x="113.03333333333333" y="126.3"/>
      <point x="113.03333333333333" y="183.66666666666669" type="curve"/>
      <point x="66.86666666666667" y="183.66666666666669"/>
      <point x="34.13333333333333" y="160.29999999999998"/>
      <point x="34.13333333333333" y="113.56666666666666" type="curve" smooth="yes"/>
      <point x="34.13333333333333" y="49.733333333333334"/>
      <point x="88.76666666666667" y="-10.0"/>
    </contour>
  </outline>
</glyph>
<glyph name="six" format="2">
  <advance width="524.9"/>
  <unicode hex="0036"/>
  <outline>
    <contour>
      <point x="275.0333333333333" y="-10.0" type="curve" smooth="yes"/>
      <point x="421.53333333333336" y="-10.0"/>
      <point x="495.7666666666667" y="88.0"/>
      <point x="495.7666666666667" y="231.0" type="curve" smooth="yes"/>
      <point x="495.7666666666667" y="361.3666666666667"/>
      <point x="421.53333333333336" y="438.3666666666667"/>
      <point x="307.8666666666667" y="438.3666666666667" type="curve" smooth="yes"/>
      <point x="243.53333333333333" y="438.3666666666667"/>
      <point x="206.39999999999998" y="419.3666666666667"/>
      <point x="181.6" y="402.09999999999997" type="curve"/>
      <point x="189.6" y="568.9"/>
      <point x="229.53333333333336" y="663.9"/>
      <point x="298.6333333333333" y="663.9" type="curve" smooth="yes"/>
      <point x="345.7666666666667" y="663.9"/>
      <point x="361.33333333333337" y="598.2"/>
      <point x="361.33333333333337" y="533.8000000000001" type="curve"/>
      <point x="447.8666666666667" y="533.8000000000001"/>
      <point x="478.76666666666665" y="570.4333333333333"/>
      <point x="478.76666666666665" y="613.2666666666667" type="curve" smooth="yes"/>
      <point x="478.76666666666665" y="671.0"/>
      <point x="431.5" y="724.0"/>
      <point x="306.1666666666667" y="724.0" type="curve" smooth="yes"/>
      <point x="126.0" y="724.0"/>
      <point x="38.4" y="562.4666666666667"/>
      <point x="38.4" y="330.73333333333335" type="curve" smooth="yes"/>
      <point x="38.4" y="97.0"/>
      <point x="132.9" y="-10.0"/>
    </contour>
    <contour>
      <point x="276.56666666666666" y="56.733333333333334" type="curve" smooth="yes"/>
      <point x="218.86666666666667" y="56.733333333333334"/>
      <point x="182.96666666666667" y="141.76666666666668"/>
      <point x="181.96666666666667" y="333.03333333333336" type="curve"/>
      <point x="197.86666666666667" y="352.3666666666667"/>
      <point x="235.6" y="375.1666666666667"/>
      <point x="269.40000000000003" y="375.1666666666667" type="curve" smooth="yes"/>
      <point x="318.3333333333333" y="375.1666666666667"/>
      <point x="349.6666666666667" y="328.6333333333333"/>
      <point x="349.6666666666667" y="221.0" type="curve" smooth="yes"/>
      <point x="349.6666666666667" y="106.73333333333333"/>
      <point x="321.33333333333337" y="56.733333333333334"/>
    </contour>
  </outline>
</glyph>
<glyph name="seven" format="2">
  <advance width="524.9"/>
  <unicode hex="0037"/>
  <outline>
    <contour>
      <point x="147.76666666666668" y="0.0" type="line"/>
      <point x="235.7" y="0.0" type="line"/>
      <point x="492.6333333333333" y="663.1666666666666" type="line"/>
      <point x="492.6333333333333" y="714.0" type="line"/>
      <point x="45.33333333333333" y="714.0" type="line"/>
      <point x="40.33333333333333" y="501.06666666666666" type="line"/>
      <point x="100.7" y="501.06666666666666" type="line"/>
      <point x="107.06666666666668" y="550.7" type="line" smooth="yes"/>
      <point x="111.06666666666668" y="584.4333333333334"/>
      <point x="127.6" y="602.0666666666667"/>
      <point x="161.4" y="602.0666666666667" type="curve" smooth="yes"/>
      <point x="400.93333333333334" y="602.0666666666667" type="line"/>
    </contour>
  </outline>
</glyph>
<glyph name="eight" format="2">
  <advance width="524.9"/>
  <unicode hex="0038"/>
  <outline>
    <contour>
      <point x="256.5" y="-10.0" type="curve" smooth="yes"/>
      <point x="410.9" y="-10.0"/>
      <point x="500.40000000000003" y="65.2"/>
      <point x="500.40000000000003" y="187.53333333333333" type="curve" smooth="yes"/>
      <point x="500.40000000000003" y="275.1333333333333"/>
      <point x="458.43333333333334" y="331.2"/>
      <point x="347.23333333333335" y="388.1" type="curve"/>
      <point x="425.1" y="428.5333333333333"/>
      <point x="473.06666666666666" y="470.1"/>
      <point x="473.06666666666666" y="553.0333333333334" type="curve" smooth="yes"/>
      <point x="473.06666666666666" y="650.3666666666667"/>
      <point x="404.3666666666667" y="724.0"/>
      <point x="268.1333333333333" y="724.0" type="curve" smooth="yes"/>
      <point x="104.93333333333332" y="724.0"/>
      <point x="46.03333333333333" y="637.5666666666666"/>
      <point x="46.03333333333333" y="542.0" type="curve" smooth="yes"/>
      <point x="46.03333333333333" y="459.59999999999997"/>
      <point x="89.3" y="405.53333333333336"/>
      <point x="164.16666666666669" y="361.0" type="curve"/>
      <point x="82.03333333333333" y="321.7666666666667"/>
      <point x="24.500000000000004" y="271.6666666666667"/>
      <point x="24.500000000000004" y="179.0666666666667" type="curve" smooth="yes"/>
      <point x="24.500000000000004" y="75.63333333333333"/>
      <point x="95.36666666666667" y="-10.0"/>
    </contour>
    <contour>
      <point x="261.1333333333333" y="48.833333333333336" type="curve" smooth="yes"/>
      <point x="201.93333333333334" y="48.833333333333336"/>
      <point x="159.86666666666667" y="97.80000000000001"/>
      <point x="159.86666666666667" y="179.83333333333334" type="curve" smooth="yes"/>
      <point x="159.86666666666667" y="248.0"/>
      <point x="187.63333333333333" y="292.3666666666667"/>
      <point x="226.39999999999998" y="322.09999999999997" type="curve"/>
      <point x="315.1" y="276.20000000000005"/>
      <point x="356.6333333333333" y="234.8"/>
      <point x="356.6333333333333" y="169.8" type="curve" smooth="yes"/>
      <point x="356.6333333333333" y="96.8"/>
      <point x="318.8666666666667" y="48.833333333333336"/>
    </contour>
    <contour>
      <point x="285.8666666666667" y="421.73333333333335" type="curve"/>
      <point x="224.66666666666666" y="452.6333333333333"/>
      <point x="189.23333333333332" y="487.20000000000005"/>
      <point x="189.23333333333332" y="556.5666666666667" type="curve" smooth="yes"/>
      <point x="189.23333333333332" y="620.2"/>
      <point x="215.2" y="664.5333333333333"/>
      <point x="263.23333333333335" y="664.5333333333333" type="curve" smooth="yes"/>
      <point x="315.8" y="664.5333333333333"/>
      <point x="344.5" y="610.9333333333334"/>
      <point x="344.5" y="552.8333333333334" type="curve" smooth="yes"/>
      <point x="344.5" y="485.3666666666667"/>
      <point x="324.6" y="448.2666666666667"/>
    </contour>
  </outline>
</glyph>
<glyph name="nine" format="2">
  <advance width="524.9"/>
  <unicode hex="0039"/>
  <outline>
    <contour>
      <point x="213.0666666666667" y="-10.0" type="curve"/>
      <point x="408.1666666666667" y="-10.0"/>
      <point x="486.5" y="164.70000000000002"/>
      <point x="486.5" y="388.0" type="curve" smooth="yes"/>
      <point x="486.5" y="626.6666666666667"/>
      <point x="385.9" y="724.0"/>
      <point x="247.50000000000003" y="724.0" type="curve" smooth="yes"/>
      <point x="111.10000000000001" y="724.0"/>
      <point x="29.133333333333333" y="626.7333333333333"/>
      <point x="29.133333333333333" y="483.09999999999997" type="curve" smooth="yes"/>
      <point x="29.133333333333333" y="348.4666666666667"/>
      <point x="105.36666666666666" y="275.73333333333335"/>
      <point x="212.66666666666669" y="275.73333333333335" type="curve" smooth="yes"/>
      <point x="275.6333333333333" y="275.73333333333335"/>
      <point x="314.76666666666665" y="302.1666666666667"/>
      <point x="343.66666666666663" y="340.06666666666666" type="curve"/>
      <point x="337.0333333333333" y="151.73333333333332"/>
      <point x="296.1666666666667" y="54.1"/>
      <point x="218.8" y="54.1" type="curve" smooth="yes"/>
      <point x="154.73333333333332" y="54.1"/>
      <point x="125.86666666666666" y="103.66666666666667"/>
      <point x="107.6" y="165.5" type="curve"/>
      <point x="69.93333333333334" y="158.13333333333333"/>
      <point x="54.93333333333333" y="132.73333333333332"/>
      <point x="54.93333333333333" y="103.36666666666667" type="curve" smooth="yes"/>
      <point x="54.93333333333333" y="44.9"/>
      <point x="97.56666666666666" y="-10.0"/>
    </contour>
    <contour>
      <point x="256.76666666666665" y="348.1" type="curve" smooth="yes"/>
      <point x="202.83333333333334" y="348.46666666666664"/>
      <point x="174.86666666666667" y="398.56666666666666"/>
      <point x="174.86666666666667" y="488.0" type="curve" smooth="yes"/>
      <point x="174.86666666666667" y="599.6333333333333"/>
      <point x="204.2" y="656.2666666666667"/>
      <point x="254.6" y="656.2666666666667" type="curve" smooth="yes"/>
      <point x="308.26666666666665" y="656.2666666666667"/>
      <point x="342.0333333333333" y="586.2"/>
      <point x="343.66666666666663" y="408.8666666666667" type="curve"/>
      <point x="324.6666666666667" y="372.1666666666667"/>
      <point x="295.43333333333334" y="348.46666666666664"/>
    </contour>
  </outline>
</glyph>
<glyph name="colon" format="2">
  <advance width="325.2"/>
  <unicode hex="003A"/>
  <outline>
    <contour>
      <point x="182.23333333333335" y="382.53333333333336" type="curve" smooth="yes"/>
      <point x="226.13333333333333" y="382.53333333333336"/>
      <point x="264.1333333333333" y="402.5333333333333"/>
      <point x="264.1333333333333" y="463.9" type="curve" smooth="yes"/>
      <point x="264.1333333333333" y="525.2666666666667"/>
      <point x="226.13333333333333" y="544.6333333333333"/>
      <point x="182.23333333333335" y="544.6333333333333" type="curve" smooth="yes"/>
      <point x="136.60000000000002" y="544.6333333333333"/>
      <point x="100.96666666666667" y="525.2666666666667"/>
      <point x="100.96666666666667" y="463.9" type="curve" smooth="yes"/>
      <point x="100.96666666666667" y="402.5333333333333"/>
      <point x="136.60000000000002" y="382.53333333333336"/>
    </contour>
    <contour>
      <point x="182.23333333333335" y="-8.0" type="curve" smooth="yes"/>
      <point x="226.13333333333333" y="-8.0"/>
      <point x="264.1333333333333" y="12.0"/>
      <point x="264.1333333333333" y="72.73333333333333" type="curve" smooth="yes"/>
      <point x="264.1333333333333" y="134.73333333333335"/>
      <point x="226.13333333333333" y="154.1"/>
      <point x="182.23333333333335" y="154.1" type="curve" smooth="yes"/>
      <point x="136.60000000000002" y="154.1"/>
      <point x="100.96666666666667" y="134.73333333333335"/>
      <point x="100.96666666666667" y="72.73333333333333" type="curve" smooth="yes"/>
      <point x="100.96666666666667" y="12.0"/>
      <point x="136.60000000000002" y="-8.0"/>
    </contour>
  </outline>
</glyph>
<glyph name="semicolon" format="2">
  <advance width="323.5333333333333"/>
  <unicode hex="003B"/>
  <outline>
    <contour>
      <point x="85.0" y="-154.0" type="line"/>
      <point x="209.86666666666665" y="-119.36666666666667"/>
      <point x="257.3" y="-43.73333333333333"/>
      <point x="257.3" y="40.53333333333333" type="curve" smooth="yes"/>
      <point x="257.3" y="110.63333333333333"/>
      <point x="227.23333333333332" y="154.1"/>
      <point x="171.23333333333332" y="154.1" type="curve" smooth="yes"/>
      <point x="131.70000000000002" y="154.1"/>
      <point x="97.8" y="129.73333333333332"/>
      <point x="97.8" y="84.10000000000001" type="curve" smooth="yes"/>
      <point x="97.8" y="2.6333333333333333"/>
      <point x="166.4" y="12.9"/>
      <point x="166.4" y="-24.366666666666667" type="curve"/>
      <point x="166.4" y="-62.36666666666667"/>
      <point x="138.23333333333335" y="-80.63333333333334"/>
      <point x="85.0" y="-101.26666666666667" type="curve"/>
    </contour>
    <contour>
      <point x="178.5" y="382.53333333333336" type="curve" smooth="yes"/>
      <point x="222.13333333333333" y="382.53333333333336"/>
      <point x="260.40000000000003" y="402.5333333333333"/>
      <point x="260.40000000000003" y="463.9" type="curve" smooth="yes"/>
      <point x="260.40000000000003" y="525.2666666666667"/>
      <point x="222.13333333333333" y="544.6333333333333"/>
      <point x="178.5" y="544.6333333333333" type="curve" smooth="yes"/>
      <point x="132.23333333333335" y="544.6333333333333"/>
      <point x="96.60000000000001" y="525.2666666666667"/>
      <point x="96.60000000000001" y="463.9" type="curve" smooth="yes"/>
      <point x="96.60000000000001" y="402.5333333333333"/>
      <point x="132.23333333333335" y="382.53333333333336"/>
    </contour>
  </outline>
</glyph>
<glyph name="equal" format="2">
  <advance width="509.8666666666667"/>
  <unicode hex="003D"/>
  <outline>
    <contour>
      <point x="51.26666666666667" y="414.9666666666667" type="line"/>
      <point x="459.23333333333335" y="414.9666666666667" type="line"/>
      <point x="459.23333333333335" y="486.06666666666666" type="line"/>
      <point x="51.26666666666667" y="486.06666666666666" type="line"/>
    </contour>
    <contour>
      <point x="51.26666666666667" y="227.93333333333334" type="line"/>
      <point x="459.23333333333335" y="227.93333333333334" type="line"/>
      <point x="459.23333333333335" y="299.0333333333333" type="line"/>
      <point x="51.26666666666667" y="299.0333333333333" type="line"/>
    </contour>
  </outline>
</glyph>
<glyph name="greater" format="2">
  <advance width="509.8666666666667"/>
  <unicode hex="003E"/>
  <outline>
    <contour>
      <point x="53.63333333333334" y="103.63333333333334" type="line"/>
      <point x="456.23333333333335" y="336.6333333333333" type="line"/>
      <point x="456.23333333333335" y="378.3666666666667" type="line"/>
      <point x="53.63333333333334" y="612.3666666666667" type="line"/>
      <point x="53.63333333333334" y="531.9" type="line"/>
      <point x="352.53333333333336" y="357.0" type="line"/>
      <point x="53.63333333333334" y="184.1" type="line"/>
    </contour>
  </outline>
</glyph>
<glyph name="question" format="2">
  <advance width="528.7666666666667"/>
  <unicode hex="003F"/>
  <outline>
    <contour>
      <point x="204.73333333333332" y="235.43333333333334" type="line"/>
      <point x="281.6666666666667" y="235.43333333333334" type="line"/>
      <point x="304.6666666666667" y="323.0" type="line"/>
      <point x="435.23333333333335" y="380.26666666666665"/>
      <point x="492.6666666666667" y="433.3666666666667"/>
      <point x="492.6666666666667" y="538.7333333333333" type="curve" smooth="yes"/>
      <point x="492.6666666666667" y="655.3666666666667"/>
      <point x="397.16666666666663" y="724.0"/>
      <point x="246.33333333333334" y="724.0" type="curve" smooth="yes"/>
      <point x="95.86666666666667" y="724.0"/>
      <point x="28.633333333333333" y="659.5666666666666"/>
      <point x="28.633333333333333" y="594.7666666666667" type="curve" smooth="yes"/>
      <point x="28.633333333333333" y="530.9666666666667"/>
      <point x="83.7" y="512.9666666666667"/>
      <point x="184.1" y="512.9666666666667" type="curve"/>
      <point x="184.1" y="612.0"/>
      <point x="206.63333333333333" y="657.8333333333334"/>
      <point x="247.33333333333334" y="657.8333333333334" type="curve" smooth="yes"/>
      <point x="284.40000000000003" y="657.8333333333334"/>
      <point x="306.56666666666666" y="617.5333333333334"/>
      <point x="306.56666666666666" y="552.6333333333333" type="curve" smooth="yes"/>
      <point x="306.56666666666666" y="469.1"/>
      <point x="286.5" y="400.7"/>
      <point x="181.73333333333335" y="349.6333333333333" type="curve"/>
    </contour>
    <contour>
      <point x="240.70000000000002" y="-8.633333333333333" type="curve" smooth="yes"/>
      <point x="288.1333333333333" y="-8.633333333333333"/>
      <point x="329.56666666666666" y="13.266666666666667"/>
      <point x="329.56666666666666" y="79.7" type="curve" smooth="yes"/>
      <point x="329.56666666666666" y="146.76666666666668"/>
      <point x="288.1333333333333" y="168.03333333333333"/>
      <point x="240.70000000000002" y="168.03333333333333" type="curve" smooth="yes"/>
      <point x="191.26666666666668" y="168.03333333333333"/>
      <point x="152.46666666666667" y="146.76666666666668"/>
      <point x="152.46666666666667" y="79.7" type="curve" smooth="yes"/>
      <point x="152.46666666666667" y="13.266666666666667"/>
      <point x="191.26666666666668" y="-8.633333333333333"/>
    </contour>
  </outline>
</glyph>
<glyph name="bracketleft" format="2">
  <advance width="411.93333333333334"/>
  <unicode hex="005B"/>
  <outline>
    <contour>
      <point x="76.66666666666666" y="-128.0" type="line"/>
      <point x="351.1666666666667" y="-128.0" type="line"/>
      <point x="351.1666666666667" y="-73.9" type="line"/>
      <point x="311.1" y="-73.9" type="line" smooth="yes"/>
      <point x="268.6666666666667" y="-73.9"/>
      <point x="233.86666666666667" y="-64.9"/>
      <point x="233.86666666666667" y="-1.9000000000000001" type="curve" smooth="yes"/>
      <point x="233.86666666666667" y="633.9" type="line" smooth="yes"/>
      <point x="233.86666666666667" y="696.9"/>
      <point x="268.6666666666667" y="705.9"/>
      <point x="311.1" y="705.9" type="curve" smooth="yes"/>
      <point x="351.1666666666667" y="705.9" type="line"/>
      <point x="351.1666666666667" y="760.0" type="line"/>
      <point x="76.66666666666666" y="760.0" type="line"/>
    </contour>
  </outline>
</glyph>
<glyph name="backslash" format="2">
  <advance width="270.4"/>
  <unicode hex="005C"/>
  <outline>
    <contour>
      <point x="199.23333333333332" y="-121.0" type="line"/>
      <point x="270.4" y="-121.0" type="line"/>
      <point x="70.53333333333333" y="760.0" type="line"/>
      <point x="0.0" y="760.0" type="line"/>
    </contour>
  </outline>
</glyph>
<glyph name="bracketright" format="2">
  <advance width="442.33333333333337"/>
  <unicode hex="005D"/>
  <outline>
    <contour>
      <point x="91.80000000000001" y="-128.0" type="line"/>
      <point x="365.6666666666667" y="-128.0" type="line"/>
      <point x="365.6666666666667" y="760.0" type="line"/>
      <point x="91.80000000000001" y="760.0" type="line"/>
      <point x="91.80000000000001" y="705.9" type="line"/>
      <point x="132.23333333333335" y="705.9" type="line" smooth="yes"/>
      <point x="174.66666666666666" y="705.9"/>
      <point x="209.1" y="696.9"/>
      <point x="209.1" y="633.9" type="curve" smooth="yes"/>
      <point x="209.1" y="-1.9000000000000001" type="line" smooth="yes"/>
      <point x="209.1" y="-64.9"/>
      <point x="174.66666666666666" y="-73.9"/>
      <point x="132.23333333333335" y="-73.9" type="curve" smooth="yes"/>
      <point x="91.80000000000001" y="-73.9" type="line"/>
    </contour>
  </outline>
</glyph>
<glyph name="asciicircum" format="2">
  <advance width="509.5"/>
  <unicode hex="005E"/>
  <outline>
    <contour>
      <point x="34.0" y="261.6333333333333" type="line"/>
      <point x="110.06666666666666" y="261.6333333333333" type="line"/>
      <point x="253.43333333333334" y="602.5333333333333" type="line"/>
      <point x="398.43333333333334" y="261.6333333333333" type="line"/>
      <point x="474.23333333333335" y="261.6333333333333" type="line"/>
      <point x="275.06666666666666" y="714.0" type="line"/>
      <point x="232.79999999999998" y="714.0" type="line"/>
    </contour>
  </outline>
</glyph>
<glyph name="braceleft" format="2">
  <advance width="465.29999999999995"/>
  <unicode hex="007B"/>
  <outline>
    <contour>
      <point x="301.8333333333333" y="-124.63333333333334" type="curve" smooth="yes"/>
      <point x="398.83333333333337" y="-124.63333333333334" type="line"/>
      <point x="398.83333333333337" y="-69.9" type="line"/>
      <point x="359.56666666666666" y="-69.9" type="line" smooth="yes"/>
      <point x="307.2333333333333" y="-69.9"/>
      <point x="295.79999999999995" y="-35.9"/>
      <point x="295.79999999999995" y="26.366666666666667" type="curve" smooth="yes"/>
      <point x="295.79999999999995" y="197.36666666666667" type="line" smooth="yes"/>
      <point x="295.79999999999995" y="257.0"/>
      <point x="264.3666666666667" y="295.26666666666665"/>
      <point x="193.13333333333333" y="315.0" type="curve"/>
      <point x="193.13333333333333" y="323.73333333333335" type="line"/>
      <point x="266.09999999999997" y="342.09999999999997"/>
      <point x="295.79999999999995" y="380.3666666666667"/>
      <point x="295.79999999999995" y="440.0" type="curve" smooth="yes"/>
      <point x="295.79999999999995" y="610.0" type="line" smooth="yes"/>
      <point x="295.79999999999995" y="672.2666666666667"/>
      <point x="307.2333333333333" y="706.2666666666667"/>
      <point x="359.56666666666666" y="706.2666666666667" type="curve" smooth="yes"/>
      <point x="398.83333333333337" y="706.2666666666667" type="line"/>
      <point x="398.83333333333337" y="760.0" type="line"/>
      <point x="301.8333333333333" y="760.0" type="line" smooth="yes"/>
      <point x="191.76666666666668" y="760.0"/>
      <point x="134.60000000000002" y="707.0"/>
      <point x="134.60000000000002" y="613.6333333333333" type="curve" smooth="yes"/>
      <point x="134.60000000000002" y="442.0" type="line" smooth="yes"/>
      <point x="134.60000000000002" y="367.73333333333335"/>
      <point x="86.9" y="352.1"/>
      <point x="25.933333333333334" y="350.1" type="curve"/>
      <point x="25.933333333333334" y="287.26666666666665" type="line"/>
      <point x="86.9" y="284.26666666666665"/>
      <point x="134.60000000000002" y="270.0"/>
      <point x="134.60000000000002" y="194.36666666666667" type="curve" smooth="yes"/>
      <point x="134.60000000000002" y="23.733333333333334" type="line" smooth="yes"/>
      <point x="134.60000000000002" y="-67.63333333333333"/>
      <point x="191.76666666666668" y="-124.63333333333334"/>
    </contour>
  </outline>
</glyph>
<glyph name="bar" format="2">
  <advance width="524.9"/>
  <unicode hex="007C"/>
  <outline>
    <contour>
      <point x="226.86666666666667" y="-240.0" type="line"/>
      <point x="297.4" y="-240.0" type="line"/>
      <point x="297.4" y="760.0" type="line"/>
      <point x="226.86666666666667" y="760.0" type="line"/>
    </contour>
  </outline>
</glyph>
<glyph name="braceright" format="2">
  <advance width="483.6666666666667"/>
  <unicode hex="007D"/>
  <outline>
    <contour>
      <point x="84.83333333333333" y="-124.63333333333334" type="line"/>
      <point x="181.20000000000002" y="-124.63333333333334" type="line" smooth="yes"/>
      <point x="291.6333333333333" y="-124.63333333333334"/>
      <point x="348.43333333333334" y="-67.63333333333333"/>
      <point x="348.43333333333334" y="23.733333333333334" type="curve" smooth="yes"/>
      <point x="348.43333333333334" y="194.36666666666667" type="line" smooth="yes"/>
      <point x="348.43333333333334" y="270.0"/>
      <point x="397.1333333333333" y="284.26666666666665"/>
      <point x="457.73333333333335" y="287.26666666666665" type="curve"/>
      <point x="457.73333333333335" y="350.1" type="line"/>
      <point x="397.1333333333333" y="352.1"/>
      <point x="348.43333333333334" y="367.73333333333335"/>
      <point x="348.43333333333334" y="442.0" type="curve" smooth="yes"/>
      <point x="348.43333333333334" y="613.6333333333333" type="line" smooth="yes"/>
      <point x="348.43333333333334" y="707.0"/>
      <point x="291.6333333333333" y="760.0"/>
      <point x="181.20000000000002" y="760.0" type="curve" smooth="yes"/>
      <point x="84.83333333333333" y="760.0" type="line"/>
      <point x="84.83333333333333" y="706.2666666666667" type="line"/>
      <point x="124.46666666666668" y="706.2666666666667" type="line" smooth="yes"/>
      <point x="177.06666666666666" y="706.2666666666667"/>
      <point x="187.86666666666667" y="672.2666666666667"/>
      <point x="187.86666666666667" y="610.0" type="curve" smooth="yes"/>
      <point x="187.86666666666667" y="440.0" type="line" smooth="yes"/>
      <point x="187.86666666666667" y="380.3666666666667"/>
      <point x="217.93333333333337" y="342.09999999999997"/>
      <point x="290.9" y="323.73333333333335" type="curve"/>
      <point x="290.9" y="315.0" type="line"/>
      <point x="219.3" y="295.26666666666665"/>
      <point x="187.86666666666667" y="257.0"/>
      <point x="187.86666666666667" y="197.36666666666667" type="curve" smooth="yes"/>
      <point x="187.86666666666667" y="26.366666666666667" type="line" smooth="yes"/>
      <point x="187.86666666666667" y="-35.9"/>
      <point x="177.06666666666666" y="-69.9"/>
      <point x="124.46666666666667" y="-69.9" type="curve" smooth="yes"/>
      <point x="84.83333333333333" y="-69.9" type="line"/>
    </contour>
  </outline>
</glyph>
<glyph name="asciitilde" format="2">
  <advance width="509.8666666666667"/>
  <unicode hex="007E"/>
  <outline>
    <contour>
      <point x="32.800000000000004" y="261.26666666666665" type="curve"/>
      <point x="105.8" y="261.26666666666665" type="line"/>
      <point x="107.7" y="344.6333333333333"/>
      <point x="125.60000000000001" y="377.2666666666667"/>
      <point x="158.76666666666668" y="377.2666666666667" type="curve" smooth="yes"/>
      <point x="183.1" y="377.2666666666667"/>
      <point x="197.26666666666668" y="361.2"/>
      <point x="232.26666666666665" y="326.2666666666667" type="curve" smooth="yes"/>
      <point x="280.6333333333333" y="278.23333333333335"/>
      <point x="309.1666666666667" y="261.26666666666665"/>
      <point x="352.8333333333333" y="261.26666666666665" type="curve" smooth="yes"/>
      <point x="448.53333333333336" y="261.26666666666665"/>
      <point x="473.6333333333333" y="345.1"/>
      <point x="476.8" y="451.73333333333335" type="curve"/>
      <point x="403.1666666666667" y="451.73333333333335" type="line"/>
      <point x="400.6333333333333" y="369.53333333333336"/>
      <point x="385.26666666666665" y="335.73333333333335"/>
      <point x="353.1" y="335.73333333333335" type="curve" smooth="yes"/>
      <point x="330.56666666666666" y="335.73333333333335"/>
      <point x="313.96666666666664" y="353.2666666666667"/>
      <point x="281.06666666666666" y="384.3666666666667" type="curve" smooth="yes"/>
      <point x="227.0" y="435.09999999999997"/>
      <point x="202.53333333333333" y="451.73333333333335"/>
      <point x="160.46666666666667" y="451.73333333333335" type="curve" smooth="yes"/>
      <point x="63.96666666666667" y="451.73333333333335"/>
      <point x="34.06666666666667" y="366.0"/>
    </contour>
  </outline>
</glyph>
<glyph name="multiply" format="2">
  <advance width="509.8666666666667"/>
  <unicode hex="00D7"/>
  <outline>
    <contour>
      <point x="117.6" y="161.1" type="line"/>
      <point x="254.06666666666666" y="306.53333333333336" type="line"/>
      <point x="390.43333333333334" y="162.2" type="line"/>
      <point x="441.90000000000003" y="211.1" type="line"/>
      <point x="302.96666666666664" y="358.73333333333335" type="line"/>
      <point x="441.90000000000003" y="505.3666666666667" type="line"/>
      <point x="389.43333333333334" y="555.1666666666666" type="line"/>
      <point x="254.06666666666666" y="411.8333333333333" type="line"/>
      <point x="117.96666666666667" y="555.6333333333333" type="line"/>
      <point x="64.86666666666667" y="506.4666666666667" type="line"/>
      <point x="204.53333333333333" y="359.3666666666667" type="line"/>
      <point x="64.86666666666667" y="210.63333333333333" type="line"/>
    </contour>
  </outline>
</glyph>
<glyph name="divide" format="2">
  <advance width="509.8666666666667"/>
  <unicode hex="00F7"/>
  <outline>
    <contour>
      <point x="53.63333333333334" y="321.6333333333333" type="line"/>
      <point x="456.23333333333335" y="321.6333333333333" type="line"/>
      <point x="456.23333333333335" y="393.3666666666667" type="line"/>
      <point x="53.63333333333334" y="393.3666666666667" type="line"/>
    </contour>
    <contour>
      <point x="255.43333333333334" y="106.63333333333333" type="curve" smooth="yes"/>
      <point x="285.33333333333337" y="106.63333333333333"/>
      <point x="309.6" y="122.63333333333333"/>
      <point x="309.6" y="168.0" type="curve" smooth="yes"/>
      <point x="309.6" y="214.36666666666667"/>
      <point x="285.33333333333337" y="229.36666666666667"/>
      <point x="255.43333333333334" y="229.36666666666667" type="curve" smooth="yes"/>
      <point x="223.8" y="229.36666666666667"/>
      <point x="200.9" y="214.36666666666667"/>
      <point x="200.9" y="168.0" type="curve" smooth="yes"/>
      <point x="200.9" y="122.63333333333333"/>
      <point x="223.8" y="106.63333333333333"/>
    </contour>
    <contour>
      <point x="255.43333333333334" y="485.6333333333333" type="curve" smooth="yes"/>
      <point x="285.33333333333337" y="485.6333333333333"/>
      <point x="309.6" y="501.6333333333333"/>
      <point x="309.6" y="547.0" type="curve" smooth="yes"/>
      <point x="309.6" y="593.3666666666667"/>
      <point x="285.33333333333337" y="608.3666666666667"/>
      <point x="255.43333333333334" y="608.3666666666667" type="curve" smooth="yes"/>
      <point x="223.8" y="608.3666666666667"/>
      <point x="200.9" y="593.3666666666667"/>
      <point x="200.9" y="547.0" type="curve" smooth="yes"/>
      <point x="200.9" y="501.6333333333333"/>
      <point x="223.8" y="485.6333333333333"/>
    </contour>
  </outline>
</glyph>
<glyph name="udatta-deva" format="2">
  <unicode hex="0951"/>
  <anchor x="-299.0" y="-280.0" name="_vedic"/>
  <outline>
    <contour>
      <point x="-355.26666666666665" y="706.0" type="line"/>
      <point x="-242.73333333333335" y="706.0" type="line"/>
      <point x="-242.73333333333335" y="922.6333333333333" type="line"/>
      <point x="-355.26666666666665" y="922.6333333333333" type="line"/>
    </contour>
  </outline>
</glyph>
<glyph name="anudatta-deva" format="2">
  <unicode hex="0952"/>
  <anchor x="-299.0" y="443.6666666666667" name="_vedic"/>
  <outline>
    <contour>
      <point x="-531.3" y="-165.0" type="line"/>
      <point x="-65.7" y="-165.0" type="line"/>
      <point x="-65.7" y="-79.0" type="line"/>
      <point x="-531.3" y="-79.0" type="line"/>
    </contour>
  </outline>
</glyph>
<glyph name="danda-deva" format="2">
  <advance width="439.16666666666663"/>
  <unicode hex="0964"/>
  <outline>
    <contour>
      <point x="369.16666666666663" y="-43.0" type="line"/>
      <point x="380.16666666666663" y="-40.0" type="line"/>
      <point x="380.16666666666663" y="591.0" type="line"/>
      <point x="268.16666666666663" y="628.0" type="line"/>
      <point x="265.16666666666663" y="628.0" type="line"/>
      <point x="265.16666666666663" y="-1.0" type="line"/>
    </contour>
  </outline>
</glyph>
<glyph name="dbldanda-deva" format="2">
  <advance width="629.7"/>
  <unicode hex="0965"/>
  <outline>
    <contour>
      <point x="559.7" y="-43.0" type="line"/>
      <point x="570.7" y="-40.0" type="line"/>
      <point x="570.7" y="591.0" type="line"/>
      <point x="458.7" y="628.0" type="line"/>
      <point x="455.7" y="628.0" type="line"/>
      <point x="455.7" y="-1.0" type="line"/>
    </contour>
    <contour>
      <point x="369.16666666666663" y="-43.0" type="line"/>
      <point x="380.16666666666663" y="-40.0" type="line"/>
      <point x="380.16666666666663" y="591.0" type="line"/>
      <point x="268.16666666666663" y="628.0" type="line"/>
      <point x="265.16666666666663" y="628.0" type="line"/>
      <point x="265.16666666666663" y="-1.0" type="line"/>
    </contour>
  </outline>
</glyph>
<glyph name="anji-beng" format="2">
  <advance width="602.5"/>
  <unicode hex="0980"/>
  <anchor x="318.6333333333333" y="592.0" name="top"/>
  <outline>
    <contour>
      <point x="501.0" y="-58.9" type="curve" smooth="yes"/>
      <point x="562.1666666666666" y="-58.9"/>
      <point x="596.5333333333333" y="-22.9"/>
      <point x="596.5333333333333" y="33.733333333333334" type="curve" smooth="yes"/>
      <point x="596.5333333333333" y="90.0"/>
      <point x="558.6333333333333" y="124.0"/>
      <point x="515.0" y="124.0" type="curve" smooth="yes"/>
      <point x="461.83333333333337" y="124.0"/>
      <point x="443.56666666666666" y="81.0"/>
      <point x="443.56666666666666" y="50.36666666666667" type="curve"/>
      <point x="494.20000000000005" y="41.733333333333334" type="line"/>
      <point x="494.20000000000005" y="461.3666666666667" type="line" smooth="yes"/>
      <point x="494.20000000000005" y="566.0"/>
      <point x="412.6666666666667" y="637.6333333333333"/>
      <point x="293.1666666666667" y="637.6333333333333" type="curve" smooth="yes"/>
      <point x="153.10000000000002" y="637.6333333333333"/>
      <point x="40.233333333333334" y="540.1"/>
      <point x="40.233333333333334" y="389.0333333333333" type="curve" smooth="yes"/>
      <point x="40.233333333333334" y="252.93333333333334"/>
      <point x="120.13333333333334" y="167.5"/>
      <point x="238.93333333333334" y="167.5" type="curve" smooth="yes"/>
      <point x="312.06666666666666" y="167.5"/>
      <point x="354.8666666666666" y="212.76666666666665"/>
      <point x="354.8666666666666" y="278.6666666666667" type="curve" smooth="yes"/>
      <point x="354.8666666666666" y="337.93333333333334"/>
      <point x="320.43333333333334" y="379.4666666666667"/>
      <point x="263.83333333333337" y="379.4666666666667" type="curve" smooth="yes"/>
      <point x="212.76666666666668" y="379.4666666666667"/>
      <point x="178.33333333333334" y="341.93333333333334"/>
      <point x="178.33333333333334" y="290.6666666666667" type="curve" smooth="yes"/>
      <point x="178.33333333333334" y="268.3"/>
      <point x="181.96666666666667" y="248.03333333333333"/>
      <point x="187.86666666666667" y="236.4" type="curve"/>
      <point x="242.29999999999998" y="262.0333333333333" type="line"/>
      <point x="229.03333333333333" y="259.0333333333333"/>
      <point x="214.76666666666665" y="258.0333333333333"/>
      <point x="202.5" y="258.0333333333333" type="curve" smooth="yes"/>
      <point x="169.26666666666668" y="258.0333333333333"/>
      <point x="147.93333333333334" y="286.66666666666663"/>
      <point x="147.93333333333334" y="347.56666666666666" type="curve" smooth="yes"/>
      <point x="147.93333333333334" y="452.46666666666664"/>
      <point x="258.23333333333335" y="521.3666666666667"/>
      <point x="329.6" y="521.3666666666667" type="curve" smooth="yes"/>
      <point x="368.3" y="521.3666666666667"/>
      <point x="380.66666666666663" y="502.73333333333335"/>
      <point x="380.66666666666663" y="461.9333333333333" type="curve" smooth="yes"/>
      <point x="380.66666666666663" y="85.26666666666667" type="line" smooth="yes"/>
      <point x="380.66666666666663" y="3.6333333333333333"/>
      <point x="423.3" y="-58.9"/>
    </contour>
  </outline>
</glyph>
<glyph name="anusvara-beng" format="2">
  <advance width="378.6666666666667"/>
  <unicode hex="0982"/>
  <anchor x="-240.29999999999998" y="0.0" name="vedic"/>
  <outline>
    <contour>
      <point x="185.76666666666665" y="313.3666666666667" type="curve" smooth="yes"/>
      <point x="274.0" y="313.3666666666667"/>
      <point x="338.06666666666666" y="378.0"/>
      <point x="338.06666666666666" y="470.0" type="curve" smooth="yes"/>
      <point x="338.06666666666666" y="554.0"/>
      <point x="281.79999999999995" y="621.0"/>
      <point x="194.93333333333334" y="621.0" type="curve" smooth="yes"/>
      <point x="106.96666666666667" y="621.0"/>
      <point x="43.166666666666664" y="554.6333333333333"/>
      <point x="43.166666666666664" y="464.6333333333333" type="curve" smooth="yes"/>
      <point x="43.166666666666664" y="383.6333333333333"/>
      <point x="97.9" y="313.3666666666667"/>
    </contour>
    <contour>
      <point x="158.03333333333333" y="402.0" type="curve" smooth="yes"/>
      <point x="142.6" y="402.0"/>
      <point x="131.06666666666666" y="411.0"/>
      <point x="131.06666666666666" y="432.53333333333336" type="curve" smooth="yes"/>
      <point x="131.06666666666666" y="474.0"/>
      <point x="190.6" y="533.0"/>
      <point x="225.20000000000002" y="533.0" type="curve" smooth="yes"/>
      <point x="243.63333333333333" y="533.0"/>
      <point x="252.16666666666666" y="523.0"/>
      <point x="252.16666666666666" y="507.0" type="curve" smooth="yes"/>
      <point x="252.16666666666666" y="467.3666666666667"/>
      <point x="196.36666666666667" y="402.0"/>
    </contour>
    <contour>
      <point x="311.59999999999997" y="-88.0" type="curve"/>
      <point x="373.6" y="-67.0" type="line"/>
      <point x="304.1666666666667" y="96.0"/>
      <point x="215.93333333333334" y="226.0"/>
      <point x="114.06666666666666" y="285.0" type="curve"/>
      <point x="42.53333333333333" y="142.0" type="line"/>
      <point x="138.03333333333333" y="102.0"/>
      <point x="205.9" y="67.0"/>
    </contour>
  </outline>
</glyph>
<glyph name="visarga-beng" format="2">
  <advance width="397.7"/>
  <unicode hex="0983"/>
  <anchor x="-240.29999999999998" y="0.0" name="vedic"/>
  <outline>
    <contour>
      <point x="193.36666666666667" y="311.46666666666664" type="curve" smooth="yes"/>
      <point x="286.6666666666667" y="311.46666666666664"/>
      <point x="354.5333333333333" y="376.73333333333335"/>
      <point x="354.5333333333333" y="470.0" type="curve" smooth="yes"/>
      <point x="354.5333333333333" y="555.2666666666667"/>
      <point x="295.09999999999997" y="622.9"/>
      <point x="203.16666666666669" y="622.9" type="curve" smooth="yes"/>
      <point x="110.76666666666667" y="622.9"/>
      <point x="43.166666666666664" y="555.9"/>
      <point x="43.166666666666664" y="464.6333333333333" type="curve" smooth="yes"/>
      <point x="43.166666666666664" y="382.3666666666666"/>
      <point x="101.06666666666666" y="311.46666666666664"/>
    </contour>
    <contour>
      <point x="166.89999999999998" y="399.46666666666664" type="curve" smooth="yes"/>
      <point x="150.83333333333331" y="399.46666666666664"/>
      <point x="138.66666666666669" y="408.46666666666664"/>
      <point x="138.66666666666669" y="430.0" type="curve" smooth="yes"/>
      <point x="138.66666666666669" y="472.09999999999997"/>
      <point x="196.3" y="535.5333333333333"/>
      <point x="232.8" y="535.5333333333333" type="curve" smooth="yes"/>
      <point x="252.5" y="535.5333333333333"/>
      <point x="261.0333333333333" y="525.5333333333333"/>
      <point x="261.0333333333333" y="509.53333333333336" type="curve" smooth="yes"/>
      <point x="261.0333333333333" y="469.26666666666665"/>
      <point x="207.76666666666668" y="399.46666666666664"/>
    </contour>
    <contour>
      <point x="194.0" y="-39.8" type="curve" smooth="yes"/>
      <point x="285.40000000000003" y="-39.8"/>
      <point x="352.0" y="24.833333333333332"/>
      <point x="352.0" y="116.83333333333333" type="curve" smooth="yes"/>
      <point x="352.0" y="200.83333333333331"/>
      <point x="293.8333333333333" y="267.8333333333333"/>
      <point x="203.16666666666669" y="267.8333333333333" type="curve" smooth="yes"/>
      <point x="112.03333333333333" y="267.8333333333333"/>
      <point x="45.699999999999996" y="201.46666666666667"/>
      <point x="45.699999999999996" y="111.46666666666667" type="curve" smooth="yes"/>
      <point x="45.699999999999996" y="30.46666666666667"/>
      <point x="102.33333333333333" y="-39.8"/>
    </contour>
    <contour>
      <point x="167.53333333333333" y="46.93333333333333" type="curve" smooth="yes"/>
      <point x="151.46666666666667" y="46.93333333333333"/>
      <point x="139.3" y="55.93333333333333"/>
      <point x="139.3" y="77.46666666666667" type="curve" smooth="yes"/>
      <point x="139.3" y="118.93333333333334"/>
      <point x="196.3" y="181.73333333333332"/>
      <point x="232.16666666666669" y="181.73333333333332" type="curve" smooth="yes"/>
      <point x="251.23333333333335" y="181.73333333333332"/>
      <point x="260.4" y="171.73333333333332"/>
      <point x="260.4" y="155.73333333333332" type="curve" smooth="yes"/>
      <point x="260.4" y="116.1"/>
      <point x="207.76666666666668" y="46.93333333333333"/>
    </contour>
  </outline>
</glyph>
<glyph name="a-beng" format="2">
  <advance width="808.8"/>
  <unicode hex="0985"/>
  <anchor x="742.3666666666667" y="0.0" name="bottom"/>
  <anchor x="742.7333333333333" y="100.0" name="bottom.rakaar"/>
  <anchor x="742.3666666666667" y="11.0" name="bottom.rvocalic"/>
  <anchor x="723.1" y="20.0" name="bottom.virama"/>
  <anchor x="742.3666666666667" y="536.0" name="top"/>
  <anchor x="742.3666666666667" y="536.0" name="topright"/>
  <anchor x="403.9" y="0.0" name="vedic"/>
  <outline>
    <contour>
      <point x="730.2666666666668" y="-32.0" type="line"/>
      <point x="741.2666666666668" y="-29.0" type="line"/>
      <point x="741.2666666666668" y="536.0" type="line"/>
      <point x="846.3333333333334" y="536.0" type="line"/>
      <point x="799.0666666666666" y="622.0" type="line"/>
      <point x="-37.53333333333333" y="622.0" type="line"/>
      <point x="8.733333333333333" y="536.0" type="line"/>
      <point x="627.7333333333333" y="536.0" type="line"/>
      <point x="627.7333333333333" y="90.26666666666667" type="line"/>
      <point x="647.4666666666667" y="101.03333333333333" type="line"/>
      <point x="614.6999999999999" y="173.33333333333334"/>
      <point x="575.9" y="214.79999999999998"/>
      <point x="542.8666666666667" y="237.83333333333334" type="curve"/>
      <point x="504.3" y="140.16666666666669" type="line"/>
      <point x="562.4666666666667" y="111.53333333333333"/>
      <point x="608.6666666666666" y="72.16666666666667"/>
      <point x="648.3" y="13.266666666666667" type="curve"/>
    </contour>
    <contour>
      <point x="360.76666666666665" y="14.933333333333334" type="curve" smooth="yes"/>
      <point x="464.1666666666667" y="14.933333333333334"/>
      <point x="575.3333333333334" y="80.0"/>
      <point x="575.3333333333334" y="258.0" type="curve" smooth="yes"/>
      <point x="575.3333333333334" y="391.0"/>
      <point x="495.0" y="493.0"/>
      <point x="344.8666666666667" y="493.0" type="curve" smooth="yes"/>
      <point x="250.16666666666666" y="493.0"/>
      <point x="196.73333333333332" y="438.0"/>
      <point x="196.73333333333332" y="360.0" type="curve" smooth="yes"/>
      <point x="196.73333333333332" y="292.0"/>
      <point x="243.26666666666668" y="237.0"/>
      <point x="319.06666666666666" y="237.0" type="curve" smooth="yes"/>
      <point x="391.5" y="237.0"/>
      <point x="429.40000000000003" y="287.0"/>
      <point x="429.40000000000003" y="354.0" type="curve" smooth="yes"/>
      <point x="429.40000000000003" y="451.6333333333333"/>
      <point x="355.23333333333335" y="521.0"/>
      <point x="310.0666666666667" y="553.0" type="curve"/>
      <point x="112.16666666666666" y="552.0" type="line"/>
      <point x="274.6" y="521.0"/>
      <point x="334.5" y="434.0"/>
      <point x="345.5" y="344.0" type="curve"/>
      <point x="355.4" y="351.0"/>
      <point x="379.4" y="364.0"/>
      <point x="405.0333333333333" y="364.0" type="curve" smooth="yes"/>
      <point x="448.73333333333335" y="364.0"/>
      <point x="493.43333333333334" y="340.0"/>
      <point x="493.4333333333333" y="278.0" type="curve" smooth="yes"/>
      <point x="493.43333333333334" y="205.0"/>
      <point x="432.0" y="175.26666666666668"/>
      <point x="354.8666666666667" y="175.26666666666668" type="curve" smooth="yes"/>
      <point x="238.93333333333334" y="175.26666666666668"/>
      <point x="140.96666666666667" y="244.0"/>
      <point x="72.36666666666666" y="470.0" type="curve"/>
      <point x="7.266666666666666" y="455.0" type="line"/>
      <point x="75.43333333333334" y="163.0"/>
      <point x="179.73333333333335" y="14.933333333333334"/>
    </contour>
  </outline>
</glyph>
<glyph name="aa-beng" format="2">
  <advance width="1063.0666666666666"/>
  <unicode hex="0986"/>
  <anchor x="740.9" y="0.0" name="bottom"/>
  <anchor x="740.5333333333333" y="100.0" name="bottom.rakaar"/>
  <anchor x="740.5333333333333" y="11.0" name="bottom.rvocalic"/>
  <anchor x="721.2666666666667" y="20.0" name="bottom.virama"/>
  <anchor x="996.6333333333333" y="536.0" name="top"/>
  <anchor x="996.6333333333333" y="523.0" name="topright"/>
  <anchor x="531.0333333333334" y="0.0" name="vedic"/>
  <outline>
    <contour>
      <point x="730.2666666666668" y="-32.0" type="line"/>
      <point x="741.2666666666668" y="-29.0" type="line"/>
      <point x="741.2666666666668" y="536.0" type="line"/>
      <point x="810.2333333333333" y="536.0" type="line"/>
      <point x="763.6" y="622.0" type="line"/>
      <point x="-37.53333333333333" y="622.0" type="line"/>
      <point x="8.733333333333333" y="536.0" type="line"/>
      <point x="627.7333333333333" y="536.0" type="line"/>
      <point x="627.7333333333333" y="90.26666666666667" type="line"/>
      <point x="647.4666666666667" y="101.03333333333333" type="line"/>
      <point x="614.6999999999999" y="173.33333333333334"/>
      <point x="575.9" y="214.79999999999998"/>
      <point x="542.8666666666667" y="237.83333333333334" type="curve"/>
      <point x="504.3" y="140.16666666666669" type="line"/>
      <point x="562.4666666666667" y="111.53333333333333"/>
      <point x="608.6666666666666" y="72.16666666666667"/>
      <point x="648.3" y="13.266666666666667" type="curve"/>
    </contour>
    <contour>
      <point x="360.76666666666665" y="14.933333333333334" type="curve" smooth="yes"/>
      <point x="464.1666666666667" y="14.933333333333334"/>
      <point x="575.3333333333334" y="80.0"/>
      <point x="575.3333333333334" y="258.0" type="curve" smooth="yes"/>
      <point x="575.3333333333334" y="391.0"/>
      <point x="495.0" y="493.0"/>
      <point x="344.8666666666667" y="493.0" type="curve" smooth="yes"/>
      <point x="250.16666666666666" y="493.0"/>
      <point x="196.73333333333332" y="438.0"/>
      <point x="196.73333333333332" y="360.0" type="curve" smooth="yes"/>
      <point x="196.73333333333332" y="292.0"/>
      <point x="243.26666666666668" y="237.0"/>
      <point x="319.06666666666666" y="237.0" type="curve" smooth="yes"/>
      <point x="391.5" y="237.0"/>
      <point x="429.40000000000003" y="287.0"/>
      <point x="429.40000000000003" y="354.0" type="curve" smooth="yes"/>
      <point x="429.40000000000003" y="451.6333333333333"/>
      <point x="355.23333333333335" y="521.0"/>
      <point x="310.0666666666667" y="553.0" type="curve"/>
      <point x="112.16666666666666" y="552.0" type="line"/>
      <point x="274.6" y="521.0"/>
      <point x="334.5" y="434.0"/>
      <point x="345.5" y="344.0" type="curve"/>
      <point x="355.4" y="351.0"/>
      <point x="379.4" y="364.0"/>
      <point x="405.0333333333333" y="364.0" type="curve" smooth="yes"/>
      <point x="448.73333333333335" y="364.0"/>
      <point x="493.4333333333333" y="340.0"/>
      <point x="493.4333333333333" y="278.0" type="curve" smooth="yes"/>
      <point x="493.4333333333333" y="205.0"/>
      <point x="432.0" y="175.26666666666668"/>
      <point x="354.8666666666667" y="175.26666666666668" type="curve" smooth="yes"/>
      <point x="238.93333333333334" y="175.26666666666668"/>
      <point x="140.96666666666667" y="244.0"/>
      <point x="72.36666666666666" y="470.0" type="curve"/>
      <point x="7.266666666666666" y="455.0" type="line"/>
      <point x="75.43333333333334" y="163.0"/>
      <point x="179.73333333333335" y="14.933333333333334"/>
    </contour>
    <contour>
      <point x="984.5333333333334" y="-43.0" type="line"/>
      <point x="995.5333333333333" y="-40.0" type="line"/>
      <point x="995.5333333333333" y="536.0" type="line"/>
      <point x="1100.6" y="536.0" type="line"/>
      <point x="1053.3333333333335" y="622.0" type="line"/>
      <point x="983.1666666666667" y="622.0" type="line"/>
      <point x="973.1666666666667" y="686.0" type="line"/>
      <point x="892.4666666666667" y="724.0" type="line"/>
      <point x="883.4666666666667" y="720.0" type="line"/>
      <point x="883.4666666666667" y="626.4666666666667" type="line" smooth="yes"/>
      <point x="883.4666666666667" y="597.0333333333333"/>
      <point x="886.1999999999999" y="547.2666666666667"/>
      <point x="891.1" y="508.3333333333333" type="curve"/>
      <point x="902.2666666666667" y="510.6" type="line"/>
      <point x="885.3666666666667" y="587.8"/>
      <point x="864.6666666666666" y="622.0"/>
      <point x="808.7333333333333" y="622.0" type="curve" smooth="yes"/>
      <point x="750.5666666666667" y="622.0" type="line"/>
      <point x="798.2" y="536.0" type="line"/>
      <point x="830.4000000000001" y="536.0" type="line" smooth="yes"/>
      <point x="861.1333333333333" y="536.0"/>
      <point x="876.3666666666667" y="500.3666666666667"/>
      <point x="882.0" y="462.1666666666667" type="curve"/>
      <point x="882.0" y="-1.0" type="line"/>
    </contour>
  </outline>
</glyph>
<glyph name="i-beng" format="2">
  <advance width="512.7"/>
  <unicode hex="0987"/>
  <anchor x="330.0" y="25.0" name="bottom"/>
  <anchor x="463.0" y="-100.0" name="bottom.rakaar"/>
  <anchor x="423.0" y="18.0" name="bottom.rvocalic"/>
  <anchor x="323.0" y="30.0" name="bottom.virama"/>
  <anchor x="367.0" y="605.0" name="top"/>
  <anchor x="315.0" y="604.0" name="topright"/>
  <anchor x="256.1666666666667" y="0.0" name="vedic"/>
  <outline>
    <contour>
      <point x="399.1" y="588.0" type="curve"/>
      <point x="468.5333333333333" y="588.0" type="line"/>
      <point x="464.43333333333334" y="743.6"/>
      <point x="403.6333333333333" y="828.0666666666666"/>
      <point x="301.3" y="828.0666666666666" type="curve" smooth="yes"/>
      <point x="241.7" y="828.0666666666666"/>
      <point x="204.43333333333334" y="818.3333333333333"/>
      <point x="148.36666666666667" y="818.3333333333333" type="curve" smooth="yes"/>
      <point x="75.03333333333333" y="818.3333333333333"/>
      <point x="50.3" y="844.8"/>
      <point x="50.3" y="896.2666666666667" type="curve" smooth="yes"/>
      <point x="50.3" y="908.9000000000001"/>
      <point x="51.3" y="924.5333333333333"/>
      <point x="53.3" y="937.2666666666667" type="curve"/>
      <point x="-3.2333333333333325" y="944.2666666666667" type="line"/>
      <point x="-9.233333333333334" y="918.2666666666667"/>
      <point x="-12.866666666666667" y="887.2666666666667"/>
      <point x="-12.866666666666667" y="853.5666666666666" type="curve" smooth="yes"/>
      <point x="-12.866666666666667" y="750.9333333333334"/>
      <point x="46.46666666666666" y="682.7333333333333"/>
      <point x="156.46666666666667" y="682.7333333333333" type="curve" smooth="yes"/>
      <point x="228.5" y="682.7333333333333"/>
      <point x="272.56666666666666" y="694.3666666666667"/>
      <point x="315.6333333333333" y="694.3666666666667" type="curve" smooth="yes"/>
      <point x="365.1666666666667" y="694.3666666666667"/>
      <point x="397.53333333333336" y="676.3666666666667"/>
    </contour>
    <component base="ha-beng"/>
  </outline>
</glyph>
<glyph name="ii-beng" format="2">
  <advance width="708.2333333333333"/>
  <unicode hex="0988"/>
  <anchor x="632.2666666666668" y="-30.0" name="bottom"/>
  <anchor x="636.2666666666668" y="30.0" name="bottom.rakaar"/>
  <anchor x="627.7333333333333" y="-57.0" name="bottom.rvocalic"/>
  <anchor x="622.0" y="-65.0" name="bottom.virama"/>
  <anchor x="442.43333333333334" y="605.0" name="top"/>
  <anchor x="393.0" y="604.0" name="topright"/>
  <anchor x="353.93333333333334" y="0.0" name="vedic"/>
  <outline>
    <contour>
      <point x="584.5666666666667" y="-111.06666666666666" type="curve"/>
      <point x="640.9333333333334" y="-88.7" type="line"/>
      <point x="619.1999999999999" y="-17.200000000000003"/>
      <point x="612.3" y="27.066666666666666"/>
      <point x="612.3" y="89.8" type="curve" smooth="yes"/>
      <point x="612.3" y="184.89999999999998"/>
      <point x="639.9333333333334" y="288.76666666666665"/>
      <point x="686.5333333333333" y="372.0" type="curve"/>
      <point x="546.0" y="486.0" type="line"/>
      <point x="463.93333333333334" y="432.3666666666667"/>
      <point x="407.83333333333337" y="351.0"/>
      <point x="365.66666666666663" y="274.0" type="curve"/>
      <point x="395.03333333333336" y="209.0" type="line"/>
      <point x="402.03333333333336" y="234.63333333333335"/>
      <point x="404.03333333333336" y="261.26666666666665"/>
      <point x="404.03333333333336" y="288.0" type="curve" smooth="yes"/>
      <point x="404.03333333333336" y="396.0"/>
      <point x="357.5" y="490.0"/>
      <point x="193.56666666666666" y="490.0" type="curve" smooth="yes"/>
      <point x="102.23333333333333" y="490.0"/>
      <point x="47.7" y="445.0"/>
      <point x="47.7" y="372.0" type="curve" smooth="yes"/>
      <point x="47.7" y="296.3666666666667"/>
      <point x="101.33333333333333" y="259.0"/>
      <point x="162.5" y="259.0" type="curve" smooth="yes"/>
      <point x="226.93333333333334" y="259.0"/>
      <point x="272.93333333333334" y="302.9"/>
      <point x="272.2" y="382.0" type="curve" smooth="yes"/>
      <point x="271.46666666666664" y="462.3666666666667"/>
      <point x="218.3" y="529.0"/>
      <point x="188.23333333333332" y="543.0" type="curve"/>
      <point x="24.333333333333332" y="543.0" type="line"/>
      <point x="75.1" y="529.0"/>
      <point x="139.29999999999998" y="501.6333333333333"/>
      <point x="188.66666666666666" y="455.0" type="curve"/>
      <point x="173.23333333333332" y="357.0" type="line"/>
      <point x="186.03333333333333" y="376.0"/>
      <point x="222.66666666666669" y="393.3333333333333"/>
      <point x="246.46666666666667" y="393.3333333333333" type="curve" smooth="yes"/>
      <point x="298.43333333333334" y="393.3333333333333"/>
      <point x="327.96666666666664" y="361.9"/>
      <point x="327.96666666666664" y="307.9" type="curve" smooth="yes"/>
      <point x="327.96666666666664" y="269.5333333333333"/>
      <point x="318.8666666666667" y="236.13333333333335"/>
      <point x="299.59999999999997" y="205.66666666666666" type="curve" smooth="yes"/>
      <point x="278.43333333333334" y="171.66666666666669"/>
      <point x="248.9" y="150.20000000000002"/>
      <point x="205.6" y="150.20000000000002" type="curve" smooth="yes"/>
      <point x="164.86666666666665" y="150.20000000000002"/>
      <point x="136.33333333333331" y="178.5"/>
      <point x="109.06666666666666" y="226.6" type="curve"/>
      <point x="47.8" y="196.6" type="line"/>
      <point x="90.96666666666665" y="90.6"/>
      <point x="155.4" y="-2.3999999999999995"/>
      <point x="255.9333333333333" y="-2.3999999999999995" type="curve" smooth="yes"/>
      <point x="341.73333333333335" y="-2.3999999999999995"/>
      <point x="398.26666666666665" y="82.63333333333333"/>
      <point x="464.56666666666666" y="180.9" type="curve" smooth="yes"/>
      <point x="503.2" y="238.66666666666669"/>
      <point x="551.8666666666667" y="318.6"/>
      <point x="604.1" y="359.0" type="curve"/>
      <point x="564.0" y="378.8" type="line"/>
      <point x="532.7333333333333" y="296.03333333333336"/>
      <point x="513.1333333333333" y="227.33333333333331"/>
      <point x="513.1333333333333" y="141.7" type="curve" smooth="yes"/>
      <point x="513.1333333333333" y="41.2"/>
      <point x="548.6666666666666" y="-44.7"/>
    </contour>
    <contour>
      <point x="8.733333333333333" y="536.0" type="line"/>
      <point x="745.7666666666667" y="536.0" type="line"/>
      <point x="700.5000000000001" y="622.0" type="line"/>
      <point x="-37.53333333333333" y="622.0" type="line"/>
    </contour>
    <contour>
      <point x="540.5666666666666" y="588.0" type="curve"/>
      <point x="611.4666666666667" y="588.0" type="line"/>
      <point x="601.7333333333333" y="737.0"/>
      <point x="543.7" y="834.7"/>
      <point x="408.5333333333333" y="834.7" type="curve" smooth="yes"/>
      <point x="331.8" y="834.7"/>
      <point x="295.8333333333333" y="818.3333333333334"/>
      <point x="210.66666666666666" y="818.3333333333334" type="curve" smooth="yes"/>
      <point x="134.16666666666666" y="818.3333333333334"/>
      <point x="105.10000000000001" y="844.8"/>
      <point x="105.10000000000001" y="896.2666666666667" type="curve" smooth="yes"/>
      <point x="105.10000000000001" y="908.9"/>
      <point x="106.10000000000001" y="924.5333333333333"/>
      <point x="108.1" y="937.2666666666667" type="curve"/>
      <point x="51.2" y="944.2666666666667" type="line"/>
      <point x="45.2" y="918.2666666666667"/>
      <point x="41.2" y="887.2666666666667"/>
      <point x="41.2" y="858.6333333333333" type="curve" smooth="yes"/>
      <point x="41.2" y="756.0"/>
      <point x="100.26666666666668" y="682.7333333333333"/>
      <point x="230.7" y="682.7333333333333" type="curve" smooth="yes"/>
      <point x="313.7" y="682.7333333333333"/>
      <point x="365.9666666666667" y="702.1"/>
      <point x="433.23333333333335" y="702.1" type="curve" smooth="yes"/>
      <point x="503.7666666666667" y="702.1"/>
      <point x="534.4666666666667" y="676.0"/>
    </contour>
  </outline>
</glyph>
<glyph name="u-beng" format="2">
  <advance width="616.0666666666667"/>
  <unicode hex="0989"/>
  <anchor x="488.6" y="-24.9" name="bottom"/>
  <anchor x="553.0333333333333" y="-11.0" name="bottom.rakaar"/>
  <anchor x="477.8" y="3.1" name="bottom.rvocalic"/>
  <anchor x="415.0" y="-10.633333333333333" name="bottom.virama"/>
  <anchor x="407.56666666666666" y="597.3666666666667" name="top"/>
  <anchor x="338.1333333333333" y="604.3666666666667" name="topright"/>
  <anchor x="308.0333333333333" y="0.0" name="vedic"/>
  <anchor x="331.76666666666665" y="-142.0" name="nukta"/>
  <outline>
    <contour>
      <point x="493.06666666666666" y="587.3666666666667" type="curve"/>
      <point x="563.2333333333332" y="587.3666666666667" type="line"/>
      <point x="552.4333333333334" y="742.9666666666667"/>
      <point x="491.6333333333333" y="827.8"/>
      <point x="371.2666666666667" y="827.8" type="curve" smooth="yes"/>
      <point x="307.0333333333333" y="827.8"/>
      <point x="275.83333333333337" y="817.6999999999999"/>
      <point x="218.66666666666669" y="817.6999999999999" type="curve" smooth="yes"/>
      <point x="133.93333333333334" y="817.6999999999999"/>
      <point x="104.86666666666667" y="844.1666666666667"/>
      <point x="104.86666666666667" y="895.6333333333333" type="curve" smooth="yes"/>
      <point x="104.86666666666667" y="908.2666666666667"/>
      <point x="105.86666666666666" y="923.9000000000001"/>
      <point x="107.86666666666667" y="936.6333333333333" type="curve"/>
      <point x="50.96666666666667" y="943.6333333333333" type="line"/>
      <point x="44.96666666666667" y="917.6333333333333"/>
      <point x="40.96666666666667" y="886.6333333333333"/>
      <point x="40.96666666666667" y="858.0" type="curve" smooth="yes"/>
      <point x="40.96666666666667" y="755.3666666666667"/>
      <point x="99.4" y="682.1"/>
      <point x="231.23333333333335" y="682.1" type="curve" smooth="yes"/>
      <point x="299.29999999999995" y="682.1"/>
      <point x="341.56666666666666" y="694.1"/>
      <point x="383.1666666666667" y="694.1" type="curve" smooth="yes"/>
      <point x="450.90000000000003" y="694.1"/>
      <point x="485.1666666666667" y="676.4666666666667"/>
    </contour>
    <component base="dda-beng"/>
  </outline>
</glyph>
<glyph name="uu-beng" format="2">
  <advance width="722.9"/>
  <unicode hex="098A"/>
  <anchor x="580.7" y="-36.0" name="bottom"/>
  <anchor x="645.8666666666667" y="-21.0" name="bottom.rakaar"/>
  <anchor x="569.9" y="-8.0" name="bottom.rvocalic"/>
  <anchor x="507.09999999999997" y="-21.0" name="bottom.virama"/>
  <anchor x="472.0333333333333" y="602.0" name="top"/>
  <anchor x="448.8666666666667" y="604.0" name="topright"/>
  <anchor x="361.1333333333333" y="0.0" name="vedic"/>
  <outline>
    <contour>
      <point x="437.6" y="-32.06666666666667" type="curve" smooth="yes"/>
      <point x="627.7666666666667" y="-32.06666666666667"/>
      <point x="707.1999999999999" y="78.16666666666666"/>
      <point x="707.1999999999999" y="231.8" type="curve" smooth="yes"/>
      <point x="707.1999999999999" y="345.1666666666667"/>
      <point x="661.0333333333333" y="428.96666666666664"/>
      <point x="603.5999999999999" y="481.96666666666664" type="curve"/>
      <point x="545.6333333333333" y="397.03333333333336"/>
      <point x="495.76666666666665" y="361.3"/>
      <point x="465.76666666666665" y="361.3" type="curve" smooth="yes"/>
      <point x="450.6" y="361.3"/>
      <point x="432.9666666666667" y="367.3"/>
      <point x="432.9666666666667" y="393.3" type="curve" smooth="yes"/>
      <point x="432.9666666666667" y="536.0" type="line"/>
      <point x="760.4333333333333" y="536.0" type="line"/>
      <point x="712.1666666666667" y="622.0" type="line"/>
      <point x="-37.53333333333333" y="622.0" type="line"/>
      <point x="10.733333333333334" y="536.0" type="line"/>
      <point x="319.43333333333334" y="536.0" type="line"/>
      <point x="319.43333333333334" y="371.4666666666667" type="line" smooth="yes"/>
      <point x="319.43333333333334" y="315.8333333333333"/>
      <point x="337.5" y="280.3666666666667"/>
      <point x="365.5" y="251.63333333333333" type="curve" smooth="yes"/>
      <point x="395.1333333333333" y="221.26666666666668"/>
      <point x="430.56666666666666" y="205.63333333333335"/>
      <point x="476.93333333333334" y="205.63333333333335" type="curve" smooth="yes"/>
      <point x="538.5666666666666" y="205.63333333333335"/>
      <point x="614.3333333333333" y="255.5333333333333"/>
      <point x="659.7333333333333" y="332.9" type="curve"/>
      <point x="596.1333333333333" y="347.96666666666664" type="line"/>
      <point x="616.3" y="321.9"/>
      <point x="631.7333333333333" y="292.9"/>
      <point x="631.7333333333333" y="257.5666666666667" type="curve" smooth="yes"/>
      <point x="631.7333333333333" y="176.86666666666667"/>
      <point x="565.5999999999999" y="125.26666666666667"/>
      <point x="467.8333333333333" y="125.26666666666667" type="curve" smooth="yes"/>
      <point x="295.8" y="125.26666666666667"/>
      <point x="248.46666666666667" y="269.26666666666665"/>
      <point x="191.03333333333333" y="487.26666666666665" type="curve"/>
      <point x="128.13333333333333" y="471.26666666666665" type="line"/>
      <point x="153.5666666666667" y="308.26666666666665"/>
      <point x="192.36666666666665" y="196.26666666666668"/>
      <point x="241.76666666666668" y="108.26666666666667" type="curve"/>
      <point x="288.4" y="119.26666666666667" type="line"/>
      <point x="187.36666666666667" y="153.26666666666668"/>
      <point x="123.86666666666667" y="271.0"/>
      <point x="59.800000000000004" y="477.26666666666665" type="curve"/>
      <point x="-2.0999999999999996" y="461.26666666666665" type="line"/>
      <point x="58.86666666666667" y="142.26666666666668"/>
      <point x="198.0" y="-32.06666666666667"/>
    </contour>
    <contour>
      <point x="594.1333333333333" y="588.0" type="curve"/>
      <point x="665.0333333333334" y="588.0" type="line"/>
      <point x="652.7666666666667" y="737.0"/>
      <point x="582.3333333333334" y="832.8"/>
      <point x="440.2" y="832.8" type="curve" smooth="yes"/>
      <point x="353.33333333333337" y="832.8"/>
      <point x="314.6" y="815.8000000000001"/>
      <point x="208.53333333333333" y="815.8000000000001" type="curve" smooth="yes"/>
      <point x="125.7" y="815.8000000000001"/>
      <point x="99.16666666666667" y="844.8000000000001"/>
      <point x="99.16666666666667" y="896.2666666666667" type="curve" smooth="yes"/>
      <point x="99.16666666666667" y="908.9"/>
      <point x="100.16666666666666" y="924.5333333333334"/>
      <point x="102.16666666666667" y="937.2666666666667" type="curve"/>
      <point x="45.266666666666666" y="944.2666666666667" type="line"/>
      <point x="39.266666666666666" y="918.2666666666667"/>
      <point x="35.266666666666666" y="887.2666666666667"/>
      <point x="35.266666666666666" y="858.6333333333333" type="curve" smooth="yes"/>
      <point x="35.266666666666666" y="756.0"/>
      <point x="89.9" y="681.4666666666666"/>
      <point x="234.26666666666668" y="681.4666666666666" type="curve" smooth="yes"/>
      <point x="324.8666666666667" y="681.4666666666666"/>
      <point x="389.40000000000003" y="701.4666666666667"/>
      <point x="462.3666666666667" y="701.4666666666667" type="curve" smooth="yes"/>
      <point x="537.9666666666667" y="701.4666666666667"/>
      <point x="585.5" y="676.0"/>
    </contour>
  </outline>
</glyph>
<glyph name="rVocalic-beng" format="2">
  <advance width="784.7"/>
  <unicode hex="098B"/>
  <anchor x="530.3" y="0.0" name="bottom"/>
  <anchor x="530.3" y="100.0" name="bottom.rakaar"/>
  <anchor x="465.06666666666666" y="91.63333333333333" name="bottom.rvocalic"/>
  <anchor x="511.0333333333333" y="20.0" name="bottom.virama"/>
  <anchor x="530.3" y="536.0" name="top"/>
  <anchor x="533.3" y="536.0" name="topright"/>
  <anchor x="392.1666666666667" y="0.0" name="vedic"/>
  <outline>
    <contour>
      <point x="519.3" y="-40.233333333333334" type="line"/>
      <point x="530.3" y="-37.233333333333334" type="line"/>
      <point x="530.3" y="636.0" type="line"/>
      <point x="425.40000000000003" y="694.0" type="line"/>
      <point x="416.7666666666667" y="690.0" type="line"/>
      <point x="416.7666666666667" y="415.5333333333333" type="line"/>
      <point x="428.6666666666667" y="484.7666666666667" type="line"/>
      <point x="308.8666666666666" y="448.83333333333337"/>
      <point x="161.0" y="380.4666666666667"/>
      <point x="65.8" y="320.5" type="curve"/>
      <point x="134.93333333333334" y="159.0" type="line"/>
      <point x="252.5" y="147.33333333333331"/>
      <point x="372.23333333333335" y="102.76666666666667"/>
      <point x="437.33333333333337" y="5.033333333333333" type="curve"/>
    </contour>
    <contour>
      <point x="416.7666666666667" y="82.03333333333333" type="line"/>
      <point x="436.5" y="92.8" type="line"/>
      <point x="378.43333333333334" y="220.63333333333333"/>
      <point x="275.1" y="255.3666666666667"/>
      <point x="192.36666666666667" y="269.33333333333337" type="curve"/>
      <point x="210.60000000000002" y="210.9" type="line"/>
      <point x="264.2" y="250.43333333333334"/>
      <point x="364.96666666666664" y="302.33333333333337"/>
      <point x="436.76666666666665" y="322.5" type="curve"/>
      <point x="416.7666666666667" y="365.73333333333335" type="line"/>
    </contour>
    <contour>
      <point x="131.33333333333334" y="416.06666666666666" type="curve" smooth="yes"/>
      <point x="188.16666666666666" y="416.06666666666666"/>
      <point x="285.8333333333333" y="449.5"/>
      <point x="333.56666666666666" y="523.6666666666666" type="curve"/>
      <point x="298.0" y="527.0" type="line"/>
      <point x="317.43333333333334" y="507.3666666666667"/>
      <point x="344.3333333333333" y="477.7333333333333"/>
      <point x="358.06666666666666" y="441.0" type="curve"/>
      <point x="415.3333333333333" y="455.0" type="line"/>
      <point x="396.3333333333333" y="523.0"/>
      <point x="350.8" y="603.0"/>
      <point x="290.0" y="639.0" type="curve"/>
      <point x="252.2" y="576.9"/>
      <point x="195.36666666666667" y="532.1999999999999"/>
      <point x="123.3" y="532.1999999999999" type="curve" smooth="yes"/>
      <point x="109.86666666666666" y="532.1999999999999"/>
      <point x="96.23333333333333" y="535.0999999999999"/>
      <point x="85.06666666666666" y="540.0" type="curve"/>
      <point x="142.50000000000003" y="482.3666666666667" type="line"/>
      <point x="162.76666666666668" y="500.3666666666667"/>
      <point x="169.76666666666668" y="517.3666666666667"/>
      <point x="169.76666666666668" y="547.3666666666667" type="curve" smooth="yes"/>
      <point x="169.76666666666668" y="584.3666666666667"/>
      <point x="145.86666666666667" y="621.3666666666667"/>
      <point x="90.06666666666666" y="621.3666666666667" type="curve" smooth="yes"/>
      <point x="38.06666666666666" y="621.3666666666667"/>
      <point x="3.8" y="585.3666666666667"/>
      <point x="3.8" y="532.3666666666667" type="curve" smooth="yes"/>
      <point x="3.8" y="458.0666666666667"/>
      <point x="53.0" y="416.06666666666666"/>
    </contour>
    <contour>
      <point x="706.1666666666666" y="38.36666666666667" type="line"/>
      <point x="717.1666666666667" y="41.36666666666667" type="line"/>
      <point x="717.1666666666667" y="536.0" type="line"/>
      <point x="822.2333333333333" y="536.0" type="line"/>
      <point x="774.9666666666667" y="622.0" type="line"/>
      <point x="704.8" y="622.0" type="line"/>
      <point x="694.8" y="686.0" type="line"/>
      <point x="614.1" y="724.0" type="line"/>
      <point x="605.1" y="720.0" type="line"/>
      <point x="605.1" y="165.06666666666666" type="line"/>
      <point x="624.8333333333333" y="176.46666666666667" type="line"/>
      <point x="590.0666666666667" y="265.53333333333336"/>
      <point x="550.5999999999999" y="300.7666666666667"/>
      <point x="493.8333333333333" y="333.0333333333333" type="curve"/>
      <point x="481.3666666666667" y="216.46666666666667" type="line"/>
      <point x="544.6666666666667" y="186.93333333333334"/>
      <point x="587.5" y="154.0"/>
      <point x="625.6666666666666" y="84.26666666666667" type="curve"/>
    </contour>
  </outline>
</glyph>
<glyph name="lVocalic-beng" format="2">
  <advance width="544.2333333333333"/>
  <unicode hex="098C"/>
  <anchor x="436.76666666666665" y="536.0" name="top"/>
  <anchor x="271.79999999999995" y="0.0" name="vedic"/>
  <outline>
    <contour>
      <point x="303.43333333333334" y="-29.0" type="line"/>
      <point x="401.6666666666667" y="-18.0"/>
      <point x="531.8" y="50.63333333333333"/>
      <point x="531.8" y="260.26666666666665" type="curve" smooth="yes"/>
      <point x="531.8" y="408.93333333333334"/>
      <point x="455.3" y="474.23333333333335"/>
      <point x="298.3" y="505.53333333333336" type="curve" smooth="yes"/>
      <point x="207.83333333333334" y="524.2"/>
      <point x="149.5" y="538.3666666666667"/>
      <point x="149.5" y="616.0" type="curve" smooth="yes"/>
      <point x="149.5" y="648.0"/>
      <point x="155.13333333333333" y="670.0"/>
      <point x="167.13333333333333" y="699.0" type="curve"/>
      <point x="108.4" y="718.0" type="line"/>
      <point x="92.83333333333334" y="690.1333333333333"/>
      <point x="62.233333333333334" y="628.7333333333333"/>
      <point x="62.233333333333334" y="555.7333333333333" type="curve" smooth="yes"/>
      <point x="62.233333333333334" y="433.66666666666663"/>
      <point x="138.56666666666666" y="391.66666666666663"/>
      <point x="261.7" y="367.0" type="curve" smooth="yes"/>
      <point x="378.5666666666667" y="343.3333333333333"/>
      <point x="449.5333333333333" y="334.33333333333337"/>
      <point x="449.5333333333333" y="225.0" type="curve" smooth="yes"/>
      <point x="449.5333333333333" y="146.36666666666667"/>
      <point x="410.83333333333337" y="106.0"/>
      <point x="352.76666666666665" y="104.0" type="curve"/>
      <point x="414.76666666666665" y="69.0" type="line"/>
      <point x="415.4" y="218.0"/>
      <point x="339.5" y="333.0"/>
      <point x="207.53333333333333" y="333.0" type="curve" smooth="yes"/>
      <point x="80.76666666666667" y="333.0"/>
      <point x="30.233333333333334" y="240.1"/>
      <point x="30.233333333333334" y="146.83333333333334" type="curve" smooth="yes"/>
      <point x="30.233333333333334" y="38.733333333333334"/>
      <point x="86.66666666666667" y="-15.0"/>
      <point x="160.36666666666667" y="-15.0" type="curve" smooth="yes"/>
      <point x="220.63333333333333" y="-15.0"/>
      <point x="247.89999999999998" y="25.166666666666668"/>
      <point x="247.89999999999998" y="77.36666666666666" type="curve" smooth="yes"/>
      <point x="247.89999999999998" y="130.36666666666667"/>
      <point x="214.73333333333335" y="164.0"/>
      <point x="165.56666666666666" y="164.0" type="curve" smooth="yes"/>
      <point x="122.66666666666667" y="164.0"/>
      <point x="86.06666666666666" y="134.0"/>
      <point x="87.06666666666666" y="94.0" type="curve"/>
      <point x="151.86666666666667" y="86.0" type="line"/>
      <point x="132.6" y="92.0"/>
      <point x="118.7" y="109.36666666666666"/>
      <point x="118.7" y="141.0" type="curve" smooth="yes"/>
      <point x="118.7" y="177.0"/>
      <point x="144.5" y="204.0"/>
      <point x="187.56666666666666" y="204.0" type="curve" smooth="yes"/>
      <point x="272.5333333333333" y="204.0"/>
      <point x="300.43333333333334" y="99.63333333333334"/>
      <point x="300.43333333333334" y="19.0" type="curve" smooth="yes"/>
      <point x="300.43333333333334" y="5.366666666666666"/>
      <point x="299.43333333333334" y="-7.633333333333334"/>
      <point x="296.43333333333334" y="-22.0" type="curve"/>
    </contour>
  </outline>
</glyph>
<glyph name="e-beng" format="2">
  <advance width="660.2333333333333"/>
  <unicode hex="098F"/>
  <anchor x="602.1999999999999" y="0.0" name="bottom"/>
  <anchor x="602.1999999999999" y="-10.0" name="bottom.rvocalic"/>
  <anchor x="582.9333333333334" y="10.0" name="bottom.virama"/>
  <anchor x="515.3333333333333" y="536.0" name="top"/>
  <anchor x="518.3333333333333" y="536.0" name="topright"/>
  <anchor x="329.93333333333334" y="0.0" name="vedic"/>
  <outline>
    <contour>
      <point x="591.5666666666667" y="-41.0" type="line"/>
      <point x="602.5666666666667" y="-38.0" type="line"/>
      <point x="602.5666666666667" y="475.0" type="line" smooth="yes"/>
      <point x="602.5666666666667" y="568.0"/>
      <point x="541.9333333333334" y="633.0"/>
      <point x="438.5" y="633.0" type="curve" smooth="yes"/>
      <point x="309.46666666666664" y="633.0"/>
      <point x="184.70000000000002" y="525.0"/>
      <point x="184.70000000000002" y="385.0" type="curve" smooth="yes"/>
      <point x="184.70000000000002" y="298.0"/>
      <point x="242.26666666666668" y="249.0"/>
      <point x="315.06666666666666" y="249.0" type="curve" smooth="yes"/>
      <point x="385.76666666666665" y="249.0"/>
      <point x="427.0333333333333" y="298.0"/>
      <point x="427.0333333333333" y="357.0" type="curve" smooth="yes"/>
      <point x="427.0333333333333" y="411.0"/>
      <point x="392.1333333333333" y="446.0"/>
      <point x="346.06666666666666" y="446.0" type="curve" smooth="yes"/>
      <point x="322.1666666666667" y="446.0"/>
      <point x="300.6333333333333" y="434.0"/>
      <point x="288.0" y="415.0" type="curve"/>
      <point x="364.8333333333333" y="407.0" type="line"/>
      <point x="366.56666666666666" y="478.3333333333333"/>
      <point x="411.8333333333333" y="537.0"/>
      <point x="456.7" y="537.0" type="curve" smooth="yes"/>
      <point x="477.4" y="537.0"/>
      <point x="489.03333333333336" y="523.0"/>
      <point x="489.03333333333336" y="500.0" type="curve" smooth="yes"/>
      <point x="489.03333333333336" y="271.0" type="line" smooth="yes"/>
      <point x="489.03333333333336" y="214.73333333333332"/>
      <point x="495.03333333333336" y="136.0"/>
      <point x="504.03333333333336" y="98.0" type="curve"/>
      <point x="458.2333333333333" y="188.53333333333333"/>
      <point x="410.5" y="203.63333333333333"/>
      <point x="348.3666666666667" y="203.63333333333333" type="curve" smooth="yes"/>
      <point x="305.4" y="203.63333333333333"/>
      <point x="262.43333333333334" y="194.63333333333333"/>
      <point x="214.53333333333333" y="194.63333333333333" type="curve" smooth="yes"/>
      <point x="147.63333333333335" y="194.63333333333333"/>
      <point x="98.96666666666667" y="235.0666666666667"/>
      <point x="98.96666666666667" y="319.3333333333333" type="curve" smooth="yes"/>
      <point x="98.96666666666667" y="341.6333333333333"/>
      <point x="101.06666666666666" y="370.1"/>
      <point x="110.06666666666668" y="404.1" type="curve"/>
      <point x="48.333333333333336" y="414.09999999999997" type="line"/>
      <point x="33.7" y="365.73333333333335"/>
      <point x="26.333333333333332" y="308.8333333333333"/>
      <point x="26.333333333333332" y="258.0" type="curve" smooth="yes"/>
      <point x="26.333333333333332" y="94.73333333333333"/>
      <point x="120.56666666666666" y="33.1"/>
      <point x="225.53333333333333" y="33.1" type="curve" smooth="yes"/>
      <point x="296.7" y="33.1"/>
      <point x="355.66666666666663" y="55.1"/>
      <point x="410.6333333333333" y="55.1" type="curve" smooth="yes"/>
      <point x="450.2333333333333" y="55.1"/>
      <point x="488.76666666666665" y="42.0"/>
      <point x="522.9333333333334" y="-3.9999999999999996" type="curve"/>
    </contour>
  </outline>
</glyph>
<glyph name="ai-beng" format="2">
  <advance width="762.9666666666667"/>
  <unicode hex="0990"/>
  <anchor x="552.9333333333333" y="606.0" name="top"/>
  <anchor x="501.7666666666667" y="596.0" name="topright"/>
  <anchor x="381.1666666666667" y="0.0" name="vedic"/>
  <anchor x="602.1999999999999" y="0.0" name="bottom"/>
  <anchor x="602.1999999999999" y="-10.0" name="bottom.rvocalic"/>
  <anchor x="582.9333333333334" y="10.0" name="bottom.virama"/>
  <outline>
    <contour>
      <point x="581.3333333333334" y="283.6666666666667" type="line"/>
      <point x="659.5666666666666" y="357.8333333333333"/>
      <point x="713.4666666666666" y="441.3666666666667"/>
      <point x="713.4666666666666" y="562.1" type="curve" smooth="yes"/>
      <point x="713.4666666666666" y="755.9000000000001"/>
      <point x="562.0999999999999" y="783.7666666666667"/>
      <point x="429.73333333333335" y="805.6" type="curve" smooth="yes"/>
      <point x="324.79999999999995" y="823.0666666666666"/>
      <point x="228.83333333333334" y="839.2666666666667"/>
      <point x="228.83333333333334" y="930.0666666666666" type="curve" smooth="yes"/>
      <point x="228.83333333333334" y="959.4333333333333"/>
      <point x="236.46666666666667" y="992.4333333333333"/>
      <point x="250.36666666666667" y="1021.3333333333334" type="curve"/>
      <point x="184.03333333333333" y="1042.2333333333333" type="line"/>
      <point x="161.5" y="994.5"/>
      <point x="147.23333333333332" y="949.8666666666667"/>
      <point x="147.23333333333332" y="891.4333333333333" type="curve" smooth="yes"/>
      <point x="147.23333333333332" y="737.7666666666667"/>
      <point x="280.0" y="705.1666666666666"/>
      <point x="416.7" y="684.5" type="curve" smooth="yes"/>
      <point x="535.9333333333334" y="666.5666666666667"/>
      <point x="639.4" y="656.0333333333333"/>
      <point x="639.4" y="549.7333333333333" type="curve" smooth="yes"/>
      <point x="639.4" y="487.4666666666667"/>
      <point x="618.5" y="442.46666666666664"/>
      <point x="555.8" y="393.8333333333333" type="curve"/>
    </contour>
    <component base="e-beng"/>
  </outline>
</glyph>
<glyph name="o-beng" format="2">
  <advance width="701.1333333333333"/>
  <unicode hex="0993"/>
  <anchor x="552.5" y="-19.533333333333335" name="bottom"/>
  <anchor x="614.5666666666666" y="0.0" name="bottom.rakaar"/>
  <anchor x="544.3333333333334" y="6.1" name="bottom.rvocalic"/>
  <anchor x="484.90000000000003" y="-3.6333333333333333" name="bottom.virama"/>
  <anchor x="474.90000000000003" y="494.8333333333333" name="top"/>
  <anchor x="477.90000000000003" y="494.8333333333333" name="topright"/>
  <anchor x="350.56666666666666" y="0.0" name="vedic"/>
  <outline>
    <contour>
      <point x="433.53333333333336" y="13.633333333333333" type="curve" smooth="yes"/>
      <point x="570.4666666666667" y="13.633333333333333"/>
      <point x="669.8" y="92.1"/>
      <point x="669.8" y="215.36666666666667" type="curve" smooth="yes"/>
      <point x="669.8" y="349.6333333333333"/>
      <point x="531.5666666666667" y="431.96666666666664"/>
      <point x="472.6" y="431.96666666666664" type="curve" smooth="yes"/>
      <point x="425.73333333333335" y="431.96666666666664"/>
      <point x="385.5333333333333" y="400.3"/>
      <point x="385.5333333333333" y="339.73333333333335" type="curve" smooth="yes"/>
      <point x="385.5333333333333" y="284.0"/>
      <point x="422.8" y="246.36666666666667"/>
      <point x="478.59999999999997" y="246.36666666666667" type="curve" smooth="yes"/>
      <point x="565.9333333333334" y="246.36666666666667"/>
      <point x="639.9" y="344.1"/>
      <point x="639.9" y="455.73333333333335" type="curve" smooth="yes"/>
      <point x="639.9" y="554.3666666666667"/>
      <point x="567.1999999999999" y="629.0"/>
      <point x="438.7" y="629.0" type="curve" smooth="yes"/>
      <point x="287.2" y="629.0"/>
      <point x="171.06666666666666" y="533.7"/>
      <point x="171.06666666666666" y="418.1" type="curve" smooth="yes"/>
      <point x="171.06666666666666" y="342.3666666666667"/>
      <point x="217.23333333333335" y="300.3666666666667"/>
      <point x="278.29999999999995" y="300.3666666666667" type="curve" smooth="yes"/>
      <point x="343.0" y="300.3666666666667"/>
      <point x="377.79999999999995" y="342.0"/>
      <point x="377.79999999999995" y="397.90000000000003" type="curve" smooth="yes"/>
      <point x="377.79999999999995" y="446.4"/>
      <point x="348.90000000000003" y="474.53333333333336"/>
      <point x="310.56666666666666" y="474.53333333333336" type="curve" smooth="yes"/>
      <point x="276.03333333333336" y="474.53333333333336"/>
      <point x="257.5" y="454.90000000000003"/>
      <point x="253.6" y="439.26666666666665" type="curve"/>
      <point x="338.93333333333334" y="404.9" type="line"/>
      <point x="341.53333333333336" y="486.76666666666665"/>
      <point x="418.16666666666663" y="541.2666666666667"/>
      <point x="480.03333333333336" y="541.2666666666667" type="curve" smooth="yes"/>
      <point x="516.7333333333333" y="541.2666666666667"/>
      <point x="531.2" y="525.3666666666667"/>
      <point x="531.2" y="501.8" type="curve" smooth="yes"/>
      <point x="531.2" y="467.43333333333334"/>
      <point x="505.93333333333334" y="419.33333333333337"/>
      <point x="458.5" y="406.96666666666664" type="curve"/>
      <point x="480.03333333333336" y="335.0" type="line"/>
      <point x="524.8333333333334" y="337.0"/>
      <point x="580.6333333333333" y="312.6333333333333"/>
      <point x="580.6333333333333" y="259.6333333333333" type="curve" smooth="yes"/>
      <point x="580.6333333333333" y="192.0"/>
      <point x="515.9333333333334" y="162.0"/>
      <point x="428.1666666666667" y="162.0" type="curve" smooth="yes"/>
      <point x="269.5" y="162.0"/>
      <point x="161.53333333333336" y="238.70000000000002"/>
      <point x="77.26666666666667" y="531.7333333333333" type="curve"/>
      <point x="11.900000000000002" y="515.7333333333333" type="line"/>
      <point x="82.56666666666666" y="175.36666666666667"/>
      <point x="216.26666666666668" y="13.633333333333333"/>
    </contour>
  </outline>
</glyph>
<glyph name="au-beng" format="2">
  <advance width="783.4666666666667"/>
  <unicode hex="0994"/>
  <anchor x="612.0" y="-16.0" name="bottom"/>
  <anchor x="679.0" y="-1.0" name="bottom.rakaar"/>
  <anchor x="599.0" y="12.0" name="bottom.rvocalic"/>
  <anchor x="534.0" y="-1.0" name="bottom.virama"/>
  <anchor x="643.0" y="606.0" name="top"/>
  <anchor x="580.0" y="596.0" name="topright"/>
  <anchor x="391.73333333333335" y="0.0" name="vedic"/>
  <outline>
    <contour>
      <point x="601.8333333333334" y="296.3333333333333" type="line"/>
      <point x="680.0666666666667" y="370.5"/>
      <point x="733.9666666666667" y="447.7"/>
      <point x="733.9666666666667" y="562.1" type="curve" smooth="yes"/>
      <point x="733.9666666666667" y="755.9000000000001"/>
      <point x="582.5999999999999" y="783.7666666666667"/>
      <point x="450.2333333333333" y="805.6" type="curve" smooth="yes"/>
      <point x="345.3" y="823.0666666666666"/>
      <point x="249.33333333333334" y="839.2666666666667"/>
      <point x="249.33333333333334" y="930.0666666666666" type="curve" smooth="yes"/>
      <point x="249.33333333333334" y="959.4333333333333"/>
      <point x="256.9666666666667" y="992.4333333333333"/>
      <point x="270.8666666666666" y="1021.3333333333334" type="curve"/>
      <point x="204.53333333333333" y="1042.2333333333333" type="line"/>
      <point x="182.0" y="994.5"/>
      <point x="167.73333333333335" y="949.8666666666667"/>
      <point x="167.73333333333335" y="891.4333333333333" type="curve" smooth="yes"/>
      <point x="167.73333333333335" y="737.7666666666667"/>
      <point x="300.5" y="705.1666666666666"/>
      <point x="437.20000000000005" y="684.5" type="curve" smooth="yes"/>
      <point x="556.4333333333333" y="666.5666666666667"/>
      <point x="660.5333333333334" y="653.5"/>
      <point x="660.5333333333334" y="547.2" type="curve" smooth="yes"/>
      <point x="660.5333333333334" y="484.93333333333334"/>
      <point x="639.0" y="442.46666666666664"/>
      <point x="576.3" y="393.8333333333333" type="curve"/>
    </contour>
    <component base="o-beng"/>
  </outline>
</glyph>
<glyph name="ka-beng" format="2">
  <advance width="732.3"/>
  <unicode hex="0995"/>
  <anchor x="460.83333333333337" y="37.0" name="bottom"/>
  <anchor x="468.6333333333333" y="7.533333333333331" name="bottom.rakaar"/>
  <anchor x="468.6333333333333" y="11.0" name="bottom.rvocalic"/>
  <anchor x="460.93333333333334" y="-21.533333333333335" name="bottom.virama"/>
  <anchor x="217.86666666666667" y="23.0" name="nukta"/>
  <anchor x="431.43333333333334" y="592.0" name="top"/>
  <anchor x="432.43333333333334" y="572.0" name="topright"/>
  <anchor x="365.8333333333333" y="0.0" name="vedic"/>
  <outline>
    <contour>
      <point x="457.6333333333333" y="-32.0" type="line"/>
      <point x="468.6333333333333" y="-29.0" type="line"/>
      <point x="468.6333333333333" y="379.0" type="line"/>
      <point x="451.0" y="353.0" type="line"/>
      <point x="457.6333333333334" y="355.0"/>
      <point x="464.6333333333333" y="356.0"/>
      <point x="471.26666666666665" y="356.0" type="curve" smooth="yes"/>
      <point x="568.8333333333334" y="356.0"/>
      <point x="650.7" y="310.1333333333333"/>
      <point x="650.7" y="246.5" type="curve" smooth="yes"/>
      <point x="650.7" y="231.5"/>
      <point x="648.0666666666667" y="219.5"/>
      <point x="639.4333333333334" y="206.5" type="curve"/>
      <point x="658.9" y="205.66666666666666" type="line"/>
      <point x="656.6333333333334" y="253.66666666666666"/>
      <point x="627.3666666666667" y="279.66666666666663"/>
      <point x="577.8333333333334" y="279.66666666666663" type="curve" smooth="yes"/>
      <point x="530.7666666666667" y="279.66666666666663"/>
      <point x="492.23333333333335" y="247.66666666666666"/>
      <point x="492.23333333333335" y="193.66666666666666" type="curve" smooth="yes"/>
      <point x="492.23333333333335" y="135.66666666666666"/>
      <point x="527.4" y="94.66666666666667"/>
      <point x="587.4666666666666" y="94.66666666666667" type="curve" smooth="yes"/>
      <point x="662.2666666666667" y="94.66666666666667"/>
      <point x="713.4333333333333" y="151.03333333333333"/>
      <point x="713.4333333333333" y="256.6666666666667" type="curve" smooth="yes"/>
      <point x="713.4333333333333" y="397.3"/>
      <point x="614.4666666666666" y="496.0"/>
      <point x="454.0" y="511.0" type="curve"/>
      <point x="468.6333333333333" y="485.0" type="line"/>
      <point x="468.6333333333333" y="536.0" type="line"/>
      <point x="769.8333333333334" y="536.0" type="line"/>
      <point x="723.2" y="622.0" type="line"/>
      <point x="-37.53333333333333" y="622.0" type="line"/>
      <point x="8.733333333333333" y="536.0" type="line"/>
      <point x="355.09999999999997" y="536.0" type="line"/>
      <point x="355.09999999999997" y="447.0" type="line"/>
      <point x="368.09999999999997" y="514.0" type="line"/>
      <point x="238.16666666666666" y="482.1666666666667"/>
      <point x="98.26666666666667" y="418.3333333333333"/>
      <point x="0.8" y="352.90000000000003" type="curve"/>
      <point x="69.46666666666665" y="180.53333333333333" type="line"/>
      <point x="195.9" y="164.43333333333334"/>
      <point x="305.5" y="114.16666666666666"/>
      <point x="375.66666666666663" y="13.9" type="curve"/>
    </contour>
    <contour>
      <point x="355.09999999999997" y="95.33333333333333" type="line"/>
      <point x="374.8333333333333" y="110.53333333333333" type="line"/>
      <point x="331.96666666666664" y="204.16666666666666"/>
      <point x="251.56666666666666" y="260.43333333333334"/>
      <point x="175.16666666666666" y="283.26666666666665" type="curve"/>
      <point x="179.06666666666666" y="261.2666666666667" type="line"/>
      <point x="235.83333333333334" y="298.2666666666667"/>
      <point x="315.7" y="333.70000000000005"/>
      <point x="375.4666666666667" y="350.06666666666666" type="curve"/>
      <point x="355.09999999999997" y="401.0" type="line"/>
    </contour>
  </outline>
</glyph>
<glyph name="kha-beng" format="2">
  <advance width="637.1333333333333"/>
  <unicode hex="0996"/>
  <anchor x="561.1666666666666" y="37.0" name="bottom"/>
  <anchor x="569.6" y="100.0" name="bottom.rakaar"/>
  <anchor x="569.6" y="9.533333333333333" name="bottom.rvocalic"/>
  <anchor x="549.2333333333333" y="12.666666666666668" name="bottom.virama"/>
  <anchor x="524.4666666666667" y="582.0" name="top"/>
  <anchor x="514.8333333333334" y="572.0" name="topright"/>
  <anchor x="300.76666666666665" y="0.0" name="vedic"/>
  <outline>
    <contour>
      <point x="558.6" y="-32.0" type="line"/>
      <point x="569.6" y="-29.0" type="line"/>
      <point x="569.6" y="536.0" type="line"/>
      <point x="674.6666666666666" y="536.0" type="line"/>
      <point x="627.4000000000001" y="622.0" type="line"/>
      <point x="557.2333333333333" y="622.0" type="line"/>
      <point x="547.2333333333333" y="686.0" type="line"/>
      <point x="465.06666666666666" y="724.0" type="line"/>
      <point x="456.06666666666666" y="720.0" type="line"/>
      <point x="456.06666666666666" y="90.26666666666667" type="line"/>
      <point x="475.8" y="101.03333333333333" type="line"/>
      <point x="429.1333333333333" y="206.6"/>
      <point x="352.2333333333333" y="256.43333333333334"/>
      <point x="280.2666666666667" y="282.43333333333334" type="curve"/>
      <point x="290.73333333333335" y="244.2" type="line"/>
      <point x="384.4" y="269.2"/>
      <point x="427.0" y="327.3"/>
      <point x="427.0" y="419.53333333333336" type="curve" smooth="yes"/>
      <point x="427.0" y="533.6333333333333"/>
      <point x="343.7666666666667" y="601.0"/>
      <point x="281.6" y="637.0" type="curve"/>
      <point x="241.9" y="571.7333333333333"/>
      <point x="193.46666666666667" y="511.06666666666666"/>
      <point x="122.03333333333333" y="511.06666666666666" type="curve" smooth="yes"/>
      <point x="112.39999999999999" y="511.06666666666666"/>
      <point x="97.5" y="512.0666666666667"/>
      <point x="89.5" y="515.0666666666667" type="curve"/>
      <point x="142.50000000000003" y="472.0" type="line"/>
      <point x="162.76666666666668" y="490.0"/>
      <point x="169.76666666666668" y="507.0"/>
      <point x="169.76666666666668" y="537.0" type="curve" smooth="yes"/>
      <point x="169.76666666666668" y="574.0"/>
      <point x="145.86666666666667" y="611.0"/>
      <point x="90.06666666666666" y="611.0" type="curve" smooth="yes"/>
      <point x="38.06666666666666" y="611.0"/>
      <point x="3.8" y="575.0"/>
      <point x="3.8" y="522.0" type="curve" smooth="yes"/>
      <point x="3.8" y="439.4666666666667"/>
      <point x="58.96666666666667" y="396.1"/>
      <point x="133.76666666666668" y="396.1" type="curve" smooth="yes"/>
      <point x="198.63333333333335" y="396.1"/>
      <point x="276.96666666666664" y="425.3666666666667"/>
      <point x="326.1333333333333" y="518.7333333333333" type="curve"/>
      <point x="279.23333333333335" y="530.2333333333333" type="line"/>
      <point x="299.7666666666667" y="512.4333333333333"/>
      <point x="318.6666666666667" y="488.43333333333334"/>
      <point x="318.6666666666667" y="458.23333333333335" type="curve" smooth="yes"/>
      <point x="318.6666666666667" y="382.3666666666666"/>
      <point x="241.26666666666668" y="348.2"/>
      <point x="103.4" y="348.2" type="curve"/>
      <point x="160.03333333333333" y="183.2" type="line"/>
      <point x="287.73333333333335" y="170.26666666666668"/>
      <point x="410.26666666666665" y="112.26666666666668"/>
      <point x="477.26666666666665" y="13.266666666666667" type="curve"/>
    </contour>
  </outline>
</glyph>
<glyph name="ga-beng" format="2">
  <advance width="644.5000000000001"/>
  <unicode hex="0997"/>
  <anchor x="557.0" y="68.60000000000001" name="bottom"/>
  <anchor x="576.9666666666667" y="-24.0" name="bottom.rakaar"/>
  <anchor x="576.9666666666667" y="-3.0" name="bottom.rvocalic"/>
  <anchor x="532.5666666666667" y="10.0" name="bottom.virama"/>
  <anchor x="533.3000000000001" y="582.0" name="top"/>
  <anchor x="523.6666666666667" y="572.0" name="topright"/>
  <anchor x="321.93333333333334" y="0.0" name="vedic"/>
  <outline>
    <contour>
      <point x="565.9666666666667" y="-43.0" type="line"/>
      <point x="576.9666666666667" y="-40.0" type="line"/>
      <point x="576.9666666666667" y="536.0" type="line"/>
      <point x="682.0333333333334" y="536.0" type="line"/>
      <point x="634.7666666666667" y="622.0" type="line"/>
      <point x="564.6" y="622.0" type="line"/>
      <point x="554.6" y="686.0" type="line"/>
      <point x="473.90000000000003" y="724.0" type="line"/>
      <point x="464.90000000000003" y="720.0" type="line"/>
      <point x="464.90000000000003" y="607.0999999999999" type="line" smooth="yes"/>
      <point x="464.90000000000003" y="540.5666666666666"/>
      <point x="468.6333333333333" y="479.1666666666667"/>
      <point x="474.8" y="420.03333333333336" type="curve"/>
      <point x="488.16666666666663" y="417.0" type="line"/>
      <point x="435.6666666666667" y="569.2666666666667"/>
      <point x="344.9666666666667" y="637.0"/>
      <point x="246.96666666666667" y="637.0" type="curve" smooth="yes"/>
      <point x="141.83333333333334" y="637.0"/>
      <point x="50.4" y="564.2666666666668"/>
      <point x="-10.0" y="434.40000000000003" type="curve"/>
      <point x="106.93333333333334" y="327.53333333333336" type="line"/>
      <point x="137.43333333333334" y="355.3666666666666"/>
      <point x="180.96666666666667" y="384.9"/>
      <point x="219.03333333333333" y="384.9" type="curve" smooth="yes"/>
      <point x="248.13333333333333" y="384.9"/>
      <point x="265.93333333333334" y="372.53333333333336"/>
      <point x="265.93333333333334" y="343.6333333333333" type="curve" smooth="yes"/>
      <point x="265.93333333333334" y="303.53333333333336"/>
      <point x="218.03333333333336" y="271.8"/>
      <point x="120.06666666666666" y="245.6" type="curve"/>
      <point x="205.5" y="100.0" type="line"/>
      <point x="348.93333333333334" y="156.0"/>
      <point x="391.8" y="243.53333333333333"/>
      <point x="391.8" y="327.0" type="curve" smooth="yes"/>
      <point x="391.8" y="406.0"/>
      <point x="344.16666666666663" y="467.6333333333333"/>
      <point x="257.56666666666666" y="467.6333333333333" type="curve" smooth="yes"/>
      <point x="209.76666666666665" y="467.6333333333333"/>
      <point x="173.7" y="452.0"/>
      <point x="144.8" y="431.1666666666667" type="curve"/>
      <point x="162.06666666666666" y="402.56666666666666" type="line"/>
      <point x="179.3" y="449.56666666666666"/>
      <point x="230.70000000000002" y="515.7333333333333"/>
      <point x="292.8666666666667" y="515.7333333333333" type="curve" smooth="yes"/>
      <point x="353.03333333333336" y="515.7333333333333"/>
      <point x="419.4666666666667" y="463.3333333333333"/>
      <point x="476.7" y="309.66666666666663" type="curve"/>
      <point x="463.43333333333334" y="388.2" type="line"/>
      <point x="463.43333333333334" y="-1.0" type="line"/>
    </contour>
  </outline>
</glyph>
<glyph name="gha-beng" format="2">
  <advance width="564.1333333333333"/>
  <unicode hex="0998"/>
  <anchor x="488.8" y="37.0" name="bottom"/>
  <anchor x="496.59999999999997" y="100.0" name="bottom.rakaar"/>
  <anchor x="496.6" y="9.533333333333333" name="bottom.rvocalic"/>
  <anchor x="476.23333333333335" y="12.666666666666668" name="bottom.virama"/>
  <anchor x="459.4" y="592.0" name="top"/>
  <anchor x="460.4" y="572.0" name="topright"/>
  <anchor x="281.56666666666666" y="0.0" name="vedic"/>
  <outline>
    <contour>
      <point x="485.6" y="-32.0" type="line"/>
      <point x="496.6" y="-29.0" type="line"/>
      <point x="496.6" y="536.0" type="line"/>
      <point x="601.6666666666666" y="536.0" type="line"/>
      <point x="553.7666666666668" y="622.0" type="line"/>
      <point x="-37.53333333333333" y="622.0" type="line"/>
      <point x="8.733333333333333" y="536.0" type="line"/>
      <point x="383.06666666666666" y="536.0" type="line"/>
      <point x="383.06666666666666" y="90.26666666666667" type="line"/>
      <point x="402.79999999999995" y="101.03333333333333" type="line"/>
      <point x="344.1" y="226.96666666666667"/>
      <point x="240.26666666666665" y="273.93333333333334"/>
      <point x="158.79999999999998" y="285.3666666666666" type="curve"/>
      <point x="182.93333333333334" y="245.46666666666667" type="line"/>
      <point x="222.36666666666667" y="274.9"/>
      <point x="297.53333333333336" y="311.1333333333333"/>
      <point x="369.53333333333336" y="342.4666666666667" type="curve"/>
      <point x="308.2666666666667" y="464.0" type="line"/>
      <point x="288.8333333333333" y="450.8333333333333"/>
      <point x="271.1333333333334" y="441.56666666666666"/>
      <point x="241.8" y="441.56666666666666" type="curve" smooth="yes"/>
      <point x="210.36666666666667" y="441.56666666666666"/>
      <point x="188.46666666666667" y="459.20000000000005"/>
      <point x="188.46666666666667" y="488.73333333333335" type="curve" smooth="yes"/>
      <point x="188.46666666666667" y="515.7333333333332"/>
      <point x="204.83333333333334" y="536.0"/>
      <point x="234.3" y="547.0" type="curve"/>
      <point x="68.93333333333334" y="596.1333333333333" type="line"/>
      <point x="41.86666666666667" y="575.6"/>
      <point x="22.400000000000002" y="544.8666666666667"/>
      <point x="22.400000000000002" y="502.2333333333333" type="curve" smooth="yes"/>
      <point x="22.400000000000002" y="419.06666666666666"/>
      <point x="99.2" y="391.26666666666665"/>
      <point x="161.7" y="389.2666666666667" type="curve"/>
      <point x="184.0" y="415.3333333333333" type="line"/>
      <point x="135.93333333333334" y="395.7"/>
      <point x="75.56666666666668" y="367.4666666666667"/>
      <point x="29.766666666666666" y="338.46666666666664" type="curve"/>
      <point x="101.23333333333333" y="177.56666666666666" type="line"/>
      <point x="218.8" y="167.79999999999998"/>
      <point x="338.5333333333333" y="111.0"/>
      <point x="403.6333333333333" y="13.266666666666667" type="curve"/>
    </contour>
  </outline>
</glyph>
<glyph name="nga-beng" format="2">
  <advance width="603.8000000000001"/>
  <unicode hex="0999"/>
  <anchor x="424.0" y="-12.266666666666667" name="bottom"/>
  <anchor x="552.8666666666667" y="-0.36666666666666664" name="bottom.rakaar"/>
  <anchor x="446.26666666666665" y="-42.9" name="bottom.rvocalic"/>
  <anchor x="414.83333333333337" y="0.0" name="bottom.virama"/>
  <anchor x="369.76666666666665" y="591.6333333333333" name="top"/>
  <anchor x="371.5" y="572.0" name="topright"/>
  <anchor x="301.40000000000003" y="0.0" name="vedic"/>
  <outline>
    <contour>
      <point x="363.73333333333335" y="-18.9" type="curve" smooth="yes"/>
      <point x="528.5" y="-18.9"/>
      <point x="592.4666666666666" y="104.0"/>
      <point x="592.4666666666666" y="253.26666666666668" type="curve" smooth="yes"/>
      <point x="592.4666666666666" y="348.16666666666663"/>
      <point x="541.9333333333334" y="423.26666666666665"/>
      <point x="507.8666666666667" y="459.6333333333333" type="curve"/>
      <point x="452.33333333333337" y="372.6333333333333"/>
      <point x="382.0" y="329.6333333333334"/>
      <point x="340.76666666666665" y="329.6333333333334" type="curve" smooth="yes"/>
      <point x="322.23333333333335" y="329.6333333333334"/>
      <point x="309.23333333333335" y="339.6333333333333"/>
      <point x="309.23333333333335" y="362.6333333333333" type="curve" smooth="yes"/>
      <point x="309.23333333333335" y="467.0" type="line" smooth="yes"/>
      <point x="309.23333333333335" y="517.0"/>
      <point x="324.5" y="550.7333333333333"/>
      <point x="359.56666666666666" y="550.7333333333333" type="curve" smooth="yes"/>
      <point x="382.53333333333336" y="550.7333333333333"/>
      <point x="393.1666666666667" y="536.5666666666667"/>
      <point x="393.1666666666667" y="516.1" type="curve" smooth="yes"/>
      <point x="393.1666666666667" y="489.1"/>
      <point x="373.8" y="466.3666666666667"/>
      <point x="329.6666666666667" y="466.3666666666667" type="curve" smooth="yes"/>
      <point x="243.16666666666666" y="466.3666666666667"/>
      <point x="200.56666666666666" y="515.3666666666667"/>
      <point x="150.13333333333335" y="628.0" type="curve"/>
      <point x="93.5" y="605.0" type="line"/>
      <point x="147.3" y="477.3666666666667"/>
      <point x="207.36666666666667" y="383.73333333333335"/>
      <point x="336.66666666666663" y="383.73333333333335" type="curve" smooth="yes"/>
      <point x="427.8" y="383.73333333333335"/>
      <point x="482.3333333333333" y="444.43333333333334"/>
      <point x="482.33333333333337" y="513.0" type="curve" smooth="yes"/>
      <point x="482.33333333333337" y="582.0"/>
      <point x="443.5333333333333" y="636.0"/>
      <point x="353.56666666666666" y="636.0" type="curve" smooth="yes"/>
      <point x="263.6" y="636.0"/>
      <point x="201.8" y="567.0"/>
      <point x="201.8" y="462.3666666666667" type="curve" smooth="yes"/>
      <point x="201.8" y="339.0" type="line" smooth="yes"/>
      <point x="201.8" y="285.3666666666667"/>
      <point x="225.06666666666666" y="250.36666666666665"/>
      <point x="248.33333333333331" y="228.36666666666667" type="curve" smooth="yes"/>
      <point x="277.23333333333335" y="201.36666666666667"/>
      <point x="310.8666666666667" y="190.73333333333335"/>
      <point x="351.03333333333336" y="190.73333333333335" type="curve" smooth="yes"/>
      <point x="423.3666666666667" y="190.73333333333335"/>
      <point x="512.3333333333334" y="246.73333333333335"/>
      <point x="540.4" y="307.73333333333335" type="curve"/>
      <point x="483.5" y="347.3" type="line"/>
      <point x="501.03333333333336" y="320.3"/>
      <point x="515.3" y="287.0333333333333"/>
      <point x="515.3" y="259.29999999999995" type="curve" smooth="yes"/>
      <point x="515.3" y="183.96666666666667"/>
      <point x="461.03333333333336" y="133.16666666666666"/>
      <point x="353.93333333333334" y="133.16666666666666" type="curve" smooth="yes"/>
      <point x="207.79999999999998" y="133.16666666666666"/>
      <point x="137.6" y="230.0"/>
      <point x="73.2" y="495.0" type="curve"/>
      <point x="6.3" y="478.0" type="line"/>
      <point x="66.7" y="151.36666666666665"/>
      <point x="165.06666666666666" y="-18.9"/>
    </contour>
  </outline>
</glyph>
<glyph name="ca-beng" format="2">
  <advance width="531.5666666666666"/>
  <unicode hex="099A"/>
  <anchor x="360.2" y="-10.0" name="bottom"/>
  <anchor x="448.0" y="0.0" name="bottom.rakaar"/>
  <anchor x="384.2666666666667" y="-25.666666666666668" name="bottom.rvocalic"/>
  <anchor x="304.1333333333333" y="20.0" name="bottom.virama"/>
  <anchor x="144.6" y="592.0" name="top"/>
  <anchor x="145.60000000000002" y="572.0" name="topright"/>
  <anchor x="265.46666666666664" y="0.0" name="vedic"/>
  <outline>
    <contour>
      <point x="240.66666666666666" y="-12.0" type="curve" smooth="yes"/>
      <point x="412.96666666666664" y="-12.0"/>
      <point x="498.3666666666667" y="182.0"/>
      <point x="498.3666666666667" y="292.0" type="curve" smooth="yes"/>
      <point x="498.3666666666667" y="363.26666666666665"/>
      <point x="436.4666666666667" y="408.6333333333333"/>
      <point x="403.73333333333335" y="424.0" type="curve"/>
      <point x="320.2333333333333" y="425.0"/>
      <point x="230.5" y="456.0"/>
      <point x="175.43333333333334" y="547.0" type="curve"/>
      <point x="172.79999999999998" y="459.9" type="line"/>
      <point x="206.86666666666667" y="364.9"/>
      <point x="288.43333333333334" y="289.0"/>
      <point x="405.83333333333337" y="284.0" type="curve"/>
      <point x="345.40000000000003" y="343.0" type="line"/>
      <point x="337.0333333333333" y="195.33333333333334"/>
      <point x="266.6333333333333" y="111.0"/>
      <point x="218.03333333333333" y="111.0" type="curve" smooth="yes"/>
      <point x="195.60000000000002" y="111.0"/>
      <point x="181.06666666666666" y="123.89999999999999"/>
      <point x="181.06666666666666" y="148.16666666666666" type="curve" smooth="yes"/>
      <point x="181.06666666666666" y="536.0" type="line"/>
      <point x="569.0999999999999" y="536.0" type="line"/>
      <point x="523.8333333333334" y="622.0" type="line"/>
      <point x="-37.53333333333333" y="622.0" type="line"/>
      <point x="10.733333333333334" y="536.0" type="line"/>
      <point x="67.53333333333333" y="536.0" type="line"/>
      <point x="67.53333333333333" y="144.5" type="line" smooth="yes"/>
      <point x="67.53333333333333" y="54.5"/>
      <point x="155.5" y="-12.0"/>
    </contour>
  </outline>
</glyph>
<glyph name="cha-beng" format="2">
  <advance width="555.1999999999999"/>
  <unicode hex="099B"/>
  <anchor x="351.4666666666667" y="-28.566666666666663" name="bottom"/>
  <anchor x="478.6" y="-157.6" name="bottom.rakaar"/>
  <anchor x="443.0" y="-39.6" name="bottom.rvocalic"/>
  <anchor x="346.3" y="-27.6" name="bottom.virama"/>
  <anchor x="117.23333333333333" y="592.0" name="top"/>
  <anchor x="118.23333333333333" y="572.0" name="topright"/>
  <anchor x="277.09999999999997" y="0.0" name="vedic"/>
  <outline>
    <contour>
      <point x="542.0333333333333" y="-181.43333333333334" type="curve"/>
      <point x="584.6666666666667" y="-134.8" type="line"/>
      <point x="491.2" y="-27.700000000000003"/>
      <point x="348.5" y="66.03333333333333"/>
      <point x="223.20000000000002" y="92.39999999999999" type="curve"/>
      <point x="202.56666666666666" y="46.699999999999996" type="line"/>
      <point x="212.76666666666668" y="40.13333333333333"/>
      <point x="246.73333333333335" y="34.233333333333334"/>
      <point x="275.3666666666667" y="34.233333333333334" type="curve" smooth="yes"/>
      <point x="433.3333333333333" y="34.233333333333334"/>
      <point x="539.9333333333334" y="123.16666666666667"/>
      <point x="539.9333333333334" y="265.40000000000003" type="curve" smooth="yes"/>
      <point x="539.9333333333334" y="420.0"/>
      <point x="426.1333333333334" y="487.0"/>
      <point x="296.9" y="487.0" type="curve" smooth="yes"/>
      <point x="238.03333333333333" y="487.0"/>
      <point x="170.39999999999998" y="503.0"/>
      <point x="145.6" y="538.0" type="curve"/>
      <point x="140.96666666666667" y="486.0" type="line"/>
      <point x="171.13333333333333" y="425.0"/>
      <point x="224.76666666666668" y="403.0"/>
      <point x="267.5333333333333" y="393.0" type="curve"/>
      <point x="237.20000000000002" y="443.0" type="line"/>
      <point x="235.89999999999998" y="366.0"/>
      <point x="208.46666666666667" y="302.0"/>
      <point x="175.03333333333333" y="302.0" type="curve" smooth="yes"/>
      <point x="162.76666666666668" y="302.0"/>
      <point x="152.23333333333332" y="310.0"/>
      <point x="152.23333333333332" y="324.6333333333333" type="curve" smooth="yes"/>
      <point x="152.23333333333332" y="536.0" type="line"/>
      <point x="592.7333333333333" y="536.0" type="line"/>
      <point x="543.4666666666667" y="622.0" type="line"/>
      <point x="-37.53333333333333" y="622.0" type="line"/>
      <point x="8.733333333333333" y="536.0" type="line"/>
      <point x="40.166666666666664" y="536.0" type="line"/>
      <point x="40.166666666666664" y="325.16666666666663" type="line" smooth="yes"/>
      <point x="40.166666666666664" y="259.1666666666667"/>
      <point x="117.13333333333334" y="200.0"/>
      <point x="197.86666666666667" y="200.0" type="curve" smooth="yes"/>
      <point x="301.56666666666666" y="200.0"/>
      <point x="367.06666666666666" y="273.0"/>
      <point x="379.7" y="428.0" type="curve"/>
      <point x="330.9" y="402.26666666666665" type="line"/>
      <point x="383.5" y="402.26666666666665"/>
      <point x="424.93333333333334" y="376.43333333333334"/>
      <point x="424.93333333333334" y="305.7" type="curve" smooth="yes"/>
      <point x="424.93333333333334" y="198.83333333333334"/>
      <point x="324.1333333333333" y="162.73333333333332"/>
      <point x="231.63333333333333" y="162.73333333333332" type="curve" smooth="yes"/>
      <point x="174.16666666666666" y="162.73333333333332"/>
      <point x="114.5" y="173.56666666666666"/>
      <point x="69.33333333333333" y="203.56666666666666" type="curve"/>
      <point x="108.5" y="13.7" type="line"/>
      <point x="233.23333333333332" y="-11.766666666666667"/>
      <point x="380.8666666666667" y="-47.06666666666667"/>
    </contour>
  </outline>
</glyph>
<glyph name="ja-beng" format="2">
  <advance width="817.5333333333333"/>
  <unicode hex="099C"/>
  <anchor x="741.8666666666667" y="22.03333333333333" name="bottom"/>
  <anchor x="752.8666666666667" y="43.666666666666664" name="bottom.rakaar"/>
  <anchor x="754.2333333333333" y="-61.0" name="bottom.rvocalic"/>
  <anchor x="738.6" y="-51.333333333333336" name="bottom.virama"/>
  <anchor x="444.26666666666665" y="591.6333333333333" name="top"/>
  <anchor x="445.2666666666667" y="572.0" name="topright"/>
  <anchor x="408.76666666666665" y="0.0" name="vedic"/>
  <outline>
    <contour>
      <point x="360.03333333333336" y="-57.8" type="curve" smooth="yes"/>
      <point x="510.43333333333334" y="-57.8"/>
      <point x="573.7666666666667" y="43.83333333333333"/>
      <point x="573.7666666666667" y="185.26666666666665" type="curve" smooth="yes"/>
      <point x="573.7666666666667" y="294.0"/>
      <point x="514.5" y="374.0"/>
      <point x="476.16666666666663" y="410.3666666666667" type="curve"/>
      <point x="419.6333333333333" y="348.3666666666667"/>
      <point x="378.20000000000005" y="317.3666666666667"/>
      <point x="346.23333333333335" y="317.3666666666667" type="curve" smooth="yes"/>
      <point x="320.5333333333333" y="317.3666666666667"/>
      <point x="300.73333333333335" y="332.3666666666666"/>
      <point x="300.73333333333335" y="359.7333333333333" type="curve" smooth="yes"/>
      <point x="300.73333333333335" y="413.09999999999997"/>
      <point x="403.8666666666667" y="492.3666666666667"/>
      <point x="508.26666666666665" y="536.0" type="curve"/>
      <point x="855.0666666666666" y="536.0" type="line"/>
      <point x="809.1666666666667" y="622.0" type="line"/>
      <point x="-37.53333333333333" y="622.0" type="line"/>
      <point x="9.366666666666667" y="536.0" type="line"/>
      <point x="360.56666666666666" y="536.0" type="line"/>
      <point x="323.2" y="580.0" type="line"/>
      <point x="285.06666666666666" y="560.6333333333333"/>
      <point x="182.20000000000002" y="479.0"/>
      <point x="182.20000000000002" y="365.73333333333335" type="curve" smooth="yes"/>
      <point x="182.20000000000002" y="252.46666666666667"/>
      <point x="267.90000000000003" y="175.46666666666667"/>
      <point x="355.5" y="175.46666666666667" type="curve" smooth="yes"/>
      <point x="414.8333333333333" y="175.46666666666667"/>
      <point x="479.53333333333336" y="210.56666666666666"/>
      <point x="528.7" y="282.1" type="curve"/>
      <point x="468.7" y="301.76666666666665" type="line"/>
      <point x="488.23333333333335" y="275.76666666666665"/>
      <point x="503.76666666666665" y="247.03333333333333"/>
      <point x="503.76666666666665" y="211.86666666666667" type="curve" smooth="yes"/>
      <point x="503.76666666666665" y="142.53333333333333"/>
      <point x="441.3666666666667" y="102.06666666666666"/>
      <point x="362.4666666666667" y="102.06666666666666" type="curve" smooth="yes"/>
      <point x="211.20000000000002" y="102.06666666666666"/>
      <point x="126.86666666666667" y="224.83333333333334"/>
      <point x="77.2" y="477.26666666666665" type="curve"/>
      <point x="11.366666666666665" y="462.3666666666667" type="line"/>
      <point x="59.5" y="116.03333333333335"/>
      <point x="160.66666666666666" y="-57.8"/>
    </contour>
    <contour>
      <point x="694.7" y="-100.7" type="curve"/>
      <point x="754.2333333333333" y="-78.33333333333333" type="line"/>
      <point x="727.4333333333333" y="3.933333333333333"/>
      <point x="723.0666666666666" y="54.53333333333333"/>
      <point x="723.0666666666666" y="121.06666666666666" type="curve" smooth="yes"/>
      <point x="723.0666666666666" y="204.96666666666667"/>
      <point x="753.8000000000001" y="296.40000000000003"/>
      <point x="809.1333333333333" y="368.3666666666667" type="curve"/>
      <point x="729.2333333333333" y="472.0" type="line"/>
      <point x="606.8333333333334" y="453.3666666666667"/>
      <point x="527.5333333333333" y="501.9"/>
      <point x="496.4666666666667" y="578.2666666666667" type="curve"/>
      <point x="441.09999999999997" y="539.3666666666667" type="line"/>
      <point x="482.1333333333333" y="397.1"/>
      <point x="596.2" y="337.2"/>
      <point x="694.3333333333333" y="319.5" type="curve"/>
      <point x="667.0666666666666" y="394.8666666666667" type="line"/>
      <point x="634.5333333333333" y="316.53333333333336"/>
      <point x="622.5333333333333" y="254.16666666666666"/>
      <point x="622.5333333333333" y="176.13333333333335" type="curve" smooth="yes"/>
      <point x="622.5333333333333" y="58.53333333333333"/>
      <point x="655.0" y="-24.833333333333332"/>
    </contour>
  </outline>
</glyph>
<glyph name="jha-beng" format="2">
  <advance width="713.6"/>
  <unicode hex="099D"/>
  <anchor x="459.0" y="37.0" name="bottom"/>
  <anchor x="466.79999999999995" y="98.73333333333333" name="bottom.rakaar"/>
  <anchor x="466.8" y="8.266666666666666" name="bottom.rvocalic"/>
  <anchor x="450.8666666666667" y="23.666666666666668" name="bottom.virama"/>
  <anchor x="416.93333333333334" y="592.0" name="top"/>
  <anchor x="476.0666666666667" y="592.0" name="topleft"/>
  <anchor x="417.9333333333333" y="572.0" name="topright"/>
  <anchor x="356.8" y="0.0" name="vedic"/>
  <outline>
    <contour>
      <point x="455.1666666666667" y="-32.0" type="line"/>
      <point x="466.8" y="-29.0" type="line"/>
      <point x="466.8" y="622.0" type="line"/>
      <point x="-37.53333333333333" y="622.0" type="line"/>
      <point x="8.733333333333333" y="536.0" type="line"/>
      <point x="353.26666666666665" y="536.0" type="line"/>
      <point x="353.26666666666665" y="445.73333333333335" type="line"/>
      <point x="366.26666666666665" y="514.0" type="line"/>
      <point x="237.6" y="482.8"/>
      <point x="98.33333333333333" y="418.96666666666664"/>
      <point x="-1.0333333333333332" y="352.90000000000003" type="curve"/>
      <point x="67.63333333333333" y="180.53333333333333" type="line"/>
      <point x="191.53333333333336" y="165.70000000000002"/>
      <point x="306.2" y="112.26666666666667"/>
      <point x="373.8333333333333" y="13.9" type="curve"/>
    </contour>
    <contour>
      <point x="353.26666666666665" y="95.33333333333333" type="line"/>
      <point x="373.0" y="110.53333333333333" type="line"/>
      <point x="326.3333333333333" y="211.76666666666668"/>
      <point x="238.96666666666667" y="262.9666666666667"/>
      <point x="173.33333333333331" y="283.26666666666665" type="curve"/>
      <point x="177.23333333333332" y="261.26666666666665" type="line"/>
      <point x="235.26666666666665" y="298.9"/>
      <point x="314.5" y="333.7"/>
      <point x="373.6333333333333" y="350.06666666666666" type="curve"/>
      <point x="353.26666666666665" y="400.3666666666666" type="line"/>
    </contour>
    <contour>
      <point x="635.0666666666667" y="38.36666666666667" type="line"/>
      <point x="646.0666666666667" y="41.36666666666667" type="line"/>
      <point x="646.0666666666667" y="536.0" type="line"/>
      <point x="751.1333333333333" y="536.0" type="line"/>
      <point x="703.8666666666667" y="622.0" type="line"/>
      <point x="633.7" y="622.0" type="line"/>
      <point x="623.7" y="686.0" type="line"/>
      <point x="543.0000000000001" y="724.0" type="line"/>
      <point x="534.0000000000001" y="720.0" type="line"/>
      <point x="534.0000000000001" y="165.06666666666666" type="line"/>
      <point x="553.7333333333333" y="176.46666666666667" type="line"/>
      <point x="520.8666666666667" y="261.73333333333335"/>
      <point x="479.5" y="300.7666666666667"/>
      <point x="422.73333333333335" y="333.0333333333333" type="curve"/>
      <point x="410.2666666666667" y="216.46666666666667" type="line"/>
      <point x="473.56666666666666" y="186.93333333333334"/>
      <point x="518.3000000000001" y="150.2"/>
      <point x="554.5666666666666" y="84.26666666666667" type="curve"/>
    </contour>
  </outline>
</glyph>
<glyph name="nya-beng" format="2">
  <advance width="934.3"/>
  <unicode hex="099E"/>
  <anchor x="595.4000000000001" y="28.0" name="bottom"/>
  <anchor x="602.5666666666666" y="91.0" name="bottom.rakaar"/>
  <anchor x="602.5666666666667" y="0.5333333333333334" name="bottom.rvocalic"/>
  <anchor x="582.2" y="11.0" name="bottom.virama"/>
  <anchor x="493.0" y="591.6333333333333" name="top"/>
  <anchor x="493.6333333333333" y="572.0" name="topright"/>
  <anchor x="466.96666666666664" y="0.0" name="vedic"/>
  <outline>
    <contour>
      <point x="751.5" y="18.433333333333334" type="curve" smooth="yes"/>
      <point x="849.4666666666667" y="18.433333333333334"/>
      <point x="895.9" y="89.8"/>
      <point x="895.9" y="172.43333333333334" type="curve" smooth="yes"/>
      <point x="895.9" y="231.33333333333334"/>
      <point x="872.1" y="293.7"/>
      <point x="818.2" y="335.06666666666666" type="curve"/>
      <point x="841.2" y="283.06666666666666" type="line"/>
      <point x="869.0" y="311.70000000000005"/>
      <point x="895.2666666666667" y="363.33333333333337"/>
      <point x="895.2666666666667" y="436.06666666666666" type="curve" smooth="yes"/>
      <point x="895.2666666666667" y="532.0666666666666"/>
      <point x="844.1" y="607.6999999999999"/>
      <point x="759.1333333333333" y="607.6999999999999" type="curve" smooth="yes"/>
      <point x="635.6333333333333" y="607.6999999999999"/>
      <point x="571.7666666666668" y="459.06666666666666"/>
      <point x="563.1333333333333" y="368.06666666666666" type="curve"/>
      <point x="563.1333333333333" y="260.06666666666666" type="line"/>
      <point x="581.4000000000001" y="128.43333333333334"/>
      <point x="644.2666666666667" y="18.433333333333334"/>
    </contour>
    <contour>
      <point x="739.5" y="150.70000000000002" type="curve" smooth="yes"/>
      <point x="670.6333333333333" y="150.70000000000002"/>
      <point x="606.0333333333334" y="217.43333333333334"/>
      <point x="606.0333333333334" y="309.06666666666666" type="curve" smooth="yes"/>
      <point x="606.0333333333334" y="397.06666666666666"/>
      <point x="667.6333333333333" y="488.43333333333334"/>
      <point x="750.1333333333333" y="488.43333333333334" type="curve" smooth="yes"/>
      <point x="776.8333333333334" y="488.43333333333334"/>
      <point x="797.0" y="473.06666666666666"/>
      <point x="797.0" y="442.06666666666666" type="curve" smooth="yes"/>
      <point x="797.0" y="414.06666666666666"/>
      <point x="763.4666666666667" y="380.06666666666666"/>
      <point x="729.0333333333333" y="365.06666666666666" type="curve"/>
      <point x="790.5666666666666" y="357.7" type="line"/>
      <point x="771.6666666666667" y="376.06666666666666"/>
      <point x="751.5" y="397.06666666666666"/>
      <point x="714.2333333333333" y="397.06666666666666" type="curve" smooth="yes"/>
      <point x="667.0666666666666" y="397.06666666666666"/>
      <point x="637.5333333333334" y="361.7"/>
      <point x="637.5333333333334" y="310.06666666666666" type="curve" smooth="yes"/>
      <point x="637.5333333333334" y="255.43333333333334"/>
      <point x="672.0666666666666" y="222.43333333333334"/>
      <point x="719.2333333333333" y="222.43333333333334" type="curve" smooth="yes"/>
      <point x="760.7666666666667" y="222.43333333333334"/>
      <point x="792.3000000000001" y="239.43333333333334"/>
      <point x="820.2" y="269.43333333333334" type="curve"/>
      <point x="766.3000000000001" y="302.06666666666666" type="line"/>
      <point x="783.8333333333333" y="283.06666666666666"/>
      <point x="812.0" y="260.7"/>
      <point x="812.0" y="220.0666666666667" type="curve" smooth="yes"/>
      <point x="812.0" y="174.0666666666667"/>
      <point x="783.8333333333334" y="150.70000000000002"/>
    </contour>
    <component base="e-beng"/>
  </outline>
</glyph>
<glyph name="tta-beng" format="2">
  <advance width="547.8000000000001"/>
  <unicode hex="099F"/>
  <anchor x="362.73333333333335" y="-10.0" name="bottom"/>
  <anchor x="448.0" y="0.0" name="bottom.rakaar"/>
  <anchor x="371.6" y="-6.666666666666666" name="bottom.rvocalic"/>
  <anchor x="304.1333333333333" y="20.0" name="bottom.virama"/>
  <anchor x="282.50000000000006" y="679.7333333333333" name="top"/>
  <anchor x="203.5" y="632.0" name="topright"/>
  <anchor x="273.40000000000003" y="0.0" name="vedic"/>
  <anchor x="241.4" y="-121.0" name="nukta"/>
  <outline>
    <contour>
      <point x="403.5333333333333" y="588.0" type="curve"/>
      <point x="472.9666666666667" y="588.0" type="line"/>
      <point x="468.8666666666667" y="743.6"/>
      <point x="408.06666666666666" y="828.0666666666666"/>
      <point x="305.73333333333335" y="828.0666666666666" type="curve" smooth="yes"/>
      <point x="246.13333333333335" y="828.0666666666666"/>
      <point x="214.56666666666666" y="818.3333333333333"/>
      <point x="158.5" y="818.3333333333333" type="curve" smooth="yes"/>
      <point x="88.33333333333333" y="818.3333333333333"/>
      <point x="58.53333333333333" y="844.8000000000001"/>
      <point x="58.53333333333333" y="896.2666666666667" type="curve" smooth="yes"/>
      <point x="58.53333333333333" y="908.9000000000001"/>
      <point x="59.53333333333333" y="924.5333333333333"/>
      <point x="61.53333333333334" y="937.2666666666667" type="curve"/>
      <point x="5.0" y="944.2666666666667" type="line"/>
      <point x="-0.9999999999999991" y="918.2666666666667"/>
      <point x="-4.633333333333333" y="887.2666666666667"/>
      <point x="-4.633333333333333" y="858.6333333333333" type="curve" smooth="yes"/>
      <point x="-4.633333333333333" y="756.0"/>
      <point x="54.06666666666667" y="682.7333333333333"/>
      <point x="172.3" y="682.7333333333333" type="curve" smooth="yes"/>
      <point x="236.1" y="682.7333333333333"/>
      <point x="277.0" y="694.3666666666667"/>
      <point x="320.06666666666666" y="694.3666666666667" type="curve" smooth="yes"/>
      <point x="369.6" y="694.3666666666667"/>
      <point x="401.9666666666667" y="676.3666666666667"/>
    </contour>
    <component base="ddha-beng"/>
  </outline>
</glyph>
<glyph name="ttha-beng" format="2">
  <advance width="548.4333333333333"/>
  <unicode hex="09A0"/>
  <anchor x="345.7" y="-50.0" name="bottom"/>
  <anchor x="500.9" y="-24.0" name="bottom.rakaar"/>
  <anchor x="400.1" y="-57.0" name="bottom.rvocalic"/>
  <anchor x="317.8333333333333" y="-20.0" name="bottom.virama"/>
  <anchor x="462.93333333333334" y="571.0" name="top"/>
  <anchor x="438.23333333333335" y="602.6666666666666" name="topleft"/>
  <anchor x="349.0" y="572.0" name="topright"/>
  <anchor x="274.0333333333333" y="0.0" name="vedic"/>
  <outline>
    <contour>
      <point x="290.76666666666665" y="-54.0" type="curve" smooth="yes"/>
      <point x="425.5333333333333" y="-54.0"/>
      <point x="513.5" y="26.0"/>
      <point x="513.5" y="179.4" type="curve" smooth="yes"/>
      <point x="513.5" y="325.6"/>
      <point x="409.6333333333333" y="441.3333333333333"/>
      <point x="318.2" y="536.0" type="curve"/>
      <point x="585.9666666666667" y="536.0" type="line"/>
      <point x="538.7" y="622.0" type="line"/>
      <point x="248.23333333333332" y="622.0" type="line"/>
      <point x="211.0666666666667" y="657.0"/>
      <point x="197.9" y="684.4666666666667"/>
      <point x="197.9" y="713.4666666666667" type="curve" smooth="yes"/>
      <point x="197.9" y="751.7333333333333"/>
      <point x="230.7" y="793.0"/>
      <point x="276.6666666666667" y="814.0" type="curve"/>
      <point x="170.03333333333333" y="896.0" type="line"/>
      <point x="106.06666666666668" y="864.0"/>
      <point x="64.36666666666666" y="809.0"/>
      <point x="64.36666666666666" y="758.0" type="curve" smooth="yes"/>
      <point x="64.36666666666666" y="697.0"/>
      <point x="102.16666666666667" y="664.0"/>
      <point x="152.33333333333334" y="622.0" type="curve"/>
      <point x="-37.53333333333333" y="622.0" type="line"/>
      <point x="8.733333333333333" y="536.0" type="line"/>
      <point x="206.06666666666666" y="536.0" type="line"/>
      <point x="213.96666666666667" y="515.9"/>
      <point x="218.86666666666667" y="491.4666666666667"/>
      <point x="218.86666666666667" y="458.0" type="curve" smooth="yes"/>
      <point x="218.86666666666667" y="346.0"/>
      <point x="134.23333333333335" y="268.43333333333334"/>
      <point x="13.033333333333331" y="245.06666666666666" type="curve"/>
      <point x="20.2" y="81.73333333333333"/>
      <point x="114.06666666666666" y="-54.0"/>
    </contour>
    <contour>
      <point x="258.40000000000003" y="58.53333333333333" type="curve" smooth="yes"/>
      <point x="199.06666666666666" y="58.53333333333333"/>
      <point x="163.2" y="111.60000000000001"/>
      <point x="162.83333333333334" y="160.60000000000002" type="curve"/>
      <point x="147.03333333333333" y="126.06666666666666" type="line"/>
      <point x="251.86666666666667" y="157.70000000000002"/>
      <point x="313.4666666666667" y="229.53333333333333"/>
      <point x="313.4666666666667" y="348.7" type="curve" smooth="yes"/>
      <point x="313.4666666666667" y="412.6333333333333"/>
      <point x="292.23333333333335" y="478.0"/>
      <point x="248.70000000000002" y="537.0" type="curve"/>
      <point x="234.7" y="536.0" type="line"/>
      <point x="325.4" y="437.73333333333335"/>
      <point x="367.26666666666665" y="342.59999999999997"/>
      <point x="367.26666666666665" y="219.63333333333333" type="curve" smooth="yes"/>
      <point x="367.26666666666665" y="110.9"/>
      <point x="324.2666666666667" y="58.53333333333333"/>
    </contour>
  </outline>
</glyph>
<glyph name="dda-beng" format="2">
  <advance width="616.0666666666667"/>
  <unicode hex="09A1"/>
  <anchor x="453.0" y="-26.0" name="bottom"/>
  <anchor x="554.8666666666667" y="-11.0" name="bottom.rakaar"/>
  <anchor x="459.2666666666667" y="-29.0" name="bottom.rvocalic"/>
  <anchor x="416.4666666666667" y="-11.0" name="bottom.virama"/>
  <anchor x="331.76666666666665" y="-142.0" name="nukta"/>
  <anchor x="290.0333333333333" y="592.0" name="top"/>
  <anchor x="290.66666666666663" y="572.0" name="topright"/>
  <anchor x="308.0333333333333" y="0.0" name="vedic"/>
  <outline>
    <contour>
      <point x="358.6333333333333" y="-27.0" type="curve" smooth="yes"/>
      <point x="521.5666666666667" y="-27.0"/>
      <point x="601.0" y="78.16666666666666"/>
      <point x="601.0" y="231.8" type="curve" smooth="yes"/>
      <point x="601.0" y="345.1666666666667"/>
      <point x="554.1999999999999" y="428.96666666666664"/>
      <point x="496.76666666666665" y="481.96666666666664" type="curve"/>
      <point x="439.43333333333334" y="397.03333333333336"/>
      <point x="389.56666666666666" y="361.3"/>
      <point x="358.93333333333334" y="361.3" type="curve" smooth="yes"/>
      <point x="343.76666666666665" y="361.3"/>
      <point x="326.1333333333333" y="367.3"/>
      <point x="326.1333333333333" y="393.3" type="curve" smooth="yes"/>
      <point x="326.1333333333333" y="536.0" type="line"/>
      <point x="653.6" y="536.0" type="line"/>
      <point x="605.3333333333334" y="622.0" type="line"/>
      <point x="-37.53333333333333" y="622.0" type="line"/>
      <point x="10.733333333333334" y="536.0" type="line"/>
      <point x="212.60000000000002" y="536.0" type="line"/>
      <point x="212.60000000000002" y="371.4666666666667" type="line" smooth="yes"/>
      <point x="212.60000000000002" y="315.8333333333333"/>
      <point x="230.03333333333333" y="281.6333333333333"/>
      <point x="258.6666666666667" y="252.9" type="curve" smooth="yes"/>
      <point x="288.3" y="223.16666666666666"/>
      <point x="323.09999999999997" y="206.9"/>
      <point x="370.09999999999997" y="206.9" type="curve" smooth="yes"/>
      <point x="431.73333333333335" y="206.9"/>
      <point x="507.5" y="256.79999999999995"/>
      <point x="552.2666666666667" y="334.16666666666663" type="curve"/>
      <point x="484.8666666666667" y="329.6" type="line"/>
      <point x="505.0333333333333" y="308.6"/>
      <point x="519.8333333333334" y="279.59999999999997"/>
      <point x="519.8333333333334" y="250.6" type="curve" smooth="yes"/>
      <point x="519.8333333333334" y="180.66666666666666"/>
      <point x="460.66666666666663" y="127.8"/>
      <point x="358.4666666666667" y="127.8" type="curve" smooth="yes"/>
      <point x="185.83333333333334" y="127.8"/>
      <point x="116.76666666666667" y="261.3333333333333"/>
      <point x="79.7" y="475.6333333333333" type="curve"/>
      <point x="10.433333333333334" y="462.0" type="line"/>
      <point x="47.866666666666674" y="149.33333333333334"/>
      <point x="145.70000000000002" y="-27.0"/>
    </contour>
  </outline>
</glyph>
<glyph name="ddha-beng" format="2">
  <advance width="547.8000000000001"/>
  <unicode hex="09A2"/>
  <anchor x="365.2666666666667" y="-10.0" name="bottom"/>
  <anchor x="448.0" y="0.0" name="bottom.rakaar"/>
  <anchor x="371.59999999999997" y="-6.666666666666666" name="bottom.rvocalic"/>
  <anchor x="304.1333333333333" y="20.0" name="bottom.virama"/>
  <anchor x="241.4" y="-121.0" name="nukta"/>
  <anchor x="144.6" y="592.0" name="top"/>
  <anchor x="145.6" y="572.0" name="topright"/>
  <anchor x="273.40000000000003" y="0.0" name="vedic"/>
  <outline>
    <contour>
      <point x="240.66666666666666" y="-12.0" type="curve" smooth="yes"/>
      <point x="400.06666666666666" y="-12.0"/>
      <point x="514.4666666666667" y="153.0"/>
      <point x="514.4666666666667" y="308.0" type="curve" smooth="yes"/>
      <point x="514.4666666666667" y="414.0"/>
      <point x="452.2" y="463.0"/>
      <point x="383.40000000000003" y="463.0" type="curve" smooth="yes"/>
      <point x="312.2333333333333" y="463.0"/>
      <point x="264.33333333333337" y="414.4666666666667"/>
      <point x="264.33333333333337" y="350.6333333333333" type="curve" smooth="yes"/>
      <point x="264.33333333333337" y="288.26666666666665"/>
      <point x="300.8666666666667" y="244.0"/>
      <point x="364.4" y="244.0" type="curve" smooth="yes"/>
      <point x="384.56666666666666" y="244.0"/>
      <point x="410.2" y="257.0"/>
      <point x="430.83333333333337" y="282.0" type="curve"/>
      <point x="360.6" y="322.0" type="line"/>
      <point x="353.7666666666667" y="182.0"/>
      <point x="266.43333333333334" y="111.63333333333334"/>
      <point x="216.76666666666668" y="111.63333333333334" type="curve" smooth="yes"/>
      <point x="196.86666666666667" y="111.63333333333334"/>
      <point x="181.06666666666666" y="123.9"/>
      <point x="181.06666666666666" y="148.16666666666666" type="curve" smooth="yes"/>
      <point x="181.06666666666666" y="536.0" type="line"/>
      <point x="585.3333333333334" y="536.0" type="line"/>
      <point x="540.4333333333333" y="622.0" type="line"/>
      <point x="-37.53333333333333" y="622.0" type="line"/>
      <point x="10.733333333333334" y="536.0" type="line"/>
      <point x="67.53333333333333" y="536.0" type="line"/>
      <point x="67.53333333333333" y="145.13333333333333" type="line" smooth="yes"/>
      <point x="67.53333333333333" y="53.86666666666667"/>
      <point x="155.5" y="-12.0"/>
    </contour>
  </outline>
</glyph>
<glyph name="nna-beng" format="2">
  <advance width="631.8666666666667"/>
  <unicode hex="09A3"/>
  <anchor x="544.3666666666667" y="68.60000000000001" name="bottom"/>
  <anchor x="564.3333333333334" y="-24.0" name="bottom.rakaar"/>
  <anchor x="564.3333333333334" y="-3.0" name="bottom.rvocalic"/>
  <anchor x="519.9333333333333" y="10.0" name="bottom.virama"/>
  <anchor x="520.6666666666666" y="582.0" name="top"/>
  <anchor x="511.03333333333336" y="572.0" name="topright"/>
  <anchor x="315.93333333333334" y="0.0" name="vedic"/>
  <outline>
    <contour>
      <point x="553.3333333333334" y="-43.0" type="line"/>
      <point x="564.3333333333334" y="-40.0" type="line"/>
      <point x="564.3333333333334" y="536.0" type="line"/>
      <point x="669.4" y="536.0" type="line"/>
      <point x="622.1333333333333" y="622.0" type="line"/>
      <point x="551.9666666666667" y="622.0" type="line"/>
      <point x="541.9666666666667" y="686.0" type="line"/>
      <point x="461.26666666666665" y="724.0" type="line"/>
      <point x="452.26666666666665" y="720.0" type="line"/>
      <point x="452.26666666666665" y="603.4333333333333" type="line" smooth="yes"/>
      <point x="452.26666666666665" y="530.5666666666667"/>
      <point x="457.26666666666665" y="439.8"/>
      <point x="462.8" y="380.03333333333336" type="curve"/>
      <point x="474.06666666666666" y="386.3666666666667" type="line"/>
      <point x="416.53333333333336" y="527.6333333333333"/>
      <point x="336.09999999999997" y="631.0"/>
      <point x="215.13333333333333" y="631.0" type="curve" smooth="yes"/>
      <point x="118.43333333333334" y="631.0"/>
      <point x="30.0" y="559.3666666666667"/>
      <point x="30.0" y="419.7333333333333" type="curve" smooth="yes"/>
      <point x="30.0" y="259.56666666666666"/>
      <point x="140.9" y="190.46666666666667"/>
      <point x="237.13333333333333" y="190.46666666666667" type="curve" smooth="yes"/>
      <point x="318.2" y="190.46666666666667"/>
      <point x="362.1" y="238.73333333333332"/>
      <point x="362.1" y="308.73333333333335" type="curve" smooth="yes"/>
      <point x="362.1" y="372.3666666666667"/>
      <point x="323.20000000000005" y="423.6333333333333"/>
      <point x="256.4" y="423.6333333333333" type="curve" smooth="yes"/>
      <point x="201.6" y="423.6333333333333"/>
      <point x="164.06666666666666" y="384.3666666666667"/>
      <point x="164.06666666666666" y="328.3666666666667" type="curve" smooth="yes"/>
      <point x="164.06666666666666" y="304.6333333333333"/>
      <point x="168.79999999999998" y="283.73333333333335"/>
      <point x="178.26666666666665" y="271.1" type="curve"/>
      <point x="232.20000000000002" y="316.0" type="line"/>
      <point x="219.29999999999998" y="312.26666666666665"/>
      <point x="204.3" y="310.1666666666667"/>
      <point x="191.66666666666666" y="310.1666666666667" type="curve" smooth="yes"/>
      <point x="162.5" y="310.1666666666667"/>
      <point x="135.06666666666666" y="334.2666666666667"/>
      <point x="135.06666666666666" y="383.8333333333333" type="curve" smooth="yes"/>
      <point x="135.06666666666666" y="446.3666666666666"/>
      <point x="179.5666666666667" y="486.93333333333334"/>
      <point x="249.66666666666666" y="486.93333333333334" type="curve" smooth="yes"/>
      <point x="330.2333333333333" y="486.93333333333334"/>
      <point x="406.8333333333333" y="424.3"/>
      <point x="464.06666666666666" y="272.9666666666667" type="curve"/>
      <point x="450.8" y="348.2" type="line"/>
      <point x="450.8" y="-1.0" type="line"/>
    </contour>
  </outline>
</glyph>
<glyph name="ta-beng" format="2">
  <advance width="626.0333333333334"/>
  <unicode hex="09A4"/>
  <anchor x="482.4" y="-15.0" name="bottom"/>
  <anchor x="566.0666666666667" y="0.0" name="bottom.rakaar"/>
  <anchor x="492.03333333333336" y="-19.0" name="bottom.rvocalic"/>
  <anchor x="410.06666666666666" y="0.0" name="bottom.virama"/>
  <anchor x="380.8666666666667" y="592.0" name="top"/>
  <anchor x="381.5" y="572.0" name="topright"/>
  <anchor x="312.70000000000005" y="0.0" name="vedic"/>
  <outline>
    <contour>
      <point x="377.3" y="-15.0" type="curve" smooth="yes"/>
      <point x="499.1666666666667" y="-15.0"/>
      <point x="613.5" y="53.0"/>
      <point x="613.5" y="234.0" type="curve" smooth="yes"/>
      <point x="613.5" y="389.0"/>
      <point x="515.9" y="502.0"/>
      <point x="355.8666666666667" y="502.0" type="curve" smooth="yes"/>
      <point x="252.16666666666666" y="502.0"/>
      <point x="198.53333333333333" y="441.6333333333334"/>
      <point x="198.53333333333333" y="358.0" type="curve" smooth="yes"/>
      <point x="198.53333333333333" y="281.6333333333333"/>
      <point x="246.79999999999998" y="221.0"/>
      <point x="331.9666666666667" y="221.0" type="curve" smooth="yes"/>
      <point x="411.1333333333333" y="221.0"/>
      <point x="449.6666666666667" y="272.1"/>
      <point x="449.6666666666667" y="337.0" type="curve" smooth="yes"/>
      <point x="449.6666666666667" y="382.0"/>
      <point x="422.6666666666667" y="418.0"/>
      <point x="404.7666666666667" y="435.0" type="curve"/>
      <point x="360.23333333333335" y="340.0" type="line"/>
      <point x="372.5" y="348.0"/>
      <point x="397.1333333333334" y="360.0"/>
      <point x="425.03333333333336" y="360.0" type="curve" smooth="yes"/>
      <point x="483.6333333333333" y="360.0"/>
      <point x="520.6" y="331.2666666666667"/>
      <point x="520.6" y="267.6333333333333" type="curve" smooth="yes"/>
      <point x="520.6" y="192.0"/>
      <point x="462.1" y="142.43333333333334"/>
      <point x="369.4" y="142.43333333333334" type="curve" smooth="yes"/>
      <point x="232.53333333333333" y="142.43333333333334"/>
      <point x="129.0" y="227.6"/>
      <point x="62.5" y="484.0" type="curve"/>
      <point x="-4.133333333333335" y="468.0" type="line"/>
      <point x="64.26666666666667" y="138.03333333333333"/>
      <point x="172.73333333333335" y="-15.0"/>
    </contour>
    <contour>
      <point x="8.733333333333333" y="536.0" type="line"/>
      <point x="663.5666666666667" y="536.0" type="line"/>
      <point x="615.3" y="622.0" type="line"/>
      <point x="-37.53333333333333" y="622.0" type="line"/>
    </contour>
  </outline>
</glyph>
<glyph name="tha-beng" format="2">
  <advance width="604.1666666666667"/>
  <unicode hex="09A5"/>
  <anchor x="529.4666666666667" y="37.0" name="bottom"/>
  <anchor x="536.6333333333333" y="100.0" name="bottom.rakaar"/>
  <anchor x="536.6333333333333" y="9.533333333333333" name="bottom.rvocalic"/>
  <anchor x="516.2666666666667" y="20.0" name="bottom.virama"/>
  <anchor x="491.5" y="582.0" name="top"/>
  <anchor x="481.8666666666667" y="572.0" name="topright"/>
  <anchor x="301.90000000000003" y="0.0" name="vedic"/>
  <outline>
    <contour>
      <point x="525.6333333333333" y="-32.0" type="line"/>
      <point x="536.6333333333333" y="-29.0" type="line"/>
      <point x="536.6333333333333" y="536.0" type="line"/>
      <point x="641.7" y="536.0" type="line"/>
      <point x="594.4333333333334" y="622.0" type="line"/>
      <point x="524.2666666666667" y="622.0" type="line"/>
      <point x="514.2666666666667" y="686.0" type="line"/>
      <point x="432.09999999999997" y="724.0" type="line"/>
      <point x="423.09999999999997" y="720.0" type="line"/>
      <point x="423.09999999999997" y="90.26666666666667" type="line"/>
      <point x="442.8333333333333" y="101.03333333333333" type="line"/>
      <point x="386.0333333333333" y="233.83333333333331"/>
      <point x="261.6333333333333" y="269.73333333333335"/>
      <point x="176.36666666666665" y="293.8333333333333" type="curve"/>
      <point x="213.13333333333335" y="241.66666666666666" type="line"/>
      <point x="339.56666666666666" y="255.26666666666668"/>
      <point x="390.2333333333333" y="327.33333333333337"/>
      <point x="390.2333333333333" y="424.03333333333336" type="curve" smooth="yes"/>
      <point x="390.2333333333333" y="548.4"/>
      <point x="295.8333333333333" y="626.4666666666667"/>
      <point x="183.23333333333332" y="626.4666666666667" type="curve" smooth="yes"/>
      <point x="84.73333333333333" y="626.4666666666667"/>
      <point x="19.0" y="571.6999999999999"/>
      <point x="19.0" y="494.7" type="curve" smooth="yes"/>
      <point x="19.0" y="422.1666666666667"/>
      <point x="63.733333333333334" y="387.2666666666667"/>
      <point x="117.96666666666667" y="387.2666666666667" type="curve" smooth="yes"/>
      <point x="172.86666666666665" y="387.2666666666667"/>
      <point x="206.5" y="419.9"/>
      <point x="206.5" y="469.16666666666663" type="curve" smooth="yes"/>
      <point x="206.5" y="506.5333333333333"/>
      <point x="192.6" y="527.0666666666666"/>
      <point x="165.79999999999998" y="539.6" type="curve"/>
      <point x="169.43333333333334" y="489.0" type="line"/>
      <point x="182.86666666666667" y="510.0"/>
      <point x="198.23333333333332" y="522.5666666666667"/>
      <point x="223.6" y="522.5666666666667" type="curve" smooth="yes"/>
      <point x="260.3" y="522.5666666666667"/>
      <point x="277.56666666666666" y="494.03333333333336"/>
      <point x="277.56666666666666" y="458.93333333333334" type="curve" smooth="yes"/>
      <point x="277.56666666666666" y="373.7"/>
      <point x="188.66666666666669" y="346.3"/>
      <point x="64.73333333333333" y="346.93333333333334" type="curve"/>
      <point x="123.26666666666668" y="178.76666666666668" type="line"/>
      <point x="252.23333333333335" y="165.83333333333334"/>
      <point x="378.56666666666666" y="113.53333333333335"/>
      <point x="443.6666666666667" y="13.266666666666667" type="curve"/>
    </contour>
  </outline>
</glyph>
<glyph name="da-beng" format="2">
  <advance width="549.4666666666667"/>
  <unicode hex="09A6"/>
  <anchor x="467.9" y="56.86666666666667" name="bottom"/>
  <anchor x="483.96666666666664" y="50.0" name="bottom.rakaar"/>
  <anchor x="485.3333333333333" y="-54.666666666666664" name="bottom.rvocalic"/>
  <anchor x="469.7" y="-45.0" name="bottom.virama"/>
  <anchor x="135.10000000000002" y="592.0" name="top"/>
  <anchor x="135.73333333333335" y="572.0" name="topright"/>
  <anchor x="274.23333333333335" y="0.0" name="vedic"/>
  <outline>
    <contour>
      <point x="426.43333333333334" y="-95.0" type="curve"/>
      <point x="485.3333333333333" y="-72.0" type="line"/>
      <point x="461.7" y="10.9"/>
      <point x="456.06666666666666" y="58.333333333333336"/>
      <point x="456.06666666666666" y="122.96666666666667" type="curve" smooth="yes"/>
      <point x="456.06666666666666" y="211.1"/>
      <point x="482.43333333333334" y="308.0"/>
      <point x="525.2333333333333" y="383.0" type="curve"/>
      <point x="391.43333333333334" y="493.9" type="line"/>
      <point x="303.29999999999995" y="443.9"/>
      <point x="205.00000000000003" y="368.5333333333333"/>
      <point x="145.66666666666666" y="298.90000000000003" type="curve"/>
      <point x="170.83333333333334" y="246.0" type="line"/>
      <point x="170.83333333333334" y="536.0" type="line"/>
      <point x="587.0" y="536.0" type="line"/>
      <point x="540.7333333333332" y="622.0" type="line"/>
      <point x="-37.53333333333333" y="622.0" type="line"/>
      <point x="9.733333333333334" y="536.0" type="line"/>
      <point x="57.300000000000004" y="536.0" type="line"/>
      <point x="57.300000000000004" y="191.1" type="line"/>
      <point x="171.46666666666667" y="103.1" type="line"/>
      <point x="256.33333333333337" y="197.1"/>
      <point x="347.46666666666664" y="284.1"/>
      <point x="440.7" y="349.09999999999997" type="curve"/>
      <point x="393.8333333333333" y="386.0" type="line"/>
      <point x="367.00000000000006" y="315.26666666666665"/>
      <point x="355.6333333333333" y="248.46666666666667"/>
      <point x="355.6333333333333" y="173.6" type="curve" smooth="yes"/>
      <point x="355.6333333333333" y="64.86666666666667"/>
      <point x="391.1666666666667" y="-26.099999999999998"/>
    </contour>
  </outline>
</glyph>
<glyph name="dha-beng" format="2">
  <advance width="545.9333333333333"/>
  <unicode hex="09A7"/>
  <anchor x="470.59999999999997" y="37.0" name="bottom"/>
  <anchor x="478.4" y="100.0" name="bottom.rakaar"/>
  <anchor x="478.4" y="9.533333333333333" name="bottom.rvocalic"/>
  <anchor x="458.03333333333336" y="20.0" name="bottom.virama"/>
  <anchor x="441.20000000000005" y="592.0" name="top"/>
  <anchor x="442.2" y="572.0" name="topright"/>
  <anchor x="272.96666666666664" y="0.0" name="vedic"/>
  <outline>
    <contour>
      <point x="467.4" y="-32.0" type="line"/>
      <point x="478.4" y="-29.0" type="line"/>
      <point x="478.4" y="536.0" type="line"/>
      <point x="583.4666666666666" y="536.0" type="line"/>
      <point x="536.2" y="622.0" type="line"/>
      <point x="364.8666666666667" y="622.0" type="line"/>
      <point x="364.8666666666667" y="427.0666666666667" type="line"/>
      <point x="378.1333333333333" y="491.9666666666667" type="line"/>
      <point x="249.83333333333334" y="452.9666666666667"/>
      <point x="108.03333333333333" y="394.7"/>
      <point x="12.1" y="333.1" type="curve"/>
      <point x="84.3" y="161.73333333333332" type="line"/>
      <point x="205.03333333333333" y="149.43333333333334"/>
      <point x="314.0" y="106.56666666666668"/>
      <point x="386.06666666666666" y="13.266666666666667" type="curve"/>
    </contour>
    <contour>
      <point x="364.8666666666667" y="97.23333333333333" type="line"/>
      <point x="384.6" y="108.0" type="line"/>
      <point x="350.6" y="187.7"/>
      <point x="258.8" y="248.60000000000002"/>
      <point x="178.6" y="269.53333333333336" type="curve"/>
      <point x="185.03333333333333" y="242.3" type="line"/>
      <point x="240.8" y="277.26666666666665"/>
      <point x="322.56666666666666" y="314.59999999999997"/>
      <point x="385.2333333333333" y="330.9666666666667" type="curve"/>
      <point x="364.8666666666667" y="377.26666666666665" type="line"/>
    </contour>
    <contour>
      <point x="209.23333333333332" y="391.0" type="curve"/>
      <point x="238.46666666666667" y="428.0" type="line"/>
      <point x="184.0" y="433.6333333333333"/>
      <point x="151.36666666666667" y="466.56666666666666"/>
      <point x="151.36666666666667" y="499.56666666666666" type="curve" smooth="yes"/>
      <point x="151.36666666666667" y="532.2"/>
      <point x="168.53333333333333" y="552.0"/>
      <point x="200.70000000000002" y="552.0" type="curve" smooth="yes"/>
      <point x="207.96666666666667" y="552.0"/>
      <point x="216.6" y="551.0"/>
      <point x="226.23333333333332" y="548.0" type="curve"/>
      <point x="181.6" y="590.0" type="line"/>
      <point x="172.70000000000002" y="576.0"/>
      <point x="170.0666666666667" y="560.3666666666667"/>
      <point x="170.0666666666667" y="540.0" type="curve" smooth="yes"/>
      <point x="170.0666666666667" y="498.0"/>
      <point x="202.33333333333331" y="474.0"/>
      <point x="239.5" y="474.0" type="curve" smooth="yes"/>
      <point x="280.0333333333333" y="474.0"/>
      <point x="312.3" y="504.0"/>
      <point x="312.3" y="549.0" type="curve" smooth="yes"/>
      <point x="312.3" y="601.0"/>
      <point x="275.0333333333333" y="647.0"/>
      <point x="194.96666666666667" y="647.0" type="curve" smooth="yes"/>
      <point x="107.26666666666667" y="647.0"/>
      <point x="52.56666666666667" y="596.0"/>
      <point x="52.56666666666667" y="521.0" type="curve" smooth="yes"/>
      <point x="52.56666666666667" y="418.0"/>
      <point x="153.53333333333336" y="391.0"/>
    </contour>
  </outline>
</glyph>
<glyph name="na-beng" format="2">
  <advance width="571.3333333333334"/>
  <unicode hex="09A8"/>
  <anchor x="483.93333333333334" y="74.96666666666667" name="bottom"/>
  <anchor x="499.76666666666665" y="100.0" name="bottom.rakaar"/>
  <anchor x="497.56666666666666" y="1.0" name="bottom.rvocalic"/>
  <anchor x="476.83333333333337" y="20.0" name="bottom.virama"/>
  <anchor x="461.1" y="592.0" name="top"/>
  <anchor x="462.4666666666667" y="572.0" name="topright"/>
  <anchor x="285.1666666666667" y="0.0" name="vedic"/>
  <outline>
    <contour>
      <point x="486.56666666666666" y="-36.0" type="line"/>
      <point x="497.56666666666666" y="-33.0" type="line"/>
      <point x="497.56666666666666" y="536.0" type="line"/>
      <point x="608.8666666666667" y="536.0" type="line"/>
      <point x="562.5999999999999" y="622.0" type="line"/>
      <point x="-37.53333333333333" y="622.0" type="line"/>
      <point x="8.733333333333333" y="536.0" type="line"/>
      <point x="384.03333333333336" y="536.0" type="line"/>
      <point x="384.03333333333336" y="384.0" type="line" smooth="yes"/>
      <point x="384.03333333333336" y="325.3"/>
      <point x="390.93333333333334" y="228.0"/>
      <point x="397.3" y="177.86666666666667" type="curve"/>
      <point x="415.5333333333333" y="193.9" type="line"/>
      <point x="387.1" y="310.06666666666666"/>
      <point x="307.43333333333334" y="445.76666666666665"/>
      <point x="164.13333333333335" y="445.76666666666665" type="curve" smooth="yes"/>
      <point x="80.53333333333333" y="445.76666666666665"/>
      <point x="18.0" y="394.6666666666667"/>
      <point x="18.0" y="299.8666666666667" type="curve" smooth="yes"/>
      <point x="18.0" y="216.86666666666667"/>
      <point x="72.9" y="156.86666666666667"/>
      <point x="154.96666666666667" y="156.86666666666667" type="curve" smooth="yes"/>
      <point x="235.13333333333333" y="156.86666666666667"/>
      <point x="275.03333333333336" y="215.23333333333335"/>
      <point x="275.03333333333336" y="275.76666666666665" type="curve" smooth="yes"/>
      <point x="275.03333333333336" y="304.4"/>
      <point x="263.4" y="329.76666666666665"/>
      <point x="237.13333333333333" y="347.76666666666665" type="curve"/>
      <point x="200.86666666666667" y="252.63333333333333" type="line"/>
      <point x="211.5" y="260.1"/>
      <point x="234.3" y="268.1"/>
      <point x="254.13333333333335" y="268.1" type="curve" smooth="yes"/>
      <point x="346.1333333333333" y="268.1"/>
      <point x="390.93333333333334" y="110.26666666666668"/>
      <point x="410.29999999999995" y="19.266666666666666" type="curve"/>
    </contour>
  </outline>
</glyph>
<glyph name="pa-beng" format="2">
  <advance width="695.5333333333334"/>
  <unicode hex="09AA"/>
  <anchor x="608.0333333333334" y="68.60000000000001" name="bottom"/>
  <anchor x="628.0" y="-24.0" name="bottom.rakaar"/>
  <anchor x="628.0" y="-3.0" name="bottom.rvocalic"/>
  <anchor x="583.6" y="10.0" name="bottom.virama"/>
  <anchor x="584.3333333333333" y="582.0" name="top"/>
  <anchor x="574.6999999999999" y="572.0" name="topright"/>
  <anchor x="347.7666666666667" y="0.0" name="vedic"/>
  <outline>
    <contour>
      <point x="617.0" y="-43.0" type="line"/>
      <point x="628.0" y="-40.0" type="line"/>
      <point x="628.0" y="536.0" type="line"/>
      <point x="733.0666666666667" y="536.0" type="line"/>
      <point x="685.8" y="622.0" type="line"/>
      <point x="615.6333333333333" y="622.0" type="line"/>
      <point x="605.6333333333333" y="686.0" type="line"/>
      <point x="524.9333333333334" y="724.0" type="line"/>
      <point x="515.9333333333334" y="720.0" type="line"/>
      <point x="515.9333333333334" y="547.7666666666667" type="line" smooth="yes"/>
      <point x="515.9333333333334" y="498.06666666666666"/>
      <point x="520.5666666666667" y="443.23333333333335"/>
      <point x="525.4666666666666" y="385.3" type="curve"/>
      <point x="530.3" y="393.0" type="line"/>
      <point x="471.1333333333333" y="559.0"/>
      <point x="370.23333333333335" y="632.0"/>
      <point x="261.93333333333334" y="632.0" type="curve" smooth="yes"/>
      <point x="147.5" y="632.0"/>
      <point x="49.46666666666667" y="540.9000000000001"/>
      <point x="-5.966666666666668" y="403.96666666666664" type="curve"/>
      <point x="113.8" y="307.3666666666667" type="line"/>
      <point x="131.76666666666665" y="327.26666666666665"/>
      <point x="153.20000000000002" y="336.0"/>
      <point x="169.93333333333334" y="336.0" type="curve" smooth="yes"/>
      <point x="192.73333333333332" y="336.0"/>
      <point x="204.73333333333332" y="323.9"/>
      <point x="204.73333333333332" y="300.26666666666665" type="curve" smooth="yes"/>
      <point x="204.73333333333332" y="268.4666666666667"/>
      <point x="179.5" y="238.3"/>
      <point x="149.43333333333334" y="213.83333333333334" type="curve"/>
      <point x="259.8666666666667" y="106.46666666666667" type="line"/>
      <point x="493.3333333333333" y="372.23333333333335" type="line"/>
      <point x="396.8333333333333" y="483.3666666666667" type="line"/>
      <point x="243.8" y="301.3333333333333" type="line"/>
      <point x="254.7" y="289.5333333333333" type="line"/>
      <point x="265.43333333333334" y="312.06666666666666"/>
      <point x="274.7" y="332.5333333333333"/>
      <point x="274.7" y="363.8" type="curve" smooth="yes"/>
      <point x="274.7" y="403.96666666666664"/>
      <point x="246.53333333333333" y="428.43333333333334"/>
      <point x="209.0" y="428.43333333333334" type="curve" smooth="yes"/>
      <point x="182.03333333333333" y="428.43333333333334"/>
      <point x="153.96666666666667" y="417.26666666666665"/>
      <point x="138.0666666666667" y="398.26666666666665" type="curve"/>
      <point x="175.36666666666667" y="373.26666666666665" type="line"/>
      <point x="188.96666666666667" y="444.2666666666667"/>
      <point x="231.86666666666667" y="506.56666666666666"/>
      <point x="295.03333333333336" y="506.56666666666666" type="curve" smooth="yes"/>
      <point x="369.7333333333333" y="506.56666666666666"/>
      <point x="463.06666666666666" y="411.9"/>
      <point x="519.9333333333334" y="253.96666666666664" type="curve"/>
      <point x="514.4666666666667" y="345.3" type="line"/>
      <point x="514.4666666666667" y="-1.0" type="line"/>
    </contour>
  </outline>
</glyph>
<glyph name="pha-beng" format="2">
  <advance width="727.7"/>
  <unicode hex="09AB"/>
  <anchor x="493.26666666666665" y="37.0" name="bottom"/>
  <anchor x="501.06666666666666" y="100.0" name="bottom.rakaar"/>
  <anchor x="501.06666666666666" y="9.533333333333333" name="bottom.rvocalic"/>
  <anchor x="480.7" y="20.0" name="bottom.virama"/>
  <anchor x="463.8666666666667" y="592.0" name="top"/>
  <anchor x="464.8666666666667" y="572.0" name="topright"/>
  <anchor x="363.6666666666667" y="0.0" name="vedic"/>
  <outline>
    <contour>
      <point x="490.06666666666666" y="-32.0" type="line"/>
      <point x="501.06666666666666" y="-29.0" type="line"/>
      <point x="501.06666666666666" y="386.93333333333334" type="line"/>
      <point x="484.6333333333334" y="365.0" type="line"/>
      <point x="503.26666666666665" y="370.2"/>
      <point x="519.3333333333334" y="371.56666666666666"/>
      <point x="538.9666666666667" y="371.56666666666666" type="curve" smooth="yes"/>
      <point x="610.0333333333333" y="371.56666666666666"/>
      <point x="659.9666666666667" y="331.0"/>
      <point x="659.9666666666667" y="286.0" type="curve" smooth="yes"/>
      <point x="659.9666666666667" y="272.6333333333333"/>
      <point x="657.9666666666667" y="262.0"/>
      <point x="650.7" y="250.0" type="curve"/>
      <point x="670.8000000000001" y="246.0" type="line"/>
      <point x="669.1666666666666" y="289.0"/>
      <point x="643.2666666666667" y="313.0"/>
      <point x="598.8333333333334" y="313.0" type="curve" smooth="yes"/>
      <point x="557.0333333333334" y="313.0"/>
      <point x="521.4" y="285.0"/>
      <point x="521.4" y="233.0" type="curve" smooth="yes"/>
      <point x="521.4" y="181.0"/>
      <point x="553.3000000000001" y="143.0"/>
      <point x="608.1" y="143.0" type="curve" smooth="yes"/>
      <point x="672.8000000000001" y="143.0"/>
      <point x="718.9666666666667" y="194.9"/>
      <point x="718.9666666666667" y="289.53333333333336" type="curve" smooth="yes"/>
      <point x="718.9666666666667" y="428.9"/>
      <point x="595.5999999999999" y="512.0"/>
      <point x="458.43333333333334" y="512.0" type="curve" smooth="yes"/>
      <point x="429.1666666666667" y="512.0"/>
      <point x="413.1666666666667" y="511.0"/>
      <point x="387.53333333333336" y="508.0" type="curve"/>
      <point x="387.53333333333336" y="80.0" type="line"/>
      <point x="407.2666666666667" y="109.26666666666667" type="line"/>
      <point x="349.2" y="215.5666666666667"/>
      <point x="256.3333333333333" y="258.3333333333333"/>
      <point x="173.6" y="282.43333333333334" type="curve"/>
      <point x="180.53333333333333" y="218.76666666666665" type="line"/>
      <point x="235.53333333333333" y="263.26666666666665"/>
      <point x="299.6333333333334" y="301.1333333333333"/>
      <point x="370.03333333333336" y="340.56666666666666" type="curve"/>
      <point x="316.93333333333334" y="436.4"/>
      <point x="255.46666666666667" y="499.0"/>
      <point x="137.4" y="564.0" type="curve"/>
      <point x="127.63333333333333" y="536.0" type="line"/>
      <point x="765.2333333333333" y="536.0" type="line"/>
      <point x="718.9666666666667" y="622.0" type="line"/>
      <point x="-37.53333333333333" y="622.0" type="line"/>
      <point x="53.166666666666664" y="441.0" type="line"/>
      <point x="122.76666666666667" y="433.6333333333333"/>
      <point x="199.63333333333333" y="415.0"/>
      <point x="226.5" y="390.0" type="curve"/>
      <point x="226.93333333333334" y="425.3666666666667" type="line"/>
      <point x="183.23333333333332" y="409.3666666666667"/>
      <point x="79.8" y="354.73333333333335"/>
      <point x="42.53333333333333" y="324.2" type="curve"/>
      <point x="112.96666666666667" y="171.03333333333333" type="line"/>
      <point x="229.16666666666669" y="156.83333333333334"/>
      <point x="343.0" y="104.66666666666667"/>
      <point x="408.1" y="13.9" type="curve"/>
    </contour>
  </outline>
</glyph>
<glyph name="ba-beng" format="2">
  <advance width="534.3333333333334"/>
  <unicode hex="09AC"/>
  <anchor x="459.6333333333334" y="37.0" name="bottom"/>
  <anchor x="466.79999999999995" y="100.0" name="bottom.rakaar"/>
  <anchor x="466.8" y="9.533333333333333" name="bottom.rvocalic"/>
  <anchor x="446.43333333333334" y="20.0" name="bottom.virama"/>
  <anchor x="217.86666666666667" y="23.0" name="nukta"/>
  <anchor x="429.6" y="592.0" name="top"/>
  <anchor x="430.6" y="572.0" name="topright"/>
  <anchor x="266.6666666666667" y="0.0" name="vedic"/>
  <outline>
    <contour>
      <point x="455.8" y="-32.0" type="line"/>
      <point x="466.8" y="-29.0" type="line"/>
      <point x="466.8" y="536.0" type="line"/>
      <point x="571.8666666666667" y="536.0" type="line"/>
      <point x="524.6" y="622.0" type="line"/>
      <point x="-37.53333333333333" y="622.0" type="line"/>
      <point x="8.733333333333333" y="536.0" type="line"/>
      <point x="353.26666666666665" y="536.0" type="line"/>
      <point x="353.26666666666665" y="447.0" type="line"/>
      <point x="366.26666666666665" y="514.0" type="line"/>
      <point x="236.33333333333331" y="482.1666666666667"/>
      <point x="96.43333333333332" y="418.3333333333333"/>
      <point x="-1.0333333333333332" y="352.90000000000003" type="curve"/>
      <point x="67.63333333333333" y="180.53333333333333" type="line"/>
      <point x="194.0666666666667" y="164.43333333333334"/>
      <point x="303.6666666666667" y="114.16666666666666"/>
      <point x="373.8333333333333" y="13.9" type="curve"/>
    </contour>
    <contour>
      <point x="353.26666666666665" y="95.33333333333333" type="line"/>
      <point x="373.0" y="110.53333333333333" type="line"/>
      <point x="330.1333333333333" y="204.16666666666666"/>
      <point x="249.73333333333332" y="260.43333333333334"/>
      <point x="173.33333333333331" y="283.26666666666665" type="curve"/>
      <point x="177.23333333333332" y="261.2666666666667" type="line"/>
      <point x="234.0" y="298.2666666666667"/>
      <point x="313.8666666666667" y="333.70000000000005"/>
      <point x="373.6333333333333" y="350.06666666666666" type="curve"/>
      <point x="353.26666666666665" y="401.0" type="line"/>
    </contour>
  </outline>
</glyph>
<glyph name="bha-beng" format="2">
  <advance width="633.0666666666667"/>
  <unicode hex="09AD"/>
  <anchor x="458.06666666666666" y="-18.0" name="bottom"/>
  <anchor x="560.6666666666666" y="-3.0" name="bottom.rakaar"/>
  <anchor x="485.06666666666666" y="-20.0" name="bottom.rvocalic"/>
  <anchor x="421.90000000000003" y="-3.0" name="bottom.virama"/>
  <anchor x="367.4666666666667" y="592.0" name="top"/>
  <anchor x="368.4666666666667" y="572.0" name="topright"/>
  <anchor x="316.53333333333336" y="0.0" name="vedic"/>
  <outline>
    <contour>
      <point x="375.53333333333336" y="-19.0" type="curve" smooth="yes"/>
      <point x="509.93333333333334" y="-19.0"/>
      <point x="618.6333333333333" y="58.0"/>
      <point x="618.6333333333333" y="248.0" type="curve" smooth="yes"/>
      <point x="618.6333333333333" y="377.0"/>
      <point x="557.8333333333334" y="453.0"/>
      <point x="504.0333333333333" y="495.0" type="curve"/>
      <point x="449.26666666666665" y="402.26666666666665"/>
      <point x="394.43333333333334" y="353.1666666666667"/>
      <point x="321.46666666666664" y="350.7" type="curve"/>
      <point x="347.1" y="317.0" type="line"/>
      <point x="367.3666666666667" y="336.0"/>
      <point x="379.1" y="359.73333333333335"/>
      <point x="379.1" y="392.0" type="curve" smooth="yes"/>
      <point x="379.1" y="449.7333333333333"/>
      <point x="336.93333333333334" y="486.0"/>
      <point x="282.56666666666666" y="486.0" type="curve" smooth="yes"/>
      <point x="215.86666666666665" y="486.0"/>
      <point x="176.86666666666667" y="436.6333333333333"/>
      <point x="176.86666666666667" y="372.0" type="curve" smooth="yes"/>
      <point x="176.86666666666667" y="287.3666666666667"/>
      <point x="244.56666666666666" y="218.89999999999998"/>
      <point x="343.1" y="218.89999999999998" type="curve" smooth="yes"/>
      <point x="421.8" y="218.89999999999998"/>
      <point x="503.8666666666667" y="261.16666666666663"/>
      <point x="561.5666666666666" y="342.3666666666667" type="curve"/>
      <point x="519.3666666666667" y="346.3333333333333" type="line"/>
      <point x="532.1" y="330.3333333333333"/>
      <point x="541.7333333333333" y="302.1666666666667"/>
      <point x="541.7333333333333" y="270.8" type="curve" smooth="yes"/>
      <point x="541.7333333333333" y="182.0"/>
      <point x="469.3333333333333" y="136.79999999999998"/>
      <point x="370.8" y="136.79999999999998" type="curve" smooth="yes"/>
      <point x="228.4" y="136.79999999999998"/>
      <point x="133.46666666666667" y="230.66666666666666"/>
      <point x="61.96666666666666" y="484.0" type="curve"/>
      <point x="-4.133333333333336" y="468.0" type="line"/>
      <point x="68.2" y="141.4"/>
      <point x="164.66666666666666" y="-19.0"/>
    </contour>
    <contour>
      <point x="8.733333333333333" y="536.0" type="line"/>
      <point x="670.6" y="536.0" type="line"/>
      <point x="622.3333333333334" y="622.0" type="line"/>
      <point x="-37.53333333333333" y="622.0" type="line"/>
    </contour>
  </outline>
</glyph>
<glyph name="ma-beng" format="2">
  <advance width="582.2"/>
  <unicode hex="09AE"/>
  <anchor x="497.33333333333337" y="55.33333333333333" name="bottom"/>
  <anchor x="510.6333333333333" y="100.0" name="bottom.rakaar"/>
  <anchor x="508.43333333333334" y="7.333333333333333" name="bottom.rvocalic"/>
  <anchor x="487.7" y="20.0" name="bottom.virama"/>
  <anchor x="471.96666666666664" y="592.0" name="top"/>
  <anchor x="473.33333333333337" y="572.0" name="topright"/>
  <anchor x="290.6" y="0.0" name="vedic"/>
  <outline>
    <contour>
      <point x="497.43333333333334" y="-33.46666666666667" type="line"/>
      <point x="508.43333333333334" y="-30.466666666666665" type="line"/>
      <point x="508.43333333333334" y="536.0" type="line"/>
      <point x="619.7333333333333" y="536.0" type="line"/>
      <point x="572.8333333333334" y="622.0" type="line"/>
      <point x="-37.53333333333333" y="622.0" type="line"/>
      <point x="8.733333333333333" y="536.0" type="line"/>
      <point x="36.233333333333334" y="536.0" type="line"/>
      <point x="14.966666666666669" y="577.0" type="line"/>
      <point x="11.7" y="566.0"/>
      <point x="10.433333333333334" y="542.0"/>
      <point x="10.433333333333334" y="535.0" type="curve" smooth="yes"/>
      <point x="10.433333333333334" y="482.8333333333333"/>
      <point x="50.300000000000004" y="452.46666666666664"/>
      <point x="129.56666666666666" y="428.0" type="curve" smooth="yes"/>
      <point x="173.26666666666665" y="414.3666666666667"/>
      <point x="202.03333333333336" y="397.33333333333337"/>
      <point x="202.03333333333336" y="361.3333333333333" type="curve" smooth="yes"/>
      <point x="202.03333333333336" y="324.7"/>
      <point x="176.9" y="303.3333333333333"/>
      <point x="159.63333333333335" y="292.0333333333333" type="curve"/>
      <point x="284.06666666666666" y="319.0" type="line"/>
      <point x="260.8" y="327.0"/>
      <point x="238.26666666666668" y="336.0"/>
      <point x="204.36666666666667" y="336.0" type="curve" smooth="yes"/>
      <point x="121.93333333333334" y="336.3666666666667"/>
      <point x="78.76666666666667" y="291.90000000000003"/>
      <point x="78.76666666666667" y="222.9" type="curve" smooth="yes"/>
      <point x="78.76666666666667" y="149.0"/>
      <point x="130.4" y="103.46666666666667"/>
      <point x="198.1" y="103.10000000000001" type="curve" smooth="yes"/>
      <point x="267.8333333333333" y="102.73333333333333"/>
      <point x="304.8" y="148.0"/>
      <point x="323.0666666666667" y="211.1" type="curve"/>
      <point x="277.9" y="191.9333333333333" type="line"/>
      <point x="358.06666666666666" y="175.56666666666666"/>
      <point x="388.5333333333333" y="95.73333333333333"/>
      <point x="415.4666666666667" y="15.466666666666667" type="curve"/>
    </contour>
    <contour>
      <point x="408.6333333333333" y="105.06666666666666" type="curve"/>
      <point x="424.33333333333337" y="123.0" type="line"/>
      <point x="398.56666666666666" y="219.4333333333333"/>
      <point x="360.1666666666667" y="280.6666666666667"/>
      <point x="303.70000000000005" y="311.0" type="curve"/>
      <point x="329.29999999999995" y="239.1" type="line"/>
      <point x="337.6666666666667" y="269.1"/>
      <point x="338.7666666666667" y="288.73333333333335"/>
      <point x="338.7666666666667" y="312.1" type="curve" smooth="yes"/>
      <point x="338.7666666666667" y="381.9"/>
      <point x="310.3333333333333" y="424.2666666666667"/>
      <point x="257.93333333333334" y="452.0" type="curve" smooth="yes"/>
      <point x="217.23333333333332" y="473.8333333333333"/>
      <point x="189.43333333333334" y="492.8333333333333"/>
      <point x="189.06666666666666" y="526.0" type="curve" smooth="yes"/>
      <point x="189.06666666666666" y="541.6333333333333"/>
      <point x="193.7" y="556.0"/>
      <point x="202.33333333333334" y="565.0" type="curve"/>
      <point x="114.6" y="536.0" type="line"/>
      <point x="394.90000000000003" y="536.0" type="line"/>
      <point x="394.90000000000003" y="325.5" type="line" smooth="yes"/>
      <point x="394.90000000000003" y="264.4"/>
      <point x="403.0666666666667" y="164.7"/>
    </contour>
  </outline>
</glyph>
<glyph name="ya-beng" format="2">
  <advance width="577.4"/>
  <unicode hex="09AF"/>
  <anchor x="495.4666666666667" y="37.0" name="bottom"/>
  <anchor x="503.2666666666667" y="100.0" name="bottom.rakaar"/>
  <anchor x="503.26666666666665" y="9.533333333333333" name="bottom.rvocalic"/>
  <anchor x="482.9" y="20.0" name="bottom.virama"/>
  <anchor x="254.33333333333331" y="25.566666666666666" name="nukta"/>
  <anchor x="466.06666666666666" y="592.0" name="top"/>
  <anchor x="467.06666666666666" y="572.0" name="topright"/>
  <anchor x="288.7" y="0.0" name="vedic"/>
  <outline>
    <contour>
      <point x="492.26666666666665" y="-32.0" type="line"/>
      <point x="503.26666666666665" y="-29.0" type="line"/>
      <point x="503.26666666666665" y="536.0" type="line"/>
      <point x="614.9333333333333" y="536.0" type="line"/>
      <point x="566.6666666666667" y="622.0" type="line"/>
      <point x="-37.53333333333333" y="622.0" type="line"/>
      <point x="53.166666666666664" y="441.0" type="line"/>
      <point x="125.3" y="433.0"/>
      <point x="199.63333333333333" y="415.0"/>
      <point x="226.5" y="390.0" type="curve"/>
      <point x="226.93333333333334" y="425.3666666666667" type="line"/>
      <point x="183.23333333333332" y="409.3666666666667"/>
      <point x="78.53333333333333" y="353.4666666666667"/>
      <point x="42.53333333333333" y="324.2" type="curve"/>
      <point x="112.96666666666667" y="171.03333333333333" type="line"/>
      <point x="229.16666666666669" y="156.20000000000002"/>
      <point x="345.2" y="104.66666666666667"/>
      <point x="410.3" y="13.9" type="curve"/>
    </contour>
    <contour>
      <point x="389.73333333333335" y="80.0" type="line"/>
      <point x="409.4666666666667" y="109.26666666666667" type="line"/>
      <point x="352.66666666666663" y="214.93333333333334"/>
      <point x="256.3333333333333" y="258.3333333333333"/>
      <point x="173.6" y="282.43333333333334" type="curve"/>
      <point x="180.53333333333333" y="218.76666666666665" type="line"/>
      <point x="233.63333333333333" y="261.3666666666667"/>
      <point x="300.2666666666667" y="301.7666666666667"/>
      <point x="370.03333333333336" y="339.93333333333334" type="curve"/>
      <point x="313.1333333333334" y="440.2"/>
      <point x="255.46666666666667" y="499.0"/>
      <point x="137.4" y="564.0" type="curve"/>
      <point x="130.93333333333334" y="536.0" type="line"/>
      <point x="389.73333333333335" y="536.0" type="line"/>
    </contour>
  </outline>
</glyph>
